SplineFontDB: 3.0
FontName: Jost-LightItalic
FullName: Jost* 300 Light Italic
FamilyName: Jost* Light
Weight: Light
Copyright: This typeface is licensed under the SIL open font license.
UComments: "2018-6-8: Created with FontForge (http://fontforge.org)"
Version: 003.300
ItalicAngle: -10
UnderlinePosition: -100
UnderlineWidth: 50
Ascent: 800
Descent: 200
InvalidEm: 0
LayerCount: 2
Layer: 0 0 "Back" 1
Layer: 1 0 "Fore" 0
XUID: [1021 69 1495626776 760146]
FSType: 0
OS2Version: 0
OS2_WeightWidthSlopeOnly: 0
OS2_UseTypoMetrics: 0
CreationTime: 1528480336
ModificationTime: 1536030170
PfmFamily: 17
TTFWeight: 300
TTFWidth: 5
LineGap: 100
VLineGap: 0
OS2TypoAscent: 825
OS2TypoAOffset: 0
OS2TypoDescent: -225
OS2TypoDOffset: 0
OS2TypoLinegap: 100
OS2WinAscent: 900
OS2WinAOffset: 0
OS2WinDescent: 300
OS2WinDOffset: 0
HheadAscent: 1030
HheadAOffset: 0
HheadDescent: -350
HheadDOffset: 0
OS2CapHeight: 700
OS2XHeight: 460
OS2Vendor: 'PfEd'
Lookup: 1 0 0 "alt a" { "alt a"  } ['ss01' ('DFLT' <'dflt' > 'latn' <'dflt' > ) ]
Lookup: 1 0 0 "Tabular Numbers lookup" { "Tabular Numbers lookup"  } ['tnum' ('DFLT' <'dflt' > 'grek' <'dflt' > 'latn' <'dflt' > ) ]
Lookup: 258 0 0 "Lets get our kern on" { "kernin like nobodys business" [150,0,4] } ['kern' ('DFLT' <'dflt' > 'latn' <'dflt' > ) ]
MarkAttachClasses: 1
DEI: 91125
KernClass2: 16 14 "kernin like nobodys business"
 15 slash seven V W
 175 quotedbl quotesingle asterisk grave dieresis ordfeminine macron degree acute ordmasculine circumflex breve dotaccent ring tilde quoteleft quoteright quotedblleft quotedblright
 17 nine question F P
 107 A L backslash Agrave Aacute Acircumflex Atilde Adieresis Aring Amacron Abreve Aogonek Lacute uni013B Lslash
 26 three eight B C germandbls
 5 K X Z
 125 at D G O Ograve Oacute Ocircumflex Otilde Odieresis Oslash Dcaron Dcroat Gcircumflex Gbreve Gdotaccent uni0122 Omacron Obreve

StartChar: H
Encoding: 72 72 0
Width: 666
VWidth: 0
Flags: HMW
LayerCount: 2
Fore
SplineSet
143.5 355 m 1
 152 407 l 1
 611 407 l 1
 602.5 355 l 1
 143.5 355 l 1
623.5 699.5 m 1
 680 700 l 1
 558.5 0 l 1
 505 0 l 1
 623.5 699.5 l 1
173 699.5 m 1
 228.5 700 l 1
 108 0 l 1
 54.5 0 l 1
 173 699.5 l 1
EndSplineSet
EndChar

StartChar: O
Encoding: 79 79 1
Width: 760
VWidth: 0
Flags: HMW
LayerCount: 2
Fore
SplineSet
132.5 350 m 0
 108.5 194 190.5 47.5 359 46.5 c 0
 529.5 45.5 666 185.5 693 350 c 0
 717 506 635.5 652.5 467 653.5 c 0
 296.5 654.5 159.5 514.5 132.5 350 c 0
74.5 350 m 0
 105 546 270 709.5 472 709 c 0
 671.5 708.5 779 536.5 751.5 350 c 0
 721 154 556 -9.5 354 -9 c 0
 154.5 -8.5 47 163.5 74.5 350 c 0
EndSplineSet
EndChar

StartChar: I
Encoding: 73 73 2
Width: 212
VWidth: 0
Flags: HMW
LayerCount: 2
Fore
SplineSet
171.5 700 m 1
 226.5 700 l 1
 105.5 0 l 1
 52.5 0 l 1
 171.5 700 l 1
EndSplineSet
EndChar

StartChar: C
Encoding: 67 67 3
Width: 664
VWidth: 0
Flags: HMW
LayerCount: 2
Fore
SplineSet
133 350 m 0
 109.5 194 191.5 49 353.5 47.5 c 0
 449 46.5 527 86.5 590 142 c 1
 578.5 68.5 l 1
 513 19.5 442 -9.5 348 -9 c 0
 152.5 -8 47 163 74.5 350 c 0
 105 547 268 708 466.5 709 c 0
 555.5 709.5 618 684 674 631 c 1
 662 558 l 1
 615.5 620 547.5 653 461 653 c 0
 297 652.5 160 516 133 350 c 0
EndSplineSet
EndChar

StartChar: E
Encoding: 69 69 4
Width: 517
VWidth: 0
Flags: HMW
LayerCount: 2
Fore
SplineSet
82.5 0 m 1
 91 52 l 1
 429 52 l 1
 420.5 0 l 1
 82.5 0 l 1
193.5 648 m 1
 202 700 l 1
 539.5 700 l 1
 531 648 l 1
 193.5 648 l 1
143.5 358 m 1
 152.5 410 l 1
 470.5 410 l 1
 462 358 l 1
 143.5 358 l 1
173 700 m 1
 228.5 700 l 1
 108 0 l 1
 54.5 0 l 1
 173 700 l 1
EndSplineSet
EndChar

StartChar: F
Encoding: 70 70 6
Width: 465
VWidth: 0
Flags: HMW
LayerCount: 2
Fore
SplineSet
193.5 648 m 1
 202 700 l 1
 501 700 l 1
 492 648 l 1
 193.5 648 l 1
143 353.5 m 1
 152 405 l 1
 441 405 l 1
 432 353 l 1
 143 353.5 l 1
173 700 m 1
 228.5 700 l 1
 108 0 l 1
 54.5 0 l 1
 173 700 l 1
EndSplineSet
EndChar

StartChar: G
Encoding: 71 71 7
Width: 748
VWidth: 0
Flags: HMW
LayerCount: 2
Fore
SplineSet
421.5 297 m 1
 431 348.5 l 1
 733 348.5 l 1
 699 164.5 560.5 -9 354.5 -9 c 0
 155 -9 47 162 74.5 350 c 0
 105.5 548 271 709 473.5 709 c 0
 591 709.5 678 653.5 727.5 558.5 c 1
 683.5 524 l 1
 646 605 569.5 654 468 653.5 c 0
 299 653.5 160 517.5 132.5 350 c 0
 108.5 192.5 192.5 47 360 46.5 c 0
 517.149 46 621.2485 166.8405 665.023 297 c 1
 421.5 297 l 1
EndSplineSet
EndChar

StartChar: T
Encoding: 84 84 8
Width: 437
VWidth: 0
Flags: HMW
LayerCount: 2
Fore
SplineSet
96 648 m 1
 105.5 700 l 1
 517.5 700 l 1
 508 648 l 1
 329.5 648 l 1
 218.5 0 l 1
 164 0 l 1
 275 648 l 1
 96 648 l 1
EndSplineSet
EndChar

StartChar: L
Encoding: 76 76 9
Width: 428
VWidth: 0
Flags: HMW
LayerCount: 2
Fore
SplineSet
173.5 700 m 1
 228.5 700 l 1
 117 52 l 1
 397.5 52 l 1
 388.5 0 l 1
 53.5 0 l 1
 173.5 700 l 1
EndSplineSet
EndChar

StartChar: D
Encoding: 68 68 10
Width: 642
VWidth: 0
Flags: HMW
LayerCount: 2
Fore
SplineSet
173 699.5 m 1
 228.5 700 l 1
 108 0 l 1
 54.5 0 l 1
 173 699.5 l 1
241 0 m 2
 83 0 l 1
 92.5 55 l 1
 246.5 55 l 2
 420.5 55 550.5 180.5 578.5 350 c 0
 604 511.5 521.5 645 350.5 645 c 2
 193 645 l 1
 202.5 700 l 1
 356 700 l 2
 556.5 700 661.5 540.5 633 350 c 0
 602 151 445 0 241 0 c 2
EndSplineSet
EndChar

StartChar: Q
Encoding: 81 81 11
Width: 758
VWidth: 0
Flags: HMW
LayerCount: 2
Fore
SplineSet
132.5 350 m 0
 108.5 194 190.5 47.5 359 46.5 c 0
 529.5 45.5 666 185.5 693 350 c 0
 717 506 635.5 652.5 467 653.5 c 0
 296.5 654.5 159.5 514.5 132.5 350 c 0
74.5 350 m 0
 105 546 270 709.5 472 709 c 0
 671.5 708.5 779 536.5 751.5 350 c 0
 721 154 556 -9.5 354 -9 c 0
 154.5 -8.5 47 163.5 74.5 350 c 0
400.5 300 m 1
 469 300 l 1
 717.5 0 l 1
 648.5 0 l 1
 400.5 300 l 1
EndSplineSet
EndChar

StartChar: A
Encoding: 65 65 12
Width: 616
VWidth: 0
Flags: HMW
LayerCount: 2
Fore
SplineSet
148.5 235 m 1
 174 286.5 l 1
 489 286.5 l 1
 498 235 l 1
 148.5 235 l 1
386 600 m 1
 196.5 269 l 1
 189 257 l 1
 42 0 l 1
 -20.5 0 l 1
 405.5 728 l 1
 581 0 l 1
 521 0 l 1
 464 253 l 1
 461.5 266 l 1
 386 600 l 1
EndSplineSet
EndChar

StartChar: R
Encoding: 82 82 13
Width: 507
VWidth: 0
Flags: HMW
LayerCount: 2
Fore
SplineSet
226.5 334 m 1
 285.5 334 l 1
 460.5 0 l 1
 396 0 l 1
 226.5 334 l 1
173 700 m 1
 228.5 700 l 1
 108 0 l 1
 54.5 0 l 1
 173 700 l 1
192.5 651 m 1
 201.5 700 l 1
 327.5 700 l 2
 453.5 700 544.5 621 525 496.5 c 0
 505 370 392 295 261.5 294 c 2
 131.5 294 l 1
 140.5 343 l 1
 266 343 l 2
 368.5 344 454 399 471 497 c 0
 487 593 420 650 322.5 651 c 2
 192.5 651 l 1
EndSplineSet
EndChar

StartChar: V
Encoding: 86 86 14
Width: 616
VWidth: 0
Flags: HMW
LayerCount: 2
Fore
SplineSet
305.5 101 m 1
 638.5 699.5 l 1
 700.5 699.5 l 1
 287 -28 l 1
 100 700 l 1
 159 700 l 1
 305.5 101 l 1
EndSplineSet
EndChar

StartChar: M
Encoding: 77 77 15
Width: 793
VWidth: 0
Flags: HMW
LayerCount: 2
Fore
SplineSet
226.7935 551.8485 m 1
 73 0 l 1
 18 0 l 1
 222.5 727.5 l 1
 401 190 l 1
 767.5 729.5 l 1
 720 0 l 1
 665.5 0 l 1
 703.2065 548.8485 l 1
 384 80 l 1
 226.7935 551.8485 l 1
EndSplineSet
EndChar

StartChar: W
Encoding: 87 87 16
Width: 944
VWidth: 0
Flags: HMW
LayerCount: 2
Fore
SplineSet
678.455 120.3245 m 1
 962.5 699.5 l 1
 1024 699.5 l 1
 658.5 -28.5 l 1
 545 574.5 l 1
 243.5 -28.5 l 1
 104.5 700 l 1
 163.5 700 l 1
 266.545 120.3245 l 1
 568 728.5 l 1
 678.455 120.3245 l 1
EndSplineSet
EndChar

StartChar: N
Encoding: 78 78 17
Width: 709
VWidth: 0
Flags: HMW
LayerCount: 2
Fore
SplineSet
674.5 700 m 1
 729 700 l 1
 604 -26.5 l 1
 193.5 581.6485 l 1
 92.5 0 l 1
 37.5 0 l 1
 162.5 726.5 l 1
 573.5 116.4345 l 1
 674.5 700 l 1
EndSplineSet
EndChar

StartChar: a
Encoding: 97 97 18
Width: 541
VWidth: 0
Flags: HMW
LayerCount: 2
Fore
SplineSet
473.2 459.5 m 1
 522.7 460 l 1
 442.7 0 l 1
 395.2 0 l 1
 473.2 459.5 l 1
49 230 m 0
 68.5 364.1 176 471 304.5 470 c 0
 428.6 469 471.5 346.5 455.5 230 c 0
 437.5 105.5 350.1 -9 226.5 -9.5 c 0
 98 -10 31.5 102.4 49 230 c 0
101.3 230 m 0
 86.8 128.5 135.9 39 237.6 39.5 c 0
 331.4 40 415.7 130.5 431.7 230 c 0
 444.7 323 398.9 418.5 306.6 420.5 c 0
 204.4 422.5 117.8 337 101.3 230 c 0
EndSplineSet
Substitution2: "alt a" a.alt
EndChar

StartChar: X
Encoding: 88 88 19
Width: 517
VWidth: 0
Flags: HMW
LayerCount: 2
Fore
SplineSet
515 699.5 m 1
 581.5 699.5 l 1
 327.5 365.5 l 1
 486 0 l 1
 423.5 0 l 1
 294 317 l 1
 61 0 l 1
 -5.5 0 l 1
 274 368.5 l 1
 129 700 l 1
 192 700 l 1
 307.5 416.5 l 1
 515 699.5 l 1
EndSplineSet
EndChar

StartChar: K
Encoding: 75 75 20
Width: 504
VWidth: 0
Flags: HMW
LayerCount: 2
Fore
SplineSet
171.5 700 m 1
 226.5 700 l 1
 106 0 l 1
 52.5 0 l 1
 171.5 700 l 1
505.5 699.5 m 1
 576.5 699.5 l 1
 219 370.5 l 1
 468.5 0 l 1
 403 0 l 1
 153.5 372.5 l 1
 505.5 699.5 l 1
EndSplineSet
EndChar

StartChar: Y
Encoding: 89 89 21
Width: 523
VWidth: 0
Flags: HMW
LayerCount: 2
Fore
SplineSet
545.5 699.5 m 1
 608.5 699.5 l 1
 308.5 286.9865 l 1
 259.5 0 l 1
 204.5 0 l 1
 255.5 289.57 l 1
 101.5 700 l 1
 161 700 l 1
 289 339 l 1
 545.5 699.5 l 1
EndSplineSet
EndChar

StartChar: B
Encoding: 66 66 22
Width: 516
VWidth: 0
Flags: HMW
LayerCount: 2
Fore
SplineSet
154.5 376.5 m 1
 159 407.5 l 1
 270 408 l 2
 349.5 409 422.5 448.5 436 528 c 0
 449 603.5 395 650 314.5 650.5 c 2
 219.5 651 l 1
 116.5 49 l 1
 218 49.5 l 2
 320 50 402 106.5 418.5 206 c 0
 433.5 298.5 365 358.5 274.5 359 c 2
 151 359.5 l 1
 156.5 390.5 l 1
 280.5 391 l 2
 392 390 490.5 324 473 202.5 c 0
 453.5 70.5 344 0 213.5 0 c 2
 53.5 0 l 1
 173.5 700 l 1
 319.5 700 l 2
 431.5 700 508.5 639 491 530.5 c 0
 474 428 380.5 378 271.5 376.5 c 2
 154.5 376.5 l 1
EndSplineSet
EndChar

StartChar: Z
Encoding: 90 90 23
Width: 524
VWidth: 0
Flags: HMW
LayerCount: 2
Fore
SplineSet
118.5 648 m 1
 128 700 l 1
 601.5 699.5 l 1
 89.5 52.5 l 1
 475 52.5 l 1
 465.5 0 l 1
 -12.5 0 l 1
 500 647.5 l 1
 118.5 648 l 1
EndSplineSet
EndChar

StartChar: o
Encoding: 111 111 24
Width: 533
VWidth: 0
Flags: HMW
LayerCount: 2
Fore
SplineSet
55.5 230 m 0
 73.5 362 186 469.5 320.5 469.5 c 0
 453.5 469.5 532 357 515 230 c 0
 497 98 384.5 -9.5 250 -9.5 c 0
 117 -9.5 38.5 103 55.5 230 c 0
107.5 230 m 0
 93.5 131 150 40 254 39.5 c 0
 359.5 39 447.5 126 463 230 c 0
 477 329 420 420 316 420.5 c 0
 210.5 421 123 334 107.5 230 c 0
EndSplineSet
EndChar

StartChar: J
Encoding: 74 74 25
Width: 215
VWidth: 0
Flags: HMW
LayerCount: 2
Fore
SplineSet
-138.5 -126.5 m 1
 -120 -149.5 -94 -168 -57.5 -167.5 c 0
 2 -167 38 -120 47.5 -50 c 2
 176 700 l 1
 228.5 700 l 1
 98.5 -60.5 l 2
 83.5 -155.5 29.5 -220.5 -65 -219.5 c 0
 -113 -219 -152.5 -193 -173 -167.5 c 1
 -138.5 -126.5 l 1
EndSplineSet
EndChar

StartChar: t
Encoding: 116 116 26
Width: 213
VWidth: 0
Flags: HMW
LayerCount: 2
Fore
SplineSet
61.5 460 m 1
 258.5 460 l 1
 249.5 411 l 1
 52.5 411 l 1
 61.5 460 l 1
159.5 619.5 m 1
 212 620 l 1
 104.5 0 l 1
 54.5 0 l 1
 159.5 619.5 l 1
EndSplineSet
EndChar

StartChar: d
Encoding: 100 100 27
Width: 541
VWidth: 0
Flags: HMW
LayerCount: 2
Fore
SplineSet
524.5 779.5 m 1
 577 780 l 1
 442.5 0 l 1
 392 0 l 1
 524.5 779.5 l 1
49 230 m 0
 68.5 364 176 471 304.5 470 c 0
 428.5 469 471.5 346.5 455.5 230 c 0
 437.5 105.5 350 -9 226.5 -9.5 c 0
 98 -10 31.5 102.5 49 230 c 0
101.5 230 m 0
 87 128.5 136 39 237.5 39.5 c 0
 331.5 40 415.5 130.5 431.5 230 c 0
 444.5 323 399 418.5 306.5 420.5 c 0
 204.5 422.5 118 337 101.5 230 c 0
EndSplineSet
EndChar

StartChar: l
Encoding: 108 108 28
Width: 203
VWidth: 0
Flags: HMW
LayerCount: 2
Fore
SplineSet
182 779.5 m 1
 234.5 780 l 1
 99.5 0 l 1
 49.5 0 l 1
 182 779.5 l 1
EndSplineSet
EndChar

StartChar: i
Encoding: 105 105 29
Width: 224
VWidth: 0
Flags: HMW
LayerCount: 2
Fore
SplineSet
163 668 m 0
 163 688 179 704.5 199.5 704.5 c 0
 220 704.5 236.5 688 236.5 668 c 0
 236.5 648 220 631.5 199.5 631.5 c 0
 179 631.5 163 648 163 668 c 0
138 459.5 m 1
 190.5 459.5 l 1
 111.5 0 l 1
 60 0 l 1
 138 459.5 l 1
EndSplineSet
EndChar

StartChar: r
Encoding: 114 114 30
Width: 311
VWidth: 0
Flags: HMW
LayerCount: 2
Fore
SplineSet
179.5 460 m 1
 100 0 l 1
 48 0 l 1
 128 460 l 1
 179.5 460 l 1
318.5 399.5 m 1
 301 411.5 285.5 420.5 264 421 c 0
 193 422.5 160 347.5 147.5 281 c 1
 123.5 281 l 1
 139.5 373 196 470.5 280.5 469.5 c 0
 308.5 469.5 331.5 459 352.5 441 c 1
 318.5 399.5 l 1
EndSplineSet
EndChar

StartChar: c
Encoding: 99 99 31
Width: 467
VWidth: 0
Flags: HMW
LayerCount: 2
Fore
SplineSet
102.5 230 m 0
 88.5 130.5 145.5 40.5 249.5 39.5 c 0
 319.5 39 380.5 75 416 113 c 1
 406.5 48.5 l 1
 367.5 15.5 309 -9.5 245 -9.5 c 0
 112 -9 33.5 103 50.5 230 c 0
 68.5 362.5 180.5 469.5 315.5 469.5 c 0
 376 469.5 429.5 446.5 462 411 c 1
 452.5 346.5 l 1
 429 389 377 421 311.5 420.5 c 0
 206 420 118.5 334.5 102.5 230 c 0
EndSplineSet
EndChar

StartChar: b
Encoding: 98 98 32
Width: 541
VWidth: 0
Flags: HMW
LayerCount: 2
Fore
SplineSet
229.5 780 m 1
 95 0 l 1
 43.5 0 l 1
 177.5 780 l 1
 229.5 780 l 1
516.5 230 m 0
 497 96 390 -11 261.5 -10 c 0
 137.5 -9 95 113.5 111 230 c 0
 129 354.5 216 469 339.5 469.5 c 0
 468 470 534 357.5 516.5 230 c 0
465 230 m 0
 479.5 331.5 429.5 421 328 420.5 c 0
 234 420 150.5 329.5 134.5 230 c 0
 121.5 137 166.5 41.5 259 39.5 c 0
 361 37.5 448.5 123 465 230 c 0
EndSplineSet
EndChar

StartChar: p
Encoding: 112 112 33
Width: 541
VWidth: 0
Flags: HMW
LayerCount: 2
Fore
SplineSet
58.5 -219.5 m 1
 5.5 -220 l 1
 123.5 460 l 1
 173.5 459.5 l 1
 58.5 -219.5 l 1
516.5 230 m 0
 497 96 390 -11 261.5 -10 c 0
 137.5 -9 95 113.5 111 230 c 0
 129 354.5 216 469 339.5 469.5 c 0
 468 470 534 357.5 516.5 230 c 0
465 230 m 0
 479.5 331.5 429.5 421 328 420.5 c 0
 234 420 150.5 329.5 134.5 230 c 0
 121.5 137 166.5 41.5 259 39.5 c 0
 361 37.5 448.5 123 465 230 c 0
EndSplineSet
EndChar

StartChar: q
Encoding: 113 113 34
Width: 541
VWidth: 0
Flags: HMW
LayerCount: 2
Fore
SplineSet
353.5 -220 m 1
 470.5 460 l 1
 522.5 460 l 1
 405 -220 l 1
 353.5 -220 l 1
49 230 m 0
 68.5 364 176 471 304.5 470 c 0
 428.5 469 471.5 346.5 455.5 230 c 0
 437.5 105.5 350 -9 226.5 -9.5 c 0
 98 -10 31.5 102.5 49 230 c 0
101.5 230 m 0
 87 128.5 136 39 237.5 39.5 c 0
 331.5 40 415.5 130.5 431.5 230 c 0
 444.5 323 399 418.5 306.5 420.5 c 0
 204.5 422.5 118 337 101.5 230 c 0
EndSplineSet
EndChar

StartChar: h
Encoding: 104 104 35
Width: 489
VWidth: 0
Flags: HMW
LayerCount: 2
Fore
SplineSet
234.5 780 m 1
 100 0 l 1
 48.5 0 l 1
 182.5 780 l 1
 234.5 780 l 1
386.5 296 m 2
 395 362.5 379 419 305 420.5 c 0
 224.5 422 165.5 352.5 147.5 281 c 1
 129.5 281 l 1
 149 379.5 220 469.5 321 469.5 c 0
 418 469.5 450 394 438.5 302 c 1
 386 0 l 1
 335.5 0 l 1
 386.5 296 l 2
EndSplineSet
EndChar

StartChar: n
Encoding: 110 110 36
Width: 489
VWidth: 0
Flags: HMW
LayerCount: 2
Fore
SplineSet
179.5 460 m 1
 100 0 l 1
 48 0 l 1
 128 460 l 1
 179.5 460 l 1
386.5 296 m 2
 395 362.5 379 419 305 420.5 c 0
 224.5 422 165.5 352.5 147.5 281 c 1
 129.5 281 l 1
 149 379.5 220 469.5 321 469.5 c 0
 418 469.5 450 394 438.5 302 c 1
 386 0 l 1
 335.5 0 l 1
 386.5 296 l 2
EndSplineSet
EndChar

StartChar: m
Encoding: 109 109 37
Width: 721
VWidth: 0
Flags: HMW
LayerCount: 2
Fore
SplineSet
359.5 296 m 2
 367 359 360 418.5 291.5 420 c 0
 217 422 163.5 350.5 147.5 281 c 1
 129.5 281 l 1
 148 376.5 212.5 470 307.5 469.5 c 0
 399 469 421.5 390.5 411 302 c 2
 359 0 l 1
 308.5 0 l 1
 359.5 296 l 2
179.5 460 m 1
 100 0 l 1
 48 0 l 1
 128 460 l 1
 179.5 460 l 1
670 302 m 2
 618.5 0 l 1
 566.5 0 l 1
 618.5 296 l 2
 626 359 618.5 418.5 550 420 c 0
 475.5 422 423 350.5 407 281 c 1
 379.5 281 l 1
 398.5 377.5 470.5 470.5 566.5 469.5 c 0
 658 469 680.5 390.5 670 302 c 2
EndSplineSet
EndChar

StartChar: k
Encoding: 107 107 38
Width: 399
VWidth: 0
Flags: HMW
LayerCount: 2
Fore
SplineSet
177 779.5 m 1
 229.5 780 l 1
 95 0 l 1
 44.5 0 l 1
 177 779.5 l 1
363.5 459.5 m 1
 431.5 459.5 l 1
 184.5 266 l 1
 369 0 l 1
 307 0 l 1
 123 271.5 l 1
 363.5 459.5 l 1
EndSplineSet
EndChar

StartChar: u
Encoding: 117 117 39
Width: 489
VWidth: 0
Flags: HMW
LayerCount: 2
Fore
SplineSet
334.5 0 m 1
 414 460 l 1
 466 460 l 1
 386.5 0 l 1
 334.5 0 l 1
128.5 168 m 2
 120 99.5 134.5 40.5 209.5 39.5 c 0
 290 38 348.5 107 366.5 179 c 1
 384.5 179 l 1
 365 80.5 294 -10 193 -9.5 c 0
 95 -9.5 65 68 76.5 162 c 1
 128.5 460 l 1
 178.5 459.5 l 1
 128.5 168 l 2
EndSplineSet
EndChar

StartChar: e
Encoding: 101 101 40
Width: 494
VWidth: 0
Flags: HMW
LayerCount: 2
Fore
SplineSet
84.5 217 m 1
 91 262 l 1
 426.8605 262 l 1
 436.4755 343.716 393.7425 422.5 301.5 423.5 c 0
 206 424.5 128.5 346.5 111.5 249.5 c 1
 107.5 231 l 1
 95.5 132 136 40 237.5 39.5 c 0
 317 39 369.5 85 410.5 134 c 1
 449.5 105.5 l 1
 398 44 334.5 -10 227.5 -9.5 c 0
 102 -8.5 40.5 108.5 55.5 231 c 0
 58.5 252 63 272 70.5 291 c 0
 105 391 194.5 470 305.5 469.5 c 0
 429 469 491.5 363.5 477.5 242 c 0
 476.5 234 474 225 472.5 217 c 1
 84.5 217 l 1
EndSplineSet
EndChar

StartChar: g
Encoding: 103 103 41
Width: 541
VWidth: 0
Flags: HMW
LayerCount: 2
Fore
SplineSet
16 -30 m 1
 67.5 -30.5 l 1
 60 -112 102.5 -179.5 196.5 -180.5 c 0
 293 -181.5 377 -103 393 10 c 2
 470.5 460 l 1
 522.5 460 l 1
 445.5 10 l 2
 424.5 -130 325.5 -229.5 196 -229.5 c 0
 72.5 -229.5 4.5 -142.5 16 -30 c 1
49 230 m 0
 68.5 364 176 471 304.5 470 c 0
 428.5 469 471.5 346.5 455.5 230 c 0
 437.5 105.5 350 -9 226.5 -9.5 c 0
 98 -10 31.5 102.5 49 230 c 0
101.5 230 m 0
 86.5 128.5 136 39.5 237.5 39.5 c 0
 332 39.5 416 131 431.5 232 c 0
 444.5 323 398.5 418.5 306.5 420.5 c 0
 204.5 422.5 118 337 101.5 230 c 0
EndSplineSet
EndChar

StartChar: f
Encoding: 102 102 42
Width: 273
VWidth: 0
Flags: HMW
LayerCount: 2
Fore
SplineSet
93.5 460 m 1
 304.5 460 l 1
 295.5 411 l 1
 85 411 l 1
 93.5 460 l 1
356.5 704 m 1
 343.5 723 326.5 736.5 303.5 737 c 0
 251.5 737.5 227 684 218.5 632 c 2
 110 0 l 1
 58 0 l 1
 167 638.5 l 2
 180 720 227 790.5 312 788.5 c 0
 350 788 374 767 391 745 c 1
 356.5 704 l 1
EndSplineSet
EndChar

StartChar: s
Encoding: 115 115 43
Width: 391
VWidth: 0
Flags: HMW
LayerCount: 2
Fore
SplineSet
79 155 m 1
 89 97.5 118.5 40.5 188 39.5 c 0
 241.5 39 288.5 73 295.5 120.5 c 0
 303.5 175.5 252.5 200 202.5 220 c 0
 140 245.5 83 279.5 93.5 356 c 0
 103.5 426 168.5 468.5 243.5 468.5 c 0
 318.5 468.5 362.5 417 381 363.5 c 1
 336.5 343.5 l 1
 319.5 382 292.5 419.5 239.5 420 c 0
 193 420.5 151.5 396.5 144.5 353.5 c 0
 135.5 300 194 276.5 243.5 257 c 0
 304.5 232 357.5 190.5 349 123 c 0
 339 41 270.5 -10.5 182 -10 c 0
 93 -9.5 45 60.5 33 137 c 1
 79 155 l 1
EndSplineSet
EndChar

StartChar: y
Encoding: 121 121 44
Width: 420
VWidth: 0
Flags: HMW
LayerCount: 2
Fore
SplineSet
470.5 459.5 m 1
 62 -219.5 l 1
 3.5 -219.5 l 1
 165.5 48.5 l 1
 55.5 460 l 1
 112.5 460 l 1
 211 68 l 1
 187 70.5 l 1
 412 459.5 l 1
 470.5 459.5 l 1
EndSplineSet
EndChar

StartChar: w
Encoding: 119 119 45
Width: 636
VWidth: 0
Flags: HMW
LayerCount: 2
Fore
SplineSet
61 460 m 1
 116.5 460 l 1
 174.9625 107.4735 l 1
 370 488.5 l 1
 440.291 105.771 l 1
 622.5 459.5 l 1
 681 459.5 l 1
 422 -28.5 l 1
 348.785 353.1205 l 1
 150 -28.5 l 1
 61 460 l 1
EndSplineSet
EndChar

StartChar: v
Encoding: 118 118 46
Width: 418
VWidth: 0
Flags: HMW
LayerCount: 2
Fore
SplineSet
58 460 m 1
 114.5 460 l 1
 205 87 l 1
 411.5 459.5 l 1
 471 459.5 l 1
 188 -28 l 1
 58 460 l 1
EndSplineSet
EndChar

StartChar: x
Encoding: 120 120 47
Width: 391
VWidth: 0
Flags: HMW
LayerCount: 2
Fore
SplineSet
373 459.5 m 1
 434 459.5 l 1
 244.5 234.5 l 1
 370.5 0 l 1
 314 0 l 1
 210 197 l 1
 46 0 l 1
 -15 0 l 1
 188 240 l 1
 67.5 460 l 1
 124.5 460 l 1
 222 277.5 l 1
 373 459.5 l 1
EndSplineSet
EndChar

StartChar: z
Encoding: 122 122 48
Width: 434
VWidth: 0
Flags: HMW
LayerCount: 2
Fore
SplineSet
363.5 411 m 1
 84 411 l 1
 92.5 460 l 1
 467.5 460 l 1
 91.5 49 l 1
 388.5 49 l 1
 380 0 l 1
 -12.5 0 l 1
 363.5 411 l 1
EndSplineSet
EndChar

StartChar: j
Encoding: 106 106 49
Width: 215
VWidth: 0
Flags: HMW
LayerCount: 2
Fore
SplineSet
153 668 m 0
 153 688 169 704.5 189.5 704.5 c 0
 210 704.5 226.5 688 226.5 668 c 0
 226.5 648 210 631.5 189.5 631.5 c 0
 169 631.5 153 648 153 668 c 0
-99 -134.5 m 1
 -87 -153 -67.5 -167.5 -46.5 -168 c 0
 5.5 -169 31.5 -113.5 39 -63 c 2
 129 460 l 1
 180.5 460 l 1
 90.5 -69 l 2
 77.5 -150.5 34 -220.5 -51 -219.5 c 0
 -89 -219 -116 -198 -133.5 -176 c 1
 -99 -134.5 l 1
EndSplineSet
EndChar

StartChar: P
Encoding: 80 80 50
Width: 504
VWidth: 0
Flags: HMW
LayerCount: 2
Fore
SplineSet
173 699.5 m 1
 228.5 700 l 1
 108 0 l 1
 54.5 0 l 1
 173 699.5 l 1
194 648 m 1
 203.5 700 l 1
 331 700 l 2
 455.5 700 539.5 615 520.5 492.5 c 0
 501 367 392 286 264 286 c 2
 132.5 286 l 1
 141.5 338 l 1
 269.5 338 l 2
 369 339 449 396 465.5 493 c 0
 481 587.5 422 647 326 647.5 c 2
 194 648 l 1
EndSplineSet
EndChar

StartChar: U
Encoding: 85 85 51
Width: 587
VWidth: 0
Flags: HMW
LayerCount: 2
Fore
SplineSet
169 700 m 1
 223.5 700 l 1
 141.5 226 l 2
 128.5 128.5 165 42.5 272.5 42.5 c 0
 386.5 42.5 452 123 468.5 226 c 2
 550.5 700 l 1
 605 700 l 1
 524 226 l 2
 502.5 95 417 -9.5 268 -9.5 c 0
 129.5 -9.5 69.5 100.5 88 226 c 2
 169 700 l 1
EndSplineSet
EndChar

StartChar: S
Encoding: 83 83 52
Width: 508
VWidth: 0
Flags: HMW
LayerCount: 2
Fore
SplineSet
93.5 214 m 1
 113.5 129 150.5 44 249 43.5 c 0
 340.5 43 399.5 101 413 180 c 0
 427.5 269 356.5 315 283 346.5 c 0
 206.5 379.5 124 435 139 540 c 0
 154.5 639.5 248 708.5 352 708.5 c 0
 455.5 708.5 508.5 632.5 526 555.5 c 1
 478 528 l 1
 461 591 427 655 345 655.5 c 0
 271 656 207 605.5 195.5 537 c 0
 181.5 456 260 416.5 333 385 c 0
 412 350.5 484.5 290 470 183.5 c 0
 453.5 74 368 -9 241 -8.5 c 0
 124.5 -8 66 84.5 43.5 187.5 c 1
 93.5 214 l 1
EndSplineSet
EndChar

StartChar: at
Encoding: 64 64 53
Width: 747
VWidth: 0
Flags: HMW
LayerCount: 2
Fore
SplineSet
266 320 m 0
 258 262 279 210.5 340 208.5 c 0
 413.5 206 486 281.5 497.5 370 c 0
 505 425 483 480.5 424 482.5 c 0
 349.5 485 277.5 407.5 266 320 c 0
216.5 318.5 m 0
 231 436 330.5 531.5 428.5 528.5 c 0
 511.5 526.5 535 441 525 368.5 c 0
 510 258.5 425 160.5 325 161.5 c 0
 245 162.5 206 235 216.5 318.5 c 0
60.5 320 m 0
 94 530.5 271.5 710 494.5 709 c 0
 688 708 779.5 547 753.5 390 c 0
 737 256.5 637 145.5 539.5 151 c 0
 472.5 154 464 217 478.5 278.5 c 1
 473.5 278.5 l 1
 551.5 519.5 l 1
 602 519.5 l 1
 521 289 l 2
 518.5 280.5 515 268 513.5 259 c 0
 510 232 511.5 199 549.5 195.5 c 0
 616 186 696 291.5 707.5 390 c 0
 731.5 526 658 664 491 665.5 c 0
 292 667 137.5 506.5 106.5 320 c 0
 82.5 163 158 36.5 327 34.5 c 0
 414.5 33.5 481.5 57.5 548 91 c 1
 566 51.5 l 1
 497.5 18 428 -9 323.5 -8.5 c 0
 123 -7 33 137.5 60.5 320 c 0
EndSplineSet
EndChar

StartChar: period
Encoding: 46 46 54
Width: 275
VWidth: 0
Flags: HMW
LayerCount: 2
Fore
SplineSet
77.5 24 m 0
 77.5 44.5 94.5 61.5 114.5 61.5 c 0
 134.5 61.5 151.5 44.5 151.5 24 c 0
 151.5 3.5 134.5 -12.5 114.5 -12.5 c 0
 94.5 -12.5 77.5 3.5 77.5 24 c 0
EndSplineSet
EndChar

StartChar: comma
Encoding: 44 44 55
Width: 286
VWidth: 0
Flags: HMW
LayerCount: 2
Fore
SplineSet
144 103 m 1
 193.5 82 l 1
 43.5 -165 l 1
 7.5 -152 l 1
 144 103 l 1
EndSplineSet
EndChar

StartChar: colon
Encoding: 58 58 56
Width: 291
VWidth: 0
Flags: HMW
LayerCount: 2
Fore
SplineSet
77.5 24 m 0
 77.5 44.5 94.5 61.5 114.5 61.5 c 0
 134.5 61.5 151.5 44.5 151.5 24 c 0
 151.5 3.5 134.5 -12.5 114.5 -12.5 c 0
 94.5 -12.5 77.5 3.5 77.5 24 c 0
140.5 392 m 0
 140.5 412.5 157.5 428.5 177.5 428.5 c 0
 197.5 428.5 214.5 412.5 214.5 392 c 0
 214.5 371.5 197.5 354.5 177.5 354.5 c 0
 157.5 354.5 140.5 371.5 140.5 392 c 0
EndSplineSet
EndChar

StartChar: semicolon
Encoding: 59 59 57
Width: 298
VWidth: 0
Flags: HMW
LayerCount: 2
Fore
SplineSet
170 392 m 0
 170 412.5 186.5 428.5 206.5 428.5 c 0
 226.5 428.5 243.5 412.5 243.5 392 c 0
 243.5 371.5 226.5 354.5 206.5 354.5 c 0
 186.5 354.5 170 371.5 170 392 c 0
144 103 m 1
 193.5 82 l 1
 43.5 -165 l 1
 7.5 -152 l 1
 144 103 l 1
EndSplineSet
EndChar

StartChar: quotedbl
Encoding: 34 34 58
Width: 426
VWidth: 0
Flags: HMW
LayerCount: 2
Fore
SplineSet
220 699.5 m 1
 283 699.5 l 1
 162.5 409 l 1
 126.5 408.5 l 1
 220 699.5 l 1
395 699.5 m 1
 457.5 699.5 l 1
 337 409 l 1
 301 408.5 l 1
 395 699.5 l 1
EndSplineSet
EndChar

StartChar: exclam
Encoding: 33 33 59
Width: 275
VWidth: 0
Flags: HMW
LayerCount: 2
Fore
SplineSet
198 700 m 1
 263.5 700 l 1
 165 200.5 l 1
 126.5 200.5 l 1
 198 700 l 1
77.5 24 m 0
 77.5 45 95 62 115 62 c 0
 135 62 152.5 45 152.5 24 c 0
 152.5 3 135 -13 115 -13 c 0
 95 -13 77.5 3 77.5 24 c 0
EndSplineSet
EndChar

StartChar: quotesingle
Encoding: 39 39 60
Width: 252
VWidth: 0
Flags: HMW
LayerCount: 2
Fore
SplineSet
220 699.5 m 1
 283 699.5 l 1
 162.5 409 l 1
 126.5 408.5 l 1
 220 699.5 l 1
EndSplineSet
EndChar

StartChar: numbersign
Encoding: 35 35 61
Width: 573
VWidth: 0
Flags: HMW
LayerCount: 2
Fore
SplineSet
121.5 446 m 1
 128.5 488.5 l 1
 596.5 488.5 l 1
 589 446 l 1
 464 446 l 1
 454.5 446 l 1
 262 446 l 1
 252.5 446 l 1
 121.5 446 l 1
43.5 216.5 m 1
 50.5 259 l 1
 172.5 259 l 1
 183.5 259 l 1
 378.5 259 l 1
 393 259 l 1
 518 259 l 1
 511.5 216.5 l 1
 43.5 216.5 l 1
539 699.5 m 1
 589 699.5 l 1
 303 0 l 1
 253.5 0 l 1
 349.5 234 l 1
 354.5 246 l 1
 441.5 460 l 1
 445.5 472 l 1
 539 699.5 l 1
335 699.5 m 1
 385 699.5 l 1
 292.5 474 l 1
 288.5 463 l 1
 199 244 l 1
 195 233 l 1
 99.5 0 l 1
 51 0 l 1
 335 699.5 l 1
EndSplineSet
EndChar

StartChar: hyphen
Encoding: 45 45 62
Width: 203
VWidth: 0
Flags: HMW
LayerCount: 2
Fore
SplineSet
16.5 226.5 m 1
 24.5 275 l 1
 220 275 l 1
 211.5 226.5 l 1
 16.5 226.5 l 1
EndSplineSet
EndChar

StartChar: dollar
Encoding: 36 36 63
Width: 562
VWidth: 0
Flags: HMW
LayerCount: 2
Fore
SplineSet
356 817.5 m 1
 403.5 817.5 l 1
 381.5 681.5 l 1
 334.5 681.5 l 1
 356 817.5 l 1
235 27.5 m 1
 282.5 27.5 l 1
 260.5 -111.5 l 1
 212.5 -111.5 l 1
 235 27.5 l 1
488 528 m 1
 470.5 591 436.5 654.5 355 655.5 c 0
 278 656.5 216.5 609.5 205.5 540 c 0
 192 455.5 271.5 416.5 345 385 c 0
 424 350.5 498.5 290 485.5 183.5 c 0
 470.5 73.5 387 -9 260 -8.5 c 0
 143.5 -8 83 84.5 59 187.5 c 1
 108.5 214 l 1
 130 127 169 44 267.5 43.5 c 0
 358.5 43 416.5 101 428.5 180 c 0
 441.5 269.5 369.5 314.5 296 346 c 0
 219 379.5 135.5 437.5 149.5 544.5 c 0
 163.5 639.5 257.5 709 359 708.5 c 0
 462 708 517.5 632.5 535.5 555.5 c 1
 488 528 l 1
EndSplineSet
EndChar

StartChar: bar
Encoding: 124 124 64
Width: 240
VWidth: 0
Flags: HMW
LayerCount: 2
Fore
SplineSet
200.5 784.5 m 1
 248 784.5 l 1
 94 -214.5 l 1
 46.5 -214.5 l 1
 200.5 784.5 l 1
EndSplineSet
EndChar

StartChar: zero
Encoding: 48 48 65
Width: 562
VWidth: 0
Flags: HMW
LayerCount: 2
Fore
SplineSet
131.5 350 m 0
 116.5 220.5 125.5 44 259.5 42.5 c 0
 393.5 41 476.5 204 497 350 c 0
 512 479.5 502.5 656 368.5 657.5 c 0
 234.5 659 152 496 131.5 350 c 0
76.5 350 m 0
 101 526.5 209 710 373.5 709.5 c 0
 540 709 571 511 551.5 350 c 0
 527 173.5 419 -10 254.5 -9.5 c 0
 88 -9 57 189 76.5 350 c 0
EndSplineSet
Substitution2: "Tabular Numbers lookup" uniFF10
EndChar

StartChar: one
Encoding: 49 49 66
Width: 420
VWidth: 0
Flags: HMW
LayerCount: 2
Fore
SplineSet
157.5 599 m 1
 168 657 l 1
 388 708.5 l 1
 265.5 0 l 1
 211.5 0 l 1
 321.5 640 l 1
 157.5 599 l 1
EndSplineSet
Substitution2: "Tabular Numbers lookup" uniFF11
EndChar

StartChar: two
Encoding: 50 50 67
Width: 530
VWidth: 0
Flags: HMW
LayerCount: 2
Fore
SplineSet
4 0 m 1
 373 345 l 2
 423 392.5 468.5 443 479 511 c 0
 490.5 581.5 451 657.5 358.5 658.5 c 0
 251.5 660 182.5 566 163.5 460.5 c 1
 109.5 460.5 l 1
 132.5 595.5 222.5 711 363 710.5 c 0
 490.5 710 549.5 606 535 510 c 0
 523.5 432 471 369 413.5 315 c 2
 125.5 52.5 l 1
 477 52 l 1
 469 0 l 1
 4 0 l 1
EndSplineSet
Substitution2: "Tabular Numbers lookup" uniFF12
EndChar

StartChar: four
Encoding: 52 52 68
Width: 553
VWidth: 0
Flags: HMW
LayerCount: 2
Fore
SplineSet
18.5 141 m 1
 487.5 699 l 1
 509.5 699.5 l 1
 389 0 l 1
 335 0 l 1
 363 162 l 1
 364.5 171 l 1
 433 569 l 1
 117.0785 189.5 l 1
 388 189 l 1
 399 189 l 1
 529 189 l 1
 521 140 l 1
 18.5 141 l 1
EndSplineSet
Substitution2: "Tabular Numbers lookup" uniFF14
EndChar

StartChar: slash
Encoding: 47 47 69
Width: 483
VWidth: 0
Flags: HMW
LayerCount: 2
Fore
SplineSet
509.5 699.5 m 1
 564 699.5 l 1
 13.5 -149.5 l 1
 -38.5 -149 l 1
 509.5 699.5 l 1
EndSplineSet
EndChar

StartChar: backslash
Encoding: 92 92 70
Width: 468
VWidth: 0
Flags: HMW
LayerCount: 2
Fore
SplineSet
106.5 700.5 m 1
 161 700 l 1
 426.5 0 l 1
 374 0 l 1
 106.5 700.5 l 1
EndSplineSet
EndChar

StartChar: eight
Encoding: 56 56 71
Width: 517
VWidth: 0
Flags: HMW
LayerCount: 2
Fore
SplineSet
143.5 535.5 m 0
 158.5 629.5 248 710 351 709.5 c 0
 452 709 517.5 626 503.5 534.5 c 0
 488.5 434.5 397.5 360.5 295.5 360.5 c 0
 195 360.5 129 438 143.5 535.5 c 0
194 529 m 0
 184 460.5 230.5 397.5 297.5 396.5 c 0
 366 395.5 438.5 457 450.5 529 c 0
 461.5 596.5 421.5 659.5 347 660.5 c 0
 271.5 661.5 206 600 194 529 c 0
61.5 188.5 m 0
 79 302 184.5 383 295.5 382.5 c 0
 404.5 382.5 482.5 298.5 466.5 187.5 c 0
 449.5 79 351.5 -10 232 -9.5 c 0
 114.5 -9 45.5 84 61.5 188.5 c 0
114.5 194 m 0
 101 110 149.5 40.5 236.5 39.5 c 0
 324.5 38.5 402 106.5 416 194 c 0
 428 273 373 345.5 293 346.5 c 0
 211.5 347.5 128.5 276.5 114.5 194 c 0
EndSplineSet
Substitution2: "Tabular Numbers lookup" uniFF18
EndChar

StartChar: nine
Encoding: 57 57 72
Width: 543
VWidth: 0
Flags: HMW
LayerCount: 2
Fore
SplineSet
499.5 474 m 0
 513.5 570.5 461 659 358 659.5 c 0
 254 660 170.5 575.5 155.5 474 c 0
 142.5 381 196.5 293.5 293.5 292.5 c 0
 400.5 291.5 484 377 499.5 474 c 0
207 0 m 1
 137 0 l 1
 407.5 311 l 1
 412.5 307 l 1
 374.5 271.5 328 251 272.5 251.5 c 0
 156 253 89.5 361 104 474 c 0
 121.5 606 227.5 709.5 362 709.5 c 0
 495.5 709.5 568.5 601 551.5 474 c 0
 543 417.5 515 363 481.5 323 c 2
 207 0 l 1
EndSplineSet
Substitution2: "Tabular Numbers lookup" uniFF19
EndChar

StartChar: three
Encoding: 51 51 73
Width: 531
VWidth: 0
Flags: HMW
LayerCount: 2
Fore
SplineSet
280.5 352.5 m 1
 285.5 388 l 1
 372.5 394 456 442 470.5 526 c 0
 481.5 595 444 658.5 363.5 659.5 c 0
 280 660.5 222.5 598.5 205 526.5 c 1
 152.5 527 l 1
 173 630 252.5 710 367 709.5 c 0
 477.5 709 539.5 622 525.5 527.5 c 0
 508 418 397.5 357 280.5 352.5 c 1
255.5 -9.5 m 0
 129 -9.5 61.5 76 71 185 c 1
 125.5 184.5 l 1
 119.5 103.5 165.5 43 260 42.5 c 0
 351 42 425 103 437.5 187 c 0
 452.5 286.5 365 333.5 278 339 c 1
 283.5 374.5 l 1
 400 370 510 310.5 492 180.5 c 0
 476 68 375 -9.5 255.5 -9.5 c 0
EndSplineSet
Substitution2: "Tabular Numbers lookup" uniFF13
EndChar

StartChar: five
Encoding: 53 53 74
Width: 544
VWidth: 0
Flags: HMW
LayerCount: 2
Fore
SplineSet
513.5 230 m 0
 495 86 383 -9.5 248 -9.5 c 0
 139 -9.5 76 51.5 42.5 137.5 c 1
 92 168 l 1
 117.5 97.5 169 43 252.5 42.5 c 0
 360.5 42 442.5 121.5 458 230 c 0
 471 324.5 418.5 405.5 322 407.5 c 0
 246.5 409 186.5 377 124.5 328 c 1
 270.5 700 l 1
 592 700 l 1
 584 651 l 1
 306 651 l 1
 208.0675 411.309 l 1
 248.224 438.386 295.815 458 347.5 457.5 c 0
 467.5 456.5 528.5 348.5 513.5 230 c 0
EndSplineSet
Substitution2: "Tabular Numbers lookup" uniFF15
EndChar

StartChar: six
Encoding: 54 54 75
Width: 543
VWidth: 0
Flags: HMW
LayerCount: 2
Fore
SplineSet
117.5 226 m 0
 103.5 129.5 156 41 259 40.5 c 0
 363 40 446.5 124.5 461.5 226 c 0
 474.5 319 420.5 406.5 323.5 407.5 c 0
 216.5 408.5 133 323 117.5 226 c 0
410 699.5 m 1
 480 699.5 l 1
 209.5 389 l 1
 204.5 393 l 1
 242.5 428.5 289 449 344.5 448.5 c 0
 461 447 527.5 339 513 226 c 0
 495.5 94 389.5 -9.5 255 -9.5 c 0
 121.5 -9.5 48.5 99 65.5 226 c 0
 74 282.5 102 337 135.5 377 c 2
 410 699.5 l 1
EndSplineSet
Substitution2: "Tabular Numbers lookup" uniFF16
EndChar

StartChar: seven
Encoding: 55 55 76
Width: 505
VWidth: 0
Flags: HMW
LayerCount: 2
Fore
SplineSet
113 648 m 1
 121 700 l 1
 591 699.5 l 1
 143.5 0 l 1
 85 0 l 1
 500 647.5 l 1
 113 648 l 1
EndSplineSet
Substitution2: "Tabular Numbers lookup" uniFF17
EndChar

StartChar: plus
Encoding: 43 43 77
Width: 571
VWidth: 0
Flags: HMW
LayerCount: 2
Fore
SplineSet
75 229.5 m 1
 83.5 281 l 1
 526.5 281 l 1
 517.5 229 l 1
 75 229.5 l 1
313.5 491.5 m 1
 368.5 492 l 1
 286 18 l 1
 233 18.5 l 1
 313.5 491.5 l 1
EndSplineSet
EndChar

StartChar: equal
Encoding: 61 61 78
Width: 596
VWidth: 0
Flags: HMW
LayerCount: 2
Fore
SplineSet
63.5 158.5 m 1
 71 207 l 1
 543 207 l 1
 534.5 158 l 1
 63.5 158.5 l 1
87 298.5 m 1
 95 347 l 1
 567 347 l 1
 558.5 298 l 1
 87 298.5 l 1
EndSplineSet
EndChar

StartChar: percent
Encoding: 37 37 79
Width: 709
VWidth: 0
Flags: HMW
LayerCount: 2
Fore
SplineSet
101 554.5 m 0
 114 638.5 185 709.5 275.5 709.5 c 0
 365.5 709.5 413 635 401 553.5 c 0
 388 469.5 316.5 398.5 226 398.5 c 0
 136 398.5 89 473 101 554.5 c 0
146.5 554 m 0
 137.5 498.5 166 442.5 230 441.5 c 0
 294.5 440.5 345 495.5 355 554 c 0
 364 609.5 336 665.5 272 666.5 c 0
 207.5 667.5 156.5 612.5 146.5 554 c 0
374 146.5 m 0
 387 230.5 458 301.5 548.5 301.5 c 0
 638.5 301.5 686 227 674 145.5 c 0
 661 61.5 589.5 -9.5 499 -9.5 c 0
 409 -9.5 362 65 374 146.5 c 0
419.5 146 m 0
 410.5 90.5 438.5 34.5 502.5 33.5 c 0
 567 32.5 618 87.5 628 146 c 0
 637 201.5 608.5 257.5 544.5 258.5 c 0
 480 259.5 429.5 204.5 419.5 146 c 0
641.5 699.5 m 1
 693 699.5 l 1
 133 0 l 1
 83 0 l 1
 641.5 699.5 l 1
EndSplineSet
EndChar

StartChar: ampersand
Encoding: 38 38 80
Width: 655
VWidth: 0
Flags: HMW
LayerCount: 2
Fore
SplineSet
246 401 m 2
 216 446 174 497 182.5 564.5 c 0
 194.5 649 269 711.5 362.5 710.5 c 0
 454 710 504.5 638.5 493 561.5 c 0
 480.5 484.5 408 430 324.5 382 c 0
 242.5 335.5 120.5 294.5 103.5 182 c 0
 91 96 152.5 39.5 239.5 38.5 c 0
 395.5 36 512 195.5 615 315 c 1
 652.5 289.5 l 1
 539 160 416 -11 232.5 -9.5 c 0
 122 -8.5 33.5 66 48.5 179 c 0
 66.5 316 204 366 291 413 c 0
 363 452.5 429.5 499.5 441 562 c 0
 449 613.5 421 662.5 358.5 663.5 c 0
 293.5 664.5 244.5 619.5 235.5 564 c 0
 227.5 512 259.5 470.5 288 429 c 2
 585.5 0 l 1
 526.5 0 l 1
 246 401 l 2
EndSplineSet
EndChar

StartChar: question
Encoding: 63 63 81
Width: 534
VWidth: 0
Flags: HMW
LayerCount: 2
Fore
SplineSet
477 508 m 0
 491.5 593.5 441.5 660 346.5 660.5 c 0
 271 661 216.5 619 172.5 566.5 c 1
 133.5 594.5 l 1
 189 660 254.5 710.5 357 709.5 c 0
 476 708.5 546 616.5 529 507.5 c 0
 509.5 394.877 400.597 320.19 284.488 309.0805 c 1
 255.5 170.5 l 1
 217 170.5 l 1
 232.5 345 l 1
 247 345 l 1
 360 349 458.5 415 477 508 c 0
173 24 m 0
 173 44.5 189.5 61.5 210 61.5 c 0
 231 61.5 247 43.5 247 24 c 0
 247 3.5 230 -12.5 210 -12.5 c 0
 189 -12.5 173 3.5 173 24 c 0
EndSplineSet
EndChar

StartChar: parenleft
Encoding: 40 40 82
Width: 273
VWidth: 0
Flags: HMW
LayerCount: 2
Fore
SplineSet
301.5 779 m 1
 348 779 l 1
 257.5 628 199 463 171.5 290 c 0
 147 125.5 151.5 -40.5 197 -200.5 c 1
 151.5 -200.5 l 1
 98 -43 90 125.5 114 290 c 0
 141 464 203 632 301.5 779 c 1
EndSplineSet
EndChar

StartChar: parenright
Encoding: 41 41 83
Width: 273
VWidth: 0
Flags: HMW
LayerCount: 2
Fore
SplineSet
27.5 -199 m 1
 -19 -199 l 1
 71.5 -48 129.5 117 157 290 c 0
 181.5 454.5 177 620.5 131.5 780.5 c 1
 177 780.5 l 1
 230.5 623 238.5 454.5 214.5 290 c 0
 187.5 116 126 -52 27.5 -199 c 1
EndSplineSet
EndChar

StartChar: asterisk
Encoding: 42 42 84
Width: 574
VWidth: 0
Flags: HMW
LayerCount: 2
Fore
SplineSet
527 592.5 m 1
 533.5 547.5 l 1
 350 497.5 l 1
 344.5 529.5 l 1
 527 592.5 l 1
449.5 375 m 1
 408.5 348 l 1
 333 503.5 l 1
 360.5 523 l 1
 449.5 375 l 1
232 349 m 1
 198 377.5 l 1
 335.5 522.5 l 1
 359 501.5 l 1
 232 349 l 1
173.5 549 m 1
 194.5 592.5 l 1
 356.5 528.5 l 1
 341.5 498 l 1
 173.5 549 l 1
357.5 699.5 m 1
 403 699.5 l 1
 363.5 513.5 l 1
 331.5 513.5 l 1
 357.5 699.5 l 1
EndSplineSet
EndChar

StartChar: less
Encoding: 60 60 85
Width: 621
VWidth: 0
Flags: HMW
LayerCount: 2
Fore
SplineSet
164 257.5 m 1
 545 76.5 l 1
 536.5 28 l 1
 77 243 l 1
 82 272 l 1
 615.5 488.5 l 1
 606 434.5 l 1
 164 257.5 l 1
EndSplineSet
EndChar

StartChar: greater
Encoding: 62 62 86
Width: 621
VWidth: 0
Flags: HMW
LayerCount: 2
Fore
SplineSet
490.5 257 m 1
 110 438.5 l 1
 118.5 487 l 1
 577.5 272 l 1
 573 243 l 1
 39.5 26.5 l 1
 48.5 80.5 l 1
 490.5 257 l 1
EndSplineSet
EndChar

StartChar: bracketleft
Encoding: 91 91 87
Width: 275
VWidth: 0
Flags: HMW
LayerCount: 2
Fore
SplineSet
244 731 m 1
 104.5 -171 l 1
 213.5 -171 l 1
 205.5 -220 l 1
 45 -220 l 1
 199.5 780 l 1
 360 780 l 1
 352.5 731 l 1
 244 731 l 1
EndSplineSet
EndChar

StartChar: bracketright
Encoding: 93 93 88
Width: 275
VWidth: 0
Flags: HMW
LayerCount: 2
Fore
SplineSet
84 -171 m 1
 223 731 l 1
 114 731 l 1
 122 780 l 1
 282 780 l 1
 127.5 -220 l 1
 -32.5 -220 l 1
 -25 -171 l 1
 84 -171 l 1
EndSplineSet
EndChar

StartChar: asciicircum
Encoding: 94 94 89
Width: 494
VWidth: 0
Flags: HMW
LayerCount: 2
Fore
SplineSet
333 649 m 1
 168 460.5 l 1
 112.5 460.5 l 1
 328.5 709.5 l 1
 352 709.5 l 1
 483.5 459.5 l 1
 432.5 459.5 l 1
 333 649 l 1
EndSplineSet
EndChar

StartChar: underscore
Encoding: 95 95 90
Width: 485
VWidth: 0
Flags: HMW
LayerCount: 2
Fore
SplineSet
-48.5 -123 m 1
 -42.5 -86.5 l 1
 443.5 -86.5 l 1
 437.5 -123 l 1
 -48.5 -123 l 1
EndSplineSet
EndChar

StartChar: grave
Encoding: 96 96 91
Width: 355
VWidth: 0
Flags: HMW
LayerCount: 2
Fore
SplineSet
168.5 673.5 m 1
 218.5 700 l 1
 349 539.5 l 1
 319 520.5 l 1
 168.5 673.5 l 1
EndSplineSet
EndChar

StartChar: braceleft
Encoding: 123 123 92
Width: 289
VWidth: 0
Flags: HMW
LayerCount: 2
Fore
SplineSet
245 652 m 2
 216.5 466 l 2
 203.5 380.5 178 296 95 283.5 c 1
 97 297 l 1
 175.5 280.5 172 192.5 162 114 c 2
 132.5 -72.5 l 2
 127 -118.5 134.5 -153 180 -153.5 c 2
 209 -153.5 l 1
 202.5 -200 l 1
 160 -200 l 2
 94.5 -200.5 75.5 -137 84 -60 c 2
 116.5 150 l 2
 123 211 115.5 246.5 84 270 c 1
 90 310 l 1
 128 329.5 150.5 366.5 159 430 c 2
 191 640.5 l 2
 202 722.5 243.5 779.5 308.5 779.5 c 2
 352.5 779.5 l 1
 346 734 l 1
 318 734 l 2
 271.5 734 252 701 245 652 c 2
EndSplineSet
EndChar

StartChar: braceright
Encoding: 125 125 93
Width: 289
VWidth: 0
Flags: HMW
LayerCount: 2
Fore
SplineSet
105.5 -72 m 2
 133.5 114 l 2
 146.5 199.5 172 284 255 296.5 c 1
 253 283 l 1
 174.5 299.5 178.5 387.5 188.5 466 c 2
 217.5 652.5 l 2
 223 698.5 215.5 733 170 733.5 c 2
 141.5 734 l 1
 148 780 l 1
 190 780 l 2
 255.5 780 274.5 717 266 640 c 2
 233.5 430 l 2
 227 369 235 333.5 266.5 310 c 1
 260.5 270 l 1
 222.5 250.5 200 213.5 191.5 150 c 2
 159.5 -60.5 l 2
 148.5 -142.5 106.5 -199.5 41.5 -199.5 c 2
 -2.5 -199.5 l 1
 4.5 -154 l 1
 32 -154 l 2
 78.5 -154 98.5 -121 105.5 -72 c 2
EndSplineSet
EndChar

StartChar: asciitilde
Encoding: 126 126 94
Width: 558
VWidth: 0
Flags: HMW
LayerCount: 2
Fore
SplineSet
127 177 m 1
 80.5 181 l 1
 80 188.5 79.5 197 80.5 205.5 c 0
 85 232 97.5 259.5 116.5 281 c 0
 141.5 309 177 326.5 216 326.5 c 0
 261 326.5 293.5 298 324.5 267 c 0
 346 244.5 369.5 221.5 399 221.5 c 0
 438.5 221.5 464 255 470 293.5 c 0
 472 302 471.5 312.5 469.5 322 c 1
 519.5 318 l 1
 520 309.5 520.5 299 519 289.5 c 0
 515 263.5 505 235 486.5 214 c 0
 464 188 431.5 172 397.5 172.5 c 0
 356.5 173 326.5 199.5 296 229 c 0
 272.5 253 247 278.5 211.5 278.5 c 0
 164.5 278.5 134 242.5 127 199 c 0
 125.5 192 126 184.5 127 177 c 1
EndSplineSet
EndChar

StartChar: exclamdown
Encoding: 161 161 95
Width: 291
VWidth: 0
Flags: HMW
LayerCount: 2
Fore
SplineSet
116.7 -245 m 1
 50.9 -245 l 1
 150.2 254.5 l 1
 188.4 254.5 l 1
 116.7 -245 l 1
236 429.8 m 0
 234 411.4 212.5 392.6 193.8 393.6 c 0
 174.6 394.6 160.6 411.9 162.6 431.3 c 0
 164.6 449.7 186.1 468.5 204.8 467.5 c 0
 224 466.5 238 449.2 236 429.8 c 0
EndSplineSet
EndChar

StartChar: cent
Encoding: 162 162 96
Width: 562
VWidth: 0
Flags: HMW
LayerCount: 2
Fore
SplineSet
262.2 20.6 m 1
 301.7 20.6 l 1
 280.2 -111.5 l 1
 237.2 -111.5 l 1
 262.2 20.6 l 1
143.8 230 m 0
 128.3 132 183.1 40.5 287.5 39.5 c 0
 358 39 419 74.9 455 112.9 c 1
 445 48.3 l 1
 406 15.4 346.5 -9.5 282.5 -9.5 c 0
 149.1 -9 73.5 103.5 92 230 c 0
 112.5 362.5 225.6 469 361 469.5 c 0
 421 469.5 474.2 446.6 506 411.2 c 1
 496 346.6 l 1
 473.5 389.6 421.5 421 356.5 420.5 c 0
 250.1 420 161.3 334 143.8 230 c 0
355.2 577.5 m 1
 398.7 577.5 l 1
 372.7 442.5 l 1
 333.2 442.5 l 1
 355.2 577.5 l 1
EndSplineSet
EndChar

StartChar: sterling
Encoding: 163 163 97
Width: 562
VWidth: 0
Flags: HMW
LayerCount: 2
Fore
SplineSet
104 344 m 1
 435 344 l 1
 426 295 l 1
 95 295 l 1
 104 344 l 1
504.7 486.8 m 1
 510.4 559 491.5 653.8 394.5 655.3 c 0
 317.9 656.8 250.6 600.6 237.6 527.1 c 0
 221.1 423.2 310 363.5 296 263.5 c 0
 279.5 157.5 180.7 72.9 108.2 31 c 1
 111 52 l 1
 476.5 52 l 1
 467 0 l 1
 46.5 0 l 1
 133 88.5 224.2 155 242.7 255 c 0
 257.7 349.6 167.5 414 182 526.5 c 0
 198 630 288.5 710.5 399.5 709.5 c 0
 524 708.5 559 589.5 553 504 c 1
 504.7 486.8 l 1
EndSplineSet
EndChar

StartChar: currency
Encoding: 164 164 98
Width: 554
VWidth: 0
Flags: HMW
LayerCount: 2
Fore
SplineSet
103 512 m 1
 141.5 544.5 l 1
 207.5 462 l 1
 170.5 430.5 l 1
 103 512 l 1
59.5 55.5 m 1
 31 90.5 l 1
 124.5 169.5 l 1
 152.5 135.5 l 1
 59.5 55.5 l 1
483 430.5 m 1
 454 464.5 l 1
 547.5 544.5 l 1
 575 509.5 l 1
 483 430.5 l 1
398.5 138 m 1
 436.5 169.5 l 1
 503 88 l 1
 466 55.5 l 1
 398.5 138 l 1
73.5 300 m 0
 93.5 431 207.5 539.5 340.5 539.5 c 0
 472 539.5 548 426 529.5 300 c 0
 509.5 169 395.5 60.5 262.5 60.5 c 0
 131 60.5 55 174 73.5 300 c 0
125.8 300 m 0
 110.8 202.5 163.5 110 267 109.5 c 0
 371.5 109 460.7 197 477.7 300 c 0
 492.7 397.5 439.5 490 336 490.5 c 0
 231.5 491 142.8 403 125.8 300 c 0
EndSplineSet
EndChar

StartChar: yen
Encoding: 165 165 99
Width: 556
VWidth: 0
Flags: HMW
LayerCount: 2
Fore
SplineSet
59 282.5 m 1
 67 331 l 1
 535.4 331 l 1
 527.4 282 l 1
 59 282.5 l 1
35 142.5 m 1
 43 191 l 1
 511.9 191 l 1
 503.9 142 l 1
 35 142.5 l 1
557.6 699.5 m 1
 619.9 699.5 l 1
 321.5 287.8 l 1
 272 0 l 1
 216 0 l 1
 267.5 290.8 l 1
 113.5 700 l 1
 172.6 700 l 1
 300.8 339 l 1
 557.6 699.5 l 1
EndSplineSet
EndChar

StartChar: brokenbar
Encoding: 166 166 100
Width: 240
VWidth: 0
Flags: HMW
LayerCount: 2
Fore
SplineSet
188.5 694.5 m 1
 236.2 694.5 l 1
 194.7 455.5 l 1
 147 455.5 l 1
 188.5 694.5 l 1
159.2 244.5 m 1
 117.7 5.5 l 1
 70 5.5 l 1
 111.5 244.5 l 1
 159.2 244.5 l 1
EndSplineSet
EndChar

StartChar: section
Encoding: 167 167 101
Width: 391
VWidth: 0
Flags: HMW
LayerCount: 2
Fore
SplineSet
394.9 593.9 m 1
 376.4 635.6 335.2 659.7 287.8 659.7 c 0
 242.8 659.7 189 638 182 592.5 c 0
 173.5 541.4 245.9 516.9 289.4 496.9 c 0
 347.4 469.9 408 431.5 399 365.5 c 0
 386 274 306 244 215.5 241 c 1
 219 261 l 1
 279 273 337.1 305.4 345.6 361.9 c 0
 353.1 415.9 294.5 442 248 462.5 c 0
 190 488.5 120 520 131 593.5 c 0
 142 667 219.5 709 292 709.5 c 0
 360.5 710 419.5 675 438 619.5 c 1
 394.9 593.9 l 1
67.9 147.2 m 1
 75.6 87.2 119.5 40 186.5 39.5 c 0
 238 39 294.1 60.9 303.1 113.9 c 0
 313.6 173.9 253.6 198.9 204.1 222.1 c 0
 146.3 249.5 80 289 90.5 359.5 c 0
 104 438.5 177.5 475.5 274.5 479 c 1
 272 463.7 l 1
 207 445.7 152 417.5 142.5 365 c 0
 133 303.1 198.5 278 245.5 256 c 0
 305 228 366.5 189 356.5 117.5 c 0
 345 31.5 264 -10.5 178.5 -9.5 c 0
 95 -8.5 31 47 22.5 123.5 c 1
 67.9 147.2 l 1
EndSplineSet
EndChar

StartChar: dieresis
Encoding: 168 168 102
Width: 437
VWidth: 0
Flags: HMW
LayerCount: 2
Fore
SplineSet
365.5 672.3 m 0
 367 690.7 388.5 709.5 407.2 708.5 c 0
 426.4 707.5 440.4 690.2 438.9 670.8 c 0
 437.4 652.4 415.4 633.6 396.7 634.6 c 0
 377.5 635.6 364 652.9 365.5 672.3 c 0
171.5 672.3 m 0
 173 690.7 194.5 709.5 213.2 708.5 c 0
 232.4 707.5 246.4 690.2 244.9 670.8 c 0
 243.4 652.4 221.4 633.6 202.7 634.6 c 0
 183.5 635.6 170 652.9 171.5 672.3 c 0
EndSplineSet
EndChar

StartChar: copyright
Encoding: 169 169 103
Width: 776
VWidth: 0
Flags: HMW
LayerCount: 2
Fore
SplineSet
252.8 350 m 0
 239.3 255.6 289.2 169.4 388.3 168.4 c 0
 445.3 167.4 492.1 191.8 529.8 224.2 c 1
 523.3 180.6 l 1
 484.3 152.1 442.3 134.2 386.3 134.7 c 0
 269.8 135.2 202.7 237 217.7 350 c 0
 233.7 468 331.3 564.3 449.3 565.3 c 0
 503.3 565.8 540.8 549.4 575.3 518.9 c 1
 568.8 475 l 1
 539.3 510.9 500.2 531.6 447.8 531.6 c 0
 347.7 531.6 267.8 449.8 252.8 350 c 0
112 350 m 0
 87.5 179 193 25 373 24.5 c 0
 556 24 711 171 738 350 c 0
 762.5 521 657 675 477 675.5 c 0
 294 676 139 529 112 350 c 0
75 350 m 0
 103.5 550 274 710.5 478.5 710 c 0
 679.5 709.5 801 542 775 350 c 0
 746.5 150 576 -10.5 371.5 -10 c 0
 170.5 -9.5 49 158 75 350 c 0
EndSplineSet
EndChar

StartChar: registered
Encoding: 174 174 104
Width: 776
VWidth: 0
Flags: HMW
LayerCount: 2
Fore
SplineSet
380.7 350.6 m 1
 416.9 350.6 l 1
 527 149.5 l 1
 486.8 149.5 l 1
 380.7 350.6 l 1
346.7 569.5 m 1
 379.9 569.5 l 1
 314.4 150.5 l 1
 281.7 150.5 l 1
 346.7 569.5 l 1
358.3 540.1 m 1
 362.8 569.5 l 1
 438.7 570 l 1
 513.7 568 570.5 522.5 560 447.5 c 0
 549.5 371.5 480.2 328.5 403.2 326.5 c 1
 325.3 326.5 l 1
 329.8 355.2 l 1
 405.7 355.2 l 1
 465.7 357.2 518.3 388.6 526.8 448 c 0
 535.3 505.9 494.2 537.1 436.2 539.6 c 1
 358.3 540.1 l 1
112 350 m 0
 87.5 179 193 25 373 24.5 c 0
 556 24 711 171 738 350 c 0
 762.5 521 657 675 477 675.5 c 0
 294 676 139 529 112 350 c 0
75 350 m 0
 103.5 549.5 274 710.5 478.5 710 c 0
 679.5 709.5 801 542 775 350 c 0
 746.5 150.5 576 -10.5 371.5 -10 c 0
 170.5 -9.5 49 158 75 350 c 0
EndSplineSet
EndChar

StartChar: ordfeminine
Encoding: 170 170 105
Width: 230
VWidth: 0
Flags: HMW
LayerCount: 2
Fore
SplineSet
110.3 530.2 m 0
 106.8 500.8 125.8 480.3 156.9 479.3 c 0
 197.9 477.8 229.5 509 241 545.5 c 1
 244.5 530 l 1
 232.5 489.5 198.5 454.5 149.4 455.5 c 0
 108.7 456.5 78.2 486.6 84.7 531.2 c 0
 92.2 577.2 142.9 607.4 189.1 607.4 c 0
 223.1 607.4 242.9 592.2 257 580.5 c 1
 254.5 564.1 l 1
 236 577.1 216.2 588.1 189.2 588.1 c 0
 154 588.1 114.8 564.3 110.3 530.2 c 0
138.9 652.7 m 1
 128.9 673.3 l 1
 150.2 686.6 179.6 704 214.9 703 c 0
 260.5 701.5 285 672.5 281 630.5 c 1
 251.5 460.5 l 1
 225.5 460.5 l 1
 255.5 631 l 1
 255.5 658.5 243.8 677.5 213.4 679 c 0
 183.4 680.5 156.8 664.7 138.9 652.7 c 1
EndSplineSet
EndChar

StartChar: ordmasculine
Encoding: 186 186 106
Width: 269
VWidth: 0
Flags: HMW
LayerCount: 2
Fore
SplineSet
90.5 580.5 m 0
 100 646 159 700 226 699.5 c 0
 293 699 332 643.5 323 579.5 c 0
 313.5 514 254.5 460 187.5 460.5 c 0
 120.5 461 81.5 516.5 90.5 580.5 c 0
118 580 m 0
 110.5 532.1 138.5 487.9 189 487.4 c 0
 240 486.9 287 529.6 295.5 580 c 0
 303 627.9 275 672.1 224.5 672.6 c 0
 173.5 673.1 126.5 630.4 118 580 c 0
EndSplineSet
EndChar

StartChar: guillemotleft
Encoding: 171 171 107
Width: 484
VWidth: 0
Flags: HMW
LayerCount: 2
Fore
SplineSet
267 257.2 m 1
 399 49.4 l 1
 363.1 20 l 1
 210.5 257 l 1
 441.1 489.5 l 1
 469.5 459.1 l 1
 267 257.2 l 1
111.5 257.2 m 1
 244 49.4 l 1
 207.6 20 l 1
 55 257 l 1
 285.6 489.5 l 1
 314.5 459.1 l 1
 111.5 257.2 l 1
EndSplineSet
EndChar

StartChar: guillemotright
Encoding: 187 187 108
Width: 484
VWidth: 0
Flags: HMW
LayerCount: 2
Fore
SplineSet
251 252.8 m 1
 119 460.6 l 1
 154.9 490 l 1
 308 253 l 1
 76.9 20.5 l 1
 48.5 50.9 l 1
 251 252.8 l 1
406.5 252.8 m 1
 274.5 460.6 l 1
 310.4 490 l 1
 463 253 l 1
 231.9 20.5 l 1
 204 50.9 l 1
 406.5 252.8 l 1
EndSplineSet
EndChar

StartChar: uni00AD
Encoding: 173 173 109
Width: 203
VWidth: 0
Flags: HMW
LayerCount: 2
Fore
SplineSet
16.5 226.5 m 1
 24.5 275 l 1
 220 275 l 1
 211.5 226.5 l 1
 16.5 226.5 l 1
EndSplineSet
EndChar

StartChar: logicalnot
Encoding: 172 172 110
Width: 601
VWidth: 0
Flags: HMW
LayerCount: 2
Fore
SplineSet
91 326 m 1
 99.5 375 l 1
 576.5 375 l 1
 541 175.5 l 1
 492.5 175.5 l 1
 519.5 326 l 1
 91 326 l 1
EndSplineSet
EndChar

StartChar: macron
Encoding: 175 175 111
Width: 494
VWidth: 0
Flags: HMW
LayerCount: 2
Fore
SplineSet
157 626 m 1
 164.5 675 l 1
 505 675 l 1
 497.5 626 l 1
 157 626 l 1
EndSplineSet
EndChar

StartChar: degree
Encoding: 176 176 112
Width: 269
VWidth: 0
Flags: HMW
LayerCount: 2
Fore
SplineSet
94 600.5 m 0
 103.5 666 162.5 720 229.5 719.5 c 0
 296.5 719 335.5 663.5 326.5 599.5 c 0
 317 534 258 480 191 480.5 c 0
 124 481 85 536.5 94 600.5 c 0
121.5 600 m 0
 114 552.1 142 507.9 192.5 507.4 c 0
 243.5 506.9 290 549.6 298.5 600 c 0
 306 647.9 278 692.1 227.5 692.6 c 0
 176.5 693.1 130 650.4 121.5 600 c 0
EndSplineSet
EndChar

StartChar: plusminus
Encoding: 177 177 113
Width: 594
VWidth: 0
Flags: HMW
LayerCount: 2
Fore
SplineSet
46.5 0 m 1
 54 52 l 1
 523.5 52 l 1
 515.5 0 l 1
 46.5 0 l 1
101.5 359 m 1
 109.5 411 l 1
 579 411 l 1
 571 359 l 1
 101.5 359 l 1
348.5 620 m 1
 403.5 620 l 1
 330 150 l 1
 276.5 150.5 l 1
 348.5 620 l 1
EndSplineSet
EndChar

StartChar: uni00B2
Encoding: 178 178 114
Width: 329
VWidth: 0
Flags: HMW
LayerCount: 2
Fore
SplineSet
47 283 m 1
 270.8 489.8 l 2
 301 517.7 330.4 548.4 337.4 589.1 c 0
 344.4 630.1 323.1 675.9 268.2 677.4 c 0
 203.6 679.9 160.8 621.2 147.3 559 c 1
 114.3 559 l 1
 130.8 638.5 185.1 709.5 270.2 708.5 c 0
 347.8 708 379.2 643.2 369.7 586.4 c 0
 362.2 540.2 330.7 503 296.3 471.1 c 2
 121 313.6 l 1
 330.7 313.1 l 1
 325.2 282.5 l 1
 47 283 l 1
EndSplineSet
EndChar

StartChar: uni00B3
Encoding: 179 179 115
Width: 300
VWidth: 0
Flags: HMW
LayerCount: 2
Fore
SplineSet
192.8 492 m 1
 196.3 512.9 l 1
 248.3 517.9 299.8 545 309.3 595.9 c 0
 316.3 636.9 293.8 674 246.8 675.5 c 0
 197.1 677 161.9 638.8 149.4 597 c 1
 117.5 597.5 l 1
 132.5 657.5 179.8 706.5 248.8 705.5 c 0
 314.8 704.5 351.6 651.5 342.1 595.7 c 0
 330.6 530 262.7 496.5 192.8 492 c 1
175.3 274.5 m 0
 97.8 274.5 61.5 326 65.5 391 c 1
 98.3 391 l 1
 96.3 343.2 119.8 306.6 177.3 305.6 c 0
 231.6 304.6 278.3 342.6 285.8 392.6 c 0
 295.3 452.7 242.8 478.2 191.3 483.2 c 1
 194.8 504.6 l 1
 264.7 500.1 330.6 467.1 318.6 388.3 c 0
 308.6 321.5 246.3 274.5 175.3 274.5 c 0
EndSplineSet
EndChar

StartChar: acute
Encoding: 180 180 116
Width: 355
VWidth: 0
Flags: HMW
LayerCount: 2
Fore
SplineSet
360.1 671.4 m 1
 164.5 521 l 1
 138 541.5 l 1
 315.5 699.5 l 1
 360.1 671.4 l 1
EndSplineSet
EndChar

StartChar: mu
Encoding: 181 181 117
Width: 489
VWidth: 0
Flags: HMW
LayerCount: 2
Fore
SplineSet
334.5 0 m 1
 414 460 l 1
 466 460 l 1
 386.5 0 l 1
 334.5 0 l 1
128.5 168 m 2
 120 99.5 134.5 40.5 209.5 39.5 c 0
 290.2 38 348.5 107.2 366.5 179 c 1
 390.3 179 l 1
 370.3 80.5 294.5 -10 193 -9.5 c 0
 95 -9.5 65 68 76.5 162 c 1
 128.5 460 l 1
 178.5 459.5 l 1
 128.5 168 l 2
127.5 459.5 m 1
 180 460 l 1
 45 -320 l 1
 -5 -319.5 l 1
 127.5 459.5 l 1
EndSplineSet
EndChar

StartChar: paragraph
Encoding: 182 182 118
Width: 510
VWidth: 0
Flags: HMW
LayerCount: 2
Fore
SplineSet
364.5 657.5 m 1
 371 699.5 l 1
 527 699.5 l 1
 520.5 657.5 l 1
 364.5 657.5 l 1
499.5 699.5 m 1
 545 699.5 l 1
 388 -219.5 l 1
 342.5 -219.5 l 1
 499.5 699.5 l 1
371 699.5 m 1
 417 699.5 l 1
 259.5 -219.5 l 1
 214.5 -219.5 l 1
 371 699.5 l 1
299.5 270.5 m 1
 177 277 93.5 356.5 113 485.5 c 0
 134 619.5 243 699.5 371 699.5 c 1
 299.5 270.5 l 1
EndSplineSet
EndChar

StartChar: periodcentered
Encoding: 183 183 119
Width: 268
VWidth: 0
Flags: HMW
LayerCount: 2
Fore
SplineSet
110 233.2 m 0
 112 251.6 133.5 270.4 152.2 269.4 c 0
 171.4 268.4 185.9 251.1 183.9 231.7 c 0
 181.9 213.3 159.9 194.5 141.2 195.5 c 0
 122 196.5 108 213.8 110 233.2 c 0
EndSplineSet
EndChar

StartChar: uni00B9
Encoding: 185 185 120
Width: 456
VWidth: 0
Flags: HMW
LayerCount: 2
Fore
SplineSet
225.2 634 m 1
 230.2 667.8 l 1
 363.5 698.9 l 1
 289.5 274.5 l 1
 257 274.5 l 1
 322 658 l 1
 225.2 634 l 1
EndSplineSet
EndChar

StartChar: cedilla
Encoding: 184 184 121
Width: 339
VWidth: 0
Flags: HMW
LayerCount: 2
Fore
SplineSet
161 35.5 m 1
 202.2 35.5 l 1
 125.8 -61.3 l 1
 136.9 -56.1 145.5 -51.5 158.5 -52 c 0
 194.5 -55 223.5 -83.5 219 -127 c 0
 212.5 -184 153 -220 99.5 -219.5 c 0
 64.5 -219.5 43 -206 18 -181 c 1
 43.3 -155.8 l 1
 62.1 -172.4 77.1 -183.3 103 -183.3 c 0
 138.6 -183.3 176.9 -159.9 181.4 -125.5 c 0
 184.9 -97 164.8 -79.9 136.8 -78.9 c 0
 115.8 -77.4 88.9 -87.1 67 -99 c 1
 161 35.5 l 1
EndSplineSet
EndChar

StartChar: questiondown
Encoding: 191 191 122
Width: 534
VWidth: 0
Flags: HMW
LayerCount: 2
Fore
SplineSet
122.8 192 m 0
 107.3 106.5 158.5 40 253 39.5 c 0
 328.5 39 383.6 81.2 427.7 133.5 c 1
 466.5 105.5 l 1
 411 40 345.5 -10.5 243 -9.5 c 0
 124 -8.5 54 83.5 71 192.5 c 0
 90.5 305.1 199.3 379.9 315.7 391.1 c 1
 344.6 529.5 l 1
 383.2 530 l 1
 368.2 355 l 1
 353.4 355 l 1
 225.4 349 138.3 274.5 122.8 192 c 0
426.7 674.8 m 0
 424.7 656.4 402.7 637.6 384 638.6 c 0
 364.8 639.6 351.3 656.9 353.3 676.3 c 0
 355.3 694.7 376.8 713.5 395.5 712.5 c 0
 414.7 711.5 428.7 694.2 426.7 674.8 c 0
EndSplineSet
EndChar

StartChar: multiply
Encoding: 215 215 123
Width: 570
VWidth: 0
Flags: HMW
LayerCount: 2
Fore
SplineSet
83.9 31.8 m 1
 53.2 70 l 1
 270.7 255.8 l 1
 117 443.3 l 1
 157.2 478 l 1
 306.2 288.3 l 1
 520.7 477.5 l 1
 550.9 439.3 l 1
 333.7 253.3 l 1
 486.7 66.5 l 1
 446.5 31.8 l 1
 297.7 220.8 l 1
 83.9 31.8 l 1
EndSplineSet
EndChar

StartChar: Oslash
Encoding: 216 216 124
Width: 766
VWidth: 0
Flags: HMW
LayerCount: 2
Fore
SplineSet
132.7 350 m 0
 108.7 193.9 190.3 47.6 358.9 46.6 c 0
 529.5 45.6 666.1 185.4 693.1 350 c 0
 717.1 506.1 635.5 652.4 466.9 653.4 c 0
 296.3 654.4 159.7 514.6 132.7 350 c 0
74.5 350 m 0
 105 546 269.9 709.6 471.9 709.1 c 0
 671.4 708.6 778.8 536.5 751.3 350 c 0
 720.8 154 555.9 -9.6 353.9 -9.1 c 0
 154.4 -8.6 47 163.5 74.5 350 c 0
775.3 742.6 m 1
 811.7 715.4 l 1
 52.7 -42.6 l 1
 17.3 -15.4 l 1
 775.3 742.6 l 1
EndSplineSet
EndChar

StartChar: Thorn
Encoding: 222 222 125
Width: 521
VWidth: 0
Flags: HMW
LayerCount: 2
Fore
SplineSet
169.5 699.5 m 1
 224.5 700 l 1
 103.5 0 l 1
 50.5 0 l 1
 169.5 699.5 l 1
164.9 508 m 1
 174.4 560 l 1
 317 560 l 1
 444 557.5 534 473.5 514.5 349.5 c 0
 494.5 222.5 380 142.5 249 140 c 1
 102.4 140 l 1
 111.9 192 l 1
 254 192 l 1
 355 194.5 443.3 253.5 460.3 350 c 0
 476.3 446.5 409 505 311.5 507.5 c 1
 164.9 508 l 1
EndSplineSet
EndChar

StartChar: divide
Encoding: 247 247 126
Width: 604
VWidth: 0
Flags: HMW
LayerCount: 2
Fore
SplineSet
313.8 451.2 m 0
 315.8 469.6 337.3 488.4 356 487.4 c 0
 375.2 486.4 389.2 469.1 387.2 449.7 c 0
 385.2 431.3 363.7 412.5 345 413.5 c 0
 325.8 414.5 311.8 431.8 313.8 451.2 c 0
246.3 55.2 m 0
 248.3 73.6 269.8 92.4 288.5 91.4 c 0
 307.7 90.4 321.7 73.1 319.7 53.7 c 0
 317.7 35.3 296.2 16.5 277.5 17.5 c 0
 258.3 18.5 244.3 35.8 246.3 55.2 c 0
70.5 229.5 m 1
 79 281 l 1
 565 281 l 1
 556.5 229 l 1
 70.5 229.5 l 1
EndSplineSet
EndChar

StartChar: oslash
Encoding: 248 248 127
Width: 529
VWidth: 0
Flags: HMW
LayerCount: 2
Fore
SplineSet
49 230 m 0
 69 361.5 183.1 469.5 318 469.5 c 0
 451.4 469.5 527.5 356.5 509 230 c 0
 489 98.5 374.9 -9.5 240 -9.5 c 0
 106.6 -9.5 30.5 103.5 49 230 c 0
101.3 230 m 0
 85.8 131.4 140 40 244.5 39.5 c 0
 350.5 39 439.7 125.9 456.7 230 c 0
 472.2 328.6 418 420 313.5 420.5 c 0
 207.5 421 118.3 334.1 101.3 230 c 0
490.6 496.6 m 1
 519.9 481.4 l 1
 51.9 -40.6 l 1
 23.1 -25.4 l 1
 490.6 496.6 l 1
EndSplineSet
EndChar

StartChar: circumflex
Encoding: 710 710 128
Width: 465
VWidth: 0
Flags: HMW
LayerCount: 2
Fore
SplineSet
322.5 673.6 m 1
 179.4 564.1 l 1
 150.5 591.5 l 1
 329 730 l 1
 462.5 589.5 l 1
 427.1 563.6 l 1
 322.5 673.6 l 1
EndSplineSet
EndChar

StartChar: ogonek
Encoding: 731 731 129
Width: 248
VWidth: 0
Flags: HMW
LayerCount: 2
Fore
SplineSet
154.2 -147.6 m 1
 172 -181 l 1
 149.5 -200.5 117.5 -219.5 77.5 -219.5 c 0
 12 -220 -29.5 -184 -22 -127.5 c 0
 -12 -58.5 70.2 -14.5 136.7 18.5 c 1
 161.9 0 l 1
 108.7 -26 37.5 -63 30.5 -116 c 0
 27 -151.5 50.5 -172 85 -173.5 c 0
 113.3 -174.5 136.5 -161.1 154.2 -147.6 c 1
EndSplineSet
EndChar

StartChar: tilde
Encoding: 732 732 130
Width: 514
VWidth: 0
Flags: HMW
LayerCount: 2
Fore
SplineSet
192.9 635.8 m 1
 207.9 672.8 243 707.5 288 706.5 c 0
 338 706 354.5 659 401.5 660.5 c 0
 427 661.5 445 682.5 463.5 707.5 c 1
 491.6 680 l 1
 470.6 647.5 437.1 615.5 395.1 616.5 c 0
 348.6 617.5 326.6 663 284.6 662.5 c 0
 248.6 662 233.6 633.5 225.6 612.5 c 1
 192.9 635.8 l 1
EndSplineSet
EndChar

StartChar: ring
Encoding: 730 730 131
Width: 269
VWidth: 0
Flags: HMW
LayerCount: 2
Fore
SplineSet
142 786 m 0
 150 841 204.5 885 257.5 884.5 c 0
 310.5 884 349 838.5 341.5 784 c 0
 333.5 729 279 685 226 685.5 c 0
 173 686 134.5 731.5 142 786 c 0
175.8 784.5 m 0
 171.3 749.5 195.4 719.1 229 717.6 c 0
 263.1 716.1 302.7 749.5 307.7 785.5 c 0
 312.2 820.5 288.1 850.9 254.5 852.4 c 0
 220.4 853.9 180.8 820.5 175.8 784.5 c 0
EndSplineSet
EndChar

StartChar: dotaccent
Encoding: 729 729 132
Width: 268
VWidth: 0
Flags: HMW
LayerCount: 2
Fore
SplineSet
202.5 775.2 m 0
 204.5 793.6 226 812.4 244.7 811.4 c 0
 263.9 810.4 277.9 793.1 275.9 773.7 c 0
 273.9 755.3 252.4 736.5 233.7 737.5 c 0
 214.5 738.5 200.5 755.8 202.5 775.2 c 0
EndSplineSet
EndChar

StartChar: uni2010
Encoding: 8208 8208 133
Width: 203
VWidth: 0
Flags: HMW
LayerCount: 2
Fore
SplineSet
16.5 226.5 m 1
 24.5 275 l 1
 220 275 l 1
 211.5 226.5 l 1
 16.5 226.5 l 1
EndSplineSet
EndChar

StartChar: endash
Encoding: 8211 8211 134
Width: 718
VWidth: 0
Flags: HMW
LayerCount: 2
Fore
SplineSet
79.5 226.5 m 1
 87.5 275 l 1
 671 275 l 1
 663 226 l 1
 79.5 226.5 l 1
EndSplineSet
EndChar

StartChar: figuredash
Encoding: 8210 8210 135
Width: 572
VWidth: 0
Flags: HMW
LayerCount: 2
Fore
SplineSet
79.5 226.5 m 1
 87.5 275 l 1
 525.5 275 l 1
 517.5 226 l 1
 79.5 226.5 l 1
EndSplineSet
EndChar

StartChar: emdash
Encoding: 8212 8212 136
Width: 863
VWidth: 0
Flags: HMW
LayerCount: 2
Fore
SplineSet
79.5 226.5 m 1
 87.5 275 l 1
 816.5 275 l 1
 808.5 226 l 1
 79.5 226.5 l 1
EndSplineSet
EndChar

StartChar: minus
Encoding: 8722 8722 137
Width: 572
VWidth: 0
Flags: HMW
LayerCount: 2
Fore
SplineSet
79.5 226.5 m 1
 87.5 275 l 1
 525.5 275 l 1
 517.5 226 l 1
 79.5 226.5 l 1
EndSplineSet
EndChar

StartChar: quoteright
Encoding: 8217 8217 138
Width: 254
VWidth: 0
Flags: HMW
LayerCount: 2
Fore
SplineSet
223.1 699.5 m 1
 285.5 699.5 l 1
 149.5 471 l 1
 112.5 471 l 1
 223.1 699.5 l 1
EndSplineSet
EndChar

StartChar: quoteleft
Encoding: 8216 8216 139
Width: 247
VWidth: 0
Flags: HMW
LayerCount: 2
Fore
SplineSet
177.9 470.5 m 1
 115 470.5 l 1
 251 699 l 1
 288.5 699 l 1
 177.9 470.5 l 1
EndSplineSet
EndChar

StartChar: quotesinglbase
Encoding: 8218 8218 140
Width: 254
VWidth: 0
Flags: HMW
LayerCount: 2
Fore
SplineSet
115.1 79.5 m 1
 178 79.5 l 1
 42 -149 l 1
 5 -149 l 1
 115.1 79.5 l 1
EndSplineSet
EndChar

StartChar: quotedblleft
Encoding: 8220 8220 141
Width: 425
VWidth: 0
Flags: HMW
LayerCount: 2
Fore
SplineSet
185.4 470.5 m 1
 122.5 470.5 l 1
 259 699 l 1
 296 699 l 1
 185.4 470.5 l 1
356.4 470.5 m 1
 293.5 470.5 l 1
 429.5 699 l 1
 467 699 l 1
 356.4 470.5 l 1
EndSplineSet
EndChar

StartChar: quotedblright
Encoding: 8221 8221 142
Width: 425
VWidth: 0
Flags: HMW
LayerCount: 2
Fore
SplineSet
215.1 699.5 m 1
 278 699.5 l 1
 142 471 l 1
 104.5 471 l 1
 215.1 699.5 l 1
386.1 699.5 m 1
 449 699.5 l 1
 312.5 471 l 1
 275.5 471 l 1
 386.1 699.5 l 1
EndSplineSet
EndChar

StartChar: perthousand
Encoding: 8240 8240 143
Width: 1074
VWidth: 0
Flags: HMW
LayerCount: 2
Fore
SplineSet
738.5 146.5 m 0
 751.5 230.5 823 301.5 913.5 301.5 c 0
 1003.5 301.5 1051 227 1039 145.5 c 0
 1026 61.5 954.5 -9.5 864 -9.5 c 0
 774 -9.5 726.5 65 738.5 146.5 c 0
784.3 146 m 0
 775.3 90.5 803.5 34.3 867.5 33.3 c 0
 932 32.3 982.7 87.5 992.7 146 c 0
 1001.7 201.5 973.5 257.5 909.5 258.5 c 0
 845 259.5 794.3 204.5 784.3 146 c 0
101 554.5 m 0
 114 638.5 185 709.5 275.5 709.5 c 0
 365.5 709.5 413 635 401 553.5 c 0
 388 469.5 316.5 398.5 226 398.5 c 0
 136 398.5 89 473 101 554.5 c 0
146.3 554 m 0
 137.3 498.5 166 442.3 230 441.3 c 0
 294.5 440.3 345.2 495.5 355.2 554 c 0
 364.2 609.5 336 665.5 272 666.5 c 0
 207.5 667.5 156.3 612.5 146.3 554 c 0
374 146.5 m 0
 387 230.5 458 301.5 548.5 301.5 c 0
 638.5 301.5 686 227 674 145.5 c 0
 661 61.5 589.5 -9.5 499 -9.5 c 0
 409 -9.5 362 65 374 146.5 c 0
419.3 146 m 0
 410.3 90.5 438.5 34.3 502.5 33.3 c 0
 567 32.3 618.2 87.5 628.2 146 c 0
 637.2 201.5 608.5 257.5 544.5 258.5 c 0
 480 259.5 429.3 204.5 419.3 146 c 0
641.5 699.5 m 1
 692.9 699.5 l 1
 133 0 l 1
 83.1 0 l 1
 641.5 699.5 l 1
EndSplineSet
EndChar

StartChar: guilsinglleft
Encoding: 8249 8249 144
Width: 329
VWidth: 0
Flags: HMW
LayerCount: 2
Fore
SplineSet
111.5 257.2 m 1
 244 49.4 l 1
 207.6 20 l 1
 55 257 l 1
 285.6 489.5 l 1
 314.5 459.1 l 1
 111.5 257.2 l 1
EndSplineSet
EndChar

StartChar: guilsinglright
Encoding: 8250 8250 145
Width: 339
VWidth: 0
Flags: HMW
LayerCount: 2
Fore
SplineSet
260.5 252.8 m 1
 128.5 460.6 l 1
 164.4 490 l 1
 317.5 253 l 1
 86.9 20.5 l 1
 58 50.9 l 1
 260.5 252.8 l 1
EndSplineSet
EndChar

StartChar: uni2031
Encoding: 8241 8241 146
Width: 1438
VWidth: 0
Flags: HMW
LayerCount: 2
Fore
SplineSet
1103.5 146.5 m 0
 1116.5 230.5 1188 301.5 1278.5 301.5 c 0
 1368.5 301.5 1416 227 1404 145.5 c 0
 1391 61.5 1319.5 -9.5 1229 -9.5 c 0
 1139 -9.5 1091.5 65 1103.5 146.5 c 0
1149.3 146 m 0
 1140.3 90.5 1168.5 34.3 1232.5 33.3 c 0
 1297 32.3 1348.2 87.5 1358.2 146 c 0
 1367.2 201.5 1338.5 257.5 1274.5 258.5 c 0
 1210 259.5 1159.3 204.5 1149.3 146 c 0
738.5 146.5 m 0
 751.5 230.5 823 301.5 913.5 301.5 c 0
 1003.5 301.5 1051 227 1039 145.5 c 0
 1026 61.5 954.5 -9.5 864 -9.5 c 0
 774 -9.5 726.5 65 738.5 146.5 c 0
784.3 146 m 0
 775.3 90.5 803.5 34.3 867.5 33.3 c 0
 932 32.3 982.7 87.5 992.7 146 c 0
 1001.7 201.5 973.5 257.5 909.5 258.5 c 0
 845 259.5 794.3 204.5 784.3 146 c 0
101 554.5 m 0
 114 638.5 185 709.5 275.5 709.5 c 0
 365.5 709.5 413 635 401 553.5 c 0
 388 469.5 316.5 398.5 226 398.5 c 0
 136 398.5 89 473 101 554.5 c 0
146.3 554 m 0
 137.3 498.5 166 442.3 230 441.3 c 0
 294.5 440.3 345.2 495.5 355.2 554 c 0
 364.2 609.5 336 665.5 272 666.5 c 0
 207.5 667.5 156.3 612.5 146.3 554 c 0
374 146.5 m 0
 387 230.5 458 301.5 548.5 301.5 c 0
 638.5 301.5 686 227 674 145.5 c 0
 661 61.5 589.5 -9.5 499 -9.5 c 0
 409 -9.5 362 65 374 146.5 c 0
419.3 146 m 0
 410.3 90.5 438.5 34.3 502.5 33.3 c 0
 567 32.3 618.2 87.5 628.2 146 c 0
 637.2 201.5 608.5 257.5 544.5 258.5 c 0
 480 259.5 429.3 204.5 419.3 146 c 0
641.5 699.5 m 1
 692.9 699.5 l 1
 133 0 l 1
 83.1 0 l 1
 641.5 699.5 l 1
EndSplineSet
EndChar

StartChar: uni203D
Encoding: 8253 8253 147
Width: 540
VWidth: 0
Flags: HMW
LayerCount: 2
Fore
SplineSet
477.2 508 m 0
 491.7 593.5 441.5 660 346.5 660.5 c 0
 271 661 216.4 618.8 172.3 566.5 c 1
 133.5 594.5 l 1
 189 660 254.5 710.5 357 709.5 c 0
 476 708.5 546 616.5 529 507.5 c 0
 509.5 394 401.7 316.4 287.2 308.9 c 1
 259.6 346 l 1
 367.6 351.5 458.7 416 477.2 508 c 0
272.3 510 m 1
 337.2 509.5 l 1
 265.1 170.5 l 1
 227.4 170.5 l 1
 272.3 510 l 1
184.8 25.2 m 0
 186.8 43.6 208.3 62.4 227 61.4 c 0
 246.2 60.4 260.2 43.1 258.2 23.7 c 0
 256.2 5.3 234.7 -13.5 216 -12.5 c 0
 196.8 -11.5 182.8 5.8 184.8 25.2 c 0
EndSplineSet
EndChar

StartChar: Euro
Encoding: 8364 8364 148
Width: 609
VWidth: 0
Flags: HMW
LayerCount: 2
Fore
SplineSet
82.5 422.6 m 1
 88 454.5 l 1
 574.5 454.5 l 1
 569.5 422.6 l 1
 82.5 422.6 l 1
62 302.6 m 1
 67.5 334.5 l 1
 529 334.5 l 1
 523.5 302.6 l 1
 62 302.6 l 1
185.5 350 m 0
 166 204.1 208.1 43.5 360.5 42.5 c 0
 418.5 42 471.5 64.8 517.5 96.8 c 1
 507 31 l 1
 460.5 7 409 -9.5 355.5 -9.5 c 0
 171 -9 107.5 175 131 350 c 0
 158.5 538 290.5 710 474.5 709.5 c 0
 526 709.5 572.5 694 615.5 669 c 1
 605 602.7 l 1
 567.5 637.7 523 658 469.5 658 c 0
 315.1 658.5 209.5 509.4 185.5 350 c 0
EndSplineSet
EndChar

StartChar: fraction
Encoding: 8260 8260 149
Width: 684
VWidth: 0
Flags: HMW
LayerCount: 2
Fore
SplineSet
674.6 699 m 1
 718.5 698.5 l 1
 74.4 0 l 1
 30.5 0 l 1
 674.6 699 l 1
EndSplineSet
EndChar

StartChar: onequarter
Encoding: 188 188 150
Width: 731
VWidth: 0
Flags: HMW
LayerCount: 2
Fore
SplineSet
711.6 699 m 1
 755.5 698.5 l 1
 111.4 0 l 1
 67.5 0 l 1
 711.6 699 l 1
106.7 634 m 1
 111.7 667.8 l 1
 245 698.9 l 1
 171.5 274.5 l 1
 138.5 274.5 l 1
 203.5 658 l 1
 106.7 634 l 1
374.6 84.5 m 1
 404.9 112.7 l 1
 596 113.2 l 1
 602.9 113.2 l 1
 680.8 113.2 l 1
 676.3 84.5 l 1
 374.6 84.5 l 1
409.7 85 m 1
 374.1 85.5 l 1
 656 419 l 1
 669.3 419.5 l 1
 597.8 0 l 1
 564.8 0 l 1
 581.8 97.8 l 1
 582.3 102.2 l 1
 623.3 340.1 l 1
 409.7 85 l 1
EndSplineSet
EndChar

StartChar: onehalf
Encoding: 189 189 151
Width: 794
VWidth: 0
Flags: HMW
LayerCount: 2
Fore
SplineSet
711.6 699 m 1
 755.5 698.5 l 1
 111.4 0 l 1
 67.5 0 l 1
 711.6 699 l 1
106.7 634 m 1
 111.7 667.8 l 1
 245 698.9 l 1
 171.5 274.5 l 1
 138.5 274.5 l 1
 203.5 658 l 1
 106.7 634 l 1
452.6 3 m 1
 676.4 209.1 l 2
 706.6 237 736 268.2 743 308.9 c 0
 750 349.9 728.7 394.9 673.8 396.9 c 0
 609.2 399.4 566.4 341.2 552.9 279 c 1
 519.9 279 l 1
 536.4 358.5 590.7 429.5 675.8 428.5 c 0
 753.4 427.5 785.5 363 776 306.2 c 0
 768.5 260 736.3 223 701.9 191.1 c 2
 527.1 33.6 l 1
 736.3 33.1 l 1
 731.3 2.5 l 1
 452.6 3 l 1
EndSplineSet
EndChar

StartChar: threequarters
Encoding: 190 190 152
Width: 795
VWidth: 0
Flags: HMW
LayerCount: 2
Fore
SplineSet
776.6 699 m 1
 820.5 698.5 l 1
 176.4 0 l 1
 132.5 0 l 1
 776.6 699 l 1
197.8 492 m 1
 201.3 512.9 l 1
 253.3 517.9 304.8 545 314.3 595.9 c 0
 321.3 636.9 298.8 674 251.8 675.5 c 0
 202.1 677 166.4 638.8 153.9 597 c 1
 122.5 597.5 l 1
 137.5 657.5 184.8 706.5 253.8 705.5 c 0
 319.8 704.5 356.6 651.5 347.1 595.7 c 0
 335.6 530 267.7 496.5 197.8 492 c 1
180.3 274.5 m 0
 102.8 274.5 66 326 70 391 c 1
 102.8 391 l 1
 100.8 343.2 124.3 306.6 181.8 305.6 c 0
 236.1 304.6 283.3 342.6 290.8 392.6 c 0
 300.3 452.7 247.8 478.2 196.3 483.2 c 1
 199.8 504.6 l 1
 269.7 500.1 335.6 467.1 323.6 388.3 c 0
 313.6 321.5 251.3 274.5 180.3 274.5 c 0
439.6 84.5 m 1
 469.9 112.7 l 1
 661 113.2 l 1
 667.9 113.2 l 1
 745.8 113.2 l 1
 741.3 84.5 l 1
 439.6 84.5 l 1
474.7 85 m 1
 439.1 85.5 l 1
 721 419 l 1
 734.3 419.5 l 1
 662.8 0 l 1
 629.8 0 l 1
 646.8 97.8 l 1
 647.3 102.2 l 1
 688.3 340.1 l 1
 474.7 85 l 1
EndSplineSet
EndChar

StartChar: uni2150
Encoding: 8528 8528 153
Width: 817
VWidth: 0
Flags: HMW
LayerCount: 2
Fore
SplineSet
663.1 699 m 1
 707 698.5 l 1
 62.9 0 l 1
 19 0 l 1
 663.1 699 l 1
106.7 634 m 1
 111.7 667.8 l 1
 245 698.9 l 1
 171.5 274.5 l 1
 138.5 274.5 l 1
 203.5 658 l 1
 106.7 634 l 1
544 388.9 m 1
 548.5 419.5 l 1
 831.6 419.5 l 1
 555.9 0 l 1
 520.6 0 l 1
 775.3 388.4 l 1
 544 388.9 l 1
EndSplineSet
EndChar

StartChar: uni2151
Encoding: 8529 8529 154
Width: 760
VWidth: 0
Flags: HMW
LayerCount: 2
Fore
SplineSet
663.1 699 m 1
 707 698.5 l 1
 62.9 0 l 1
 19 0 l 1
 663.1 699 l 1
106.7 634 m 1
 111.7 667.8 l 1
 245 698.9 l 1
 171.5 274.5 l 1
 138.5 274.5 l 1
 203.5 658 l 1
 106.7 634 l 1
720.4 286.2 m 0
 728.9 343.8 699.4 396.5 637.7 397.5 c 0
 575.5 398.5 523 346.3 513.5 286.2 c 0
 505.5 230.8 536.7 179.2 594.5 177.7 c 0
 658 176.2 710.9 228.5 720.4 286.2 c 0
540.3 3 m 1
 498.4 3.5 l 1
 663.5 187.8 l 1
 666.4 184.9 l 1
 643.1 165.2 614.9 152.4 581.8 152.9 c 0
 512.3 153.9 473.6 219.9 482.6 286.7 c 0
 494.1 365 560.2 428 639.7 427.5 c 0
 719.7 427 763.3 362.5 751.8 286.2 c 0
 746.3 252.2 727.9 220.1 707.9 196.1 c 1
 540.3 3 l 1
EndSplineSet
EndChar

StartChar: uni2152
Encoding: 8530 8530 155
Width: 1048
VWidth: 0
Flags: HMW
LayerCount: 2
Fore
SplineSet
663.1 699 m 1
 707 698.5 l 1
 62.9 0 l 1
 19 0 l 1
 663.1 699 l 1
106.7 634 m 1
 111.7 667.8 l 1
 245 698.9 l 1
 171.5 274.5 l 1
 138.5 274.5 l 1
 203.5 658 l 1
 106.7 634 l 1
487 361 m 1
 492 394.8 l 1
 624.8 425.9 l 1
 551.3 1.5 l 1
 518.3 1.5 l 1
 583.8 385 l 1
 487 361 l 1
759.7 210 m 0
 750.7 132.2 755.9 27.1 835.7 25.6 c 0
 915.5 24.1 965.7 123.2 978.2 210 c 0
 987.2 287.8 982.5 392.9 902.7 394.4 c 0
 822.9 395.9 772.2 296.8 759.7 210 c 0
726 210 m 0
 740.5 314.8 806.5 426 904.2 425.5 c 0
 1003.4 425 1023.4 306.8 1011.9 210 c 0
 997.4 105.2 931.4 -6 833.7 -5.5 c 0
 734.5 -5 714.5 113.2 726 210 c 0
EndSplineSet
EndChar

StartChar: onethird
Encoding: 8531 8531 156
Width: 732
VWidth: 0
Flags: HMW
LayerCount: 2
Fore
SplineSet
663.1 699 m 1
 707 698.5 l 1
 62.9 0 l 1
 19 0 l 1
 663.1 699 l 1
106.7 634 m 1
 111.7 667.8 l 1
 245 698.9 l 1
 171.5 274.5 l 1
 138.5 274.5 l 1
 203.5 658 l 1
 106.7 634 l 1
569.8 212 m 1
 573.8 232.9 l 1
 625.8 237.9 677.3 265 686.8 315.9 c 0
 693.8 356.9 671.3 394 624.3 395.5 c 0
 574.6 397 538.9 358.8 526.4 317 c 1
 495 317.5 l 1
 510 377.5 556.8 426.5 625.8 425.5 c 0
 691.8 424.5 729.1 371.5 719.6 315.7 c 0
 708.1 250 639.7 216.5 569.8 212 c 1
552.3 -5.5 m 0
 474.8 -5.5 438.5 46 442.5 111 c 1
 475.3 111 l 1
 473.3 63.2 496.8 26.6 554.3 25.6 c 0
 608.6 24.6 655.8 62.6 663.3 112.6 c 0
 672.8 172.7 619.8 198.2 568.3 203.2 c 1
 572.3 224.6 l 1
 642.2 220.1 707.6 187.1 695.6 108.3 c 0
 685.6 41.5 623.3 -5.5 552.3 -5.5 c 0
EndSplineSet
EndChar

StartChar: twothirds
Encoding: 8532 8532 157
Width: 855
VWidth: 0
Flags: HMW
LayerCount: 2
Fore
SplineSet
786.6 699 m 1
 830.5 698.5 l 1
 185.9 0 l 1
 142 0 l 1
 786.6 699 l 1
51.1 283 m 1
 274.9 489.8 l 2
 305.1 517.7 334.5 548.4 341.5 589.1 c 0
 348.5 630.1 327.2 675.4 272.3 676.9 c 0
 207.7 679.4 164.9 621.2 151.4 559 c 1
 118.4 559 l 1
 134.9 638.5 189.2 709.5 274.3 708.5 c 0
 351.9 708 383.8 643.2 374.3 586.4 c 0
 366.8 540.2 334.3 503 299.9 471.1 c 2
 125.6 313.6 l 1
 334.8 313.1 l 1
 329.8 282.5 l 1
 51.1 283 l 1
693.3 212 m 1
 696.8 232.9 l 1
 748.8 237.9 800.3 265 809.8 315.9 c 0
 816.8 356.9 794.3 394 747.3 395.5 c 0
 697.6 397 662.4 358.8 649.9 317 c 1
 618 317.5 l 1
 633 377.5 680.3 426.5 749.3 425.5 c 0
 815.3 424.5 852.1 371.5 842.6 315.7 c 0
 831.1 250 763.2 216.5 693.3 212 c 1
675.8 -5.5 m 0
 598.3 -5.5 562 46 566 111 c 1
 598.8 111 l 1
 596.8 63.2 620.3 26.6 677.8 25.6 c 0
 732.1 24.6 778.8 62.6 786.3 112.6 c 0
 795.8 172.7 743.3 198.2 691.8 203.2 c 1
 695.3 224.6 l 1
 765.2 220.1 831.1 187.1 819.1 108.3 c 0
 809.1 41.5 746.8 -5.5 675.8 -5.5 c 0
EndSplineSet
EndChar

StartChar: uni2155
Encoding: 8533 8533 158
Width: 722
VWidth: 0
Flags: HMW
LayerCount: 2
Fore
SplineSet
663.1 699 m 1
 707 698.5 l 1
 62.9 0 l 1
 19 0 l 1
 663.1 699 l 1
106.7 634 m 1
 111.7 667.8 l 1
 245 698.9 l 1
 171.5 274.5 l 1
 138.5 274.5 l 1
 203.5 658 l 1
 106.7 634 l 1
677.8 135.5 m 0
 665.8 50 596.5 -7.5 516.2 -7.5 c 0
 450.6 -7.5 414.8 29.3 393.5 80.5 c 1
 422.9 99.1 l 1
 439 57.2 467.8 24.1 517.7 23.6 c 0
 582.1 23.1 634.2 71.4 643.7 136 c 0
 652.2 192.5 622.2 240.1 564.9 242.6 c 0
 519.5 244.6 482.3 223.9 444.7 195.5 c 1
 470.7 225.3 l 1
 497.2 252.7 538.4 273.1 579.5 272.6 c 0
 651.8 271.6 687.8 206.3 677.8 135.5 c 0
558.2 388.3 m 1
 492.1 233.5 l 1
 441.2 192 l 1
 536.7 417.5 l 1
 729.2 417.5 l 1
 724.7 388.8 l 1
 558.2 388.3 l 1
EndSplineSet
EndChar

StartChar: uni2156
Encoding: 8534 8534 159
Width: 845
VWidth: 0
Flags: HMW
LayerCount: 2
Fore
SplineSet
786.6 699 m 1
 830.5 698.5 l 1
 185.9 0 l 1
 142 0 l 1
 786.6 699 l 1
51.1 283 m 1
 274.9 489.8 l 2
 305.1 517.7 334.5 548.4 341.5 589.1 c 0
 348.5 630.1 327.2 675.4 272.3 676.9 c 0
 207.7 679.4 164.9 621.2 151.4 559 c 1
 118.4 559 l 1
 134.9 638.5 189.2 709.5 274.3 708.5 c 0
 351.9 708 383.8 643.2 374.3 586.4 c 0
 366.8 540.2 334.3 503 299.9 471.1 c 2
 125.6 313.6 l 1
 334.8 313.1 l 1
 329.8 282.5 l 1
 51.1 283 l 1
800.8 135.5 m 0
 788.8 50 719.5 -7.5 639.2 -7.5 c 0
 573.6 -7.5 538.3 29.3 517 80.5 c 1
 546.4 99.1 l 1
 562.5 57.2 591.3 24.1 641.2 23.6 c 0
 705.6 23.1 757.2 71.4 766.7 136 c 0
 775.2 192.5 745.7 240.1 688.4 242.6 c 0
 643 244.6 605.8 223.9 568.2 195.5 c 1
 593.7 225.3 l 1
 620.2 252.7 661.9 273.1 703 272.6 c 0
 775.3 271.6 810.8 206.3 800.8 135.5 c 0
681.2 388.3 m 1
 615.6 233.5 l 1
 564.2 192 l 1
 659.7 417.5 l 1
 852.2 417.5 l 1
 847.7 388.8 l 1
 681.2 388.3 l 1
EndSplineSet
EndChar

StartChar: uni2157
Encoding: 8535 8535 160
Width: 806
VWidth: 0
Flags: HMW
LayerCount: 2
Fore
SplineSet
747.6 699 m 1
 791.5 698.5 l 1
 147.4 0 l 1
 103.5 0 l 1
 747.6 699 l 1
197.8 492 m 1
 201.3 512.9 l 1
 253.3 517.9 304.8 545 314.3 595.9 c 0
 321.3 636.9 298.8 674 251.8 675.5 c 0
 202.1 677 166.4 638.8 153.9 597 c 1
 122.5 597.5 l 1
 137.5 657.5 184.8 706.5 253.8 705.5 c 0
 319.8 704.5 356.6 651.5 347.1 595.7 c 0
 335.6 530 267.7 496.5 197.8 492 c 1
180.3 274.5 m 0
 102.8 274.5 66 326 70 391 c 1
 102.8 391 l 1
 100.8 343.2 124.3 306.6 181.8 305.6 c 0
 236.1 304.6 283.3 342.6 290.8 392.6 c 0
 300.3 452.7 247.8 478.2 196.3 483.2 c 1
 199.8 504.6 l 1
 269.7 500.1 335.6 467.1 323.6 388.3 c 0
 313.6 321.5 251.3 274.5 180.3 274.5 c 0
762.3 135.5 m 0
 750.3 50 681 -7.5 600.7 -7.5 c 0
 535.1 -7.5 499.3 29.3 478 80.5 c 1
 507.4 99.1 l 1
 523.5 57.2 552.3 24.1 602.2 23.6 c 0
 666.6 23.1 718.7 71.4 728.2 136 c 0
 736.7 192.5 706.7 240.1 649.4 242.6 c 0
 604 244.6 566.8 223.9 529.2 195.5 c 1
 555.2 225.3 l 1
 581.7 252.7 622.9 273.1 664 272.6 c 0
 736.3 271.6 772.3 206.3 762.3 135.5 c 0
642.2 388.3 m 1
 576.6 233.5 l 1
 525.7 192 l 1
 620.7 417.5 l 1
 813.7 417.5 l 1
 808.7 388.8 l 1
 642.2 388.3 l 1
EndSplineSet
EndChar

StartChar: uni2158
Encoding: 8536 8536 161
Width: 840
VWidth: 0
Flags: HMW
LayerCount: 2
Fore
SplineSet
781.6 699 m 1
 825.5 698.5 l 1
 181.4 0 l 1
 137.5 0 l 1
 781.6 699 l 1
66 364.5 m 1
 96.3 392.7 l 1
 287.4 393.2 l 1
 294.3 393.2 l 1
 372.7 393.2 l 1
 367.7 364.5 l 1
 66 364.5 l 1
101.1 365 m 1
 65.5 365.5 l 1
 347.4 699 l 1
 361.4 699.5 l 1
 289.4 280.5 l 1
 256.2 280.5 l 1
 273.2 377.8 l 1
 273.7 382.2 l 1
 314.7 620.1 l 1
 101.1 365 l 1
796.3 135.5 m 0
 784.3 50 715 -7.5 634.7 -7.5 c 0
 569.1 -7.5 533.3 29.3 512 80.5 c 1
 541.4 99.1 l 1
 557.5 57.2 586.3 24.1 636.2 23.6 c 0
 700.6 23.1 752.7 71.4 762.2 136 c 0
 770.7 192.5 740.7 240.1 683.4 242.6 c 0
 638 244.6 600.8 223.9 563.2 195.5 c 1
 588.7 225.3 l 1
 615.2 252.7 656.9 273.1 698 272.6 c 0
 770.3 271.6 806.3 206.3 796.3 135.5 c 0
676.2 388.3 m 1
 610.6 233.5 l 1
 559.7 192 l 1
 654.7 417.5 l 1
 847.2 417.5 l 1
 842.7 388.8 l 1
 676.2 388.3 l 1
EndSplineSet
EndChar

StartChar: uni2159
Encoding: 8537 8537 162
Width: 712
VWidth: 0
Flags: HMW
LayerCount: 2
Fore
SplineSet
663.1 699 m 1
 707 698.5 l 1
 62.9 0 l 1
 19 0 l 1
 663.1 699 l 1
106.7 634 m 1
 111.7 667.8 l 1
 245 698.9 l 1
 171.5 274.5 l 1
 138.5 274.5 l 1
 203.5 658 l 1
 106.7 634 l 1
439.2 133.8 m 0
 430.7 76.2 460.2 23.5 521.9 22.5 c 0
 584.1 21.5 636.6 73.7 646.1 133.8 c 0
 654.1 189.2 623.6 240.8 565.8 242.3 c 0
 502.3 243.8 448.7 191.5 439.2 133.8 c 0
619.3 417 m 1
 661.9 416.5 l 1
 496.6 232.2 l 1
 493.7 235.1 l 1
 517 254.8 544.9 267.6 578 267.1 c 0
 647.5 266.1 686.5 200.1 677.5 133.3 c 0
 666 55 600.4 -8 520.4 -7.5 c 0
 440.4 -7 396.3 57.5 407.8 133.8 c 0
 413.3 167.8 432.2 199.9 452.2 223.9 c 1
 619.3 417 l 1
EndSplineSet
EndChar

StartChar: uni215A
Encoding: 8538 8538 163
Width: 830
VWidth: 0
Flags: HMW
LayerCount: 2
Fore
SplineSet
781.6 699 m 1
 825.5 698.5 l 1
 181.4 0 l 1
 137.5 0 l 1
 781.6 699 l 1
348.8 415.5 m 0
 336.8 330 267.5 272.5 187.2 272.5 c 0
 121.6 272.5 86.3 309.3 65 360.5 c 1
 94.4 379.1 l 1
 110.5 337.2 139.3 304.1 189.2 303.6 c 0
 253.6 303.1 305.2 351.4 314.7 416 c 0
 323.2 472.5 293.7 520.1 236.4 522.6 c 0
 191 524.6 153.8 503.9 116.2 475.5 c 1
 141.7 505.3 l 1
 168.2 532.7 209.9 553.1 251 552.6 c 0
 323.3 551.6 358.8 486.3 348.8 415.5 c 0
229.2 668.3 m 1
 163.6 513.5 l 1
 112.2 472 l 1
 207.7 697.5 l 1
 400.2 697.5 l 1
 395.7 668.8 l 1
 229.2 668.3 l 1
557.7 133.8 m 0
 549.2 76.2 578.7 23.5 640.4 22.5 c 0
 702.6 21.5 755.1 73.7 764.6 133.8 c 0
 772.6 189.2 742.1 240.8 684.3 242.3 c 0
 620.8 243.8 567.2 191.5 557.7 133.8 c 0
737.8 417 m 1
 780.4 416.5 l 1
 615.1 232.2 l 1
 612.2 235.1 l 1
 635.5 254.8 663.4 267.6 696.5 267.1 c 0
 766 266.1 805 200.1 796 133.3 c 0
 784.5 55 718.9 -8 638.9 -7.5 c 0
 558.9 -7 514.8 57.5 526.3 133.8 c 0
 531.8 167.8 550.2 199.9 570.2 223.9 c 1
 737.8 417 l 1
EndSplineSet
EndChar

StartChar: oneeighth
Encoding: 8539 8539 164
Width: 737
VWidth: 0
Flags: HMW
LayerCount: 2
Fore
SplineSet
663.1 699 m 1
 707 698.5 l 1
 62.9 0 l 1
 19 0 l 1
 663.1 699 l 1
106.7 634 m 1
 111.7 667.8 l 1
 245 698.9 l 1
 171.5 274.5 l 1
 138.5 274.5 l 1
 203.5 658 l 1
 106.7 634 l 1
496.9 321.7 m 0
 505.9 377.5 560.7 426 621.5 425.5 c 0
 681.8 425 721.6 375.5 713.6 320.7 c 0
 705.1 261.4 648.9 216.1 588.5 216.6 c 0
 528.6 217.1 488.4 263.4 496.9 321.7 c 0
527.3 317.9 m 0
 521.3 276.8 549.8 239.8 589 238.3 c 0
 628.7 236.8 675.2 275.3 681.7 317.9 c 0
 687.7 358.3 663.1 394.8 619.5 396.3 c 0
 575.4 397.8 533.8 359.8 527.3 317.9 c 0
447.5 113.4 m 0
 457.5 180.5 522.3 229.8 588 229.3 c 0
 653.2 229.3 700.5 179 691.5 112.4 c 0
 682 48.4 621.5 -6 550.5 -5.5 c 0
 480 -5 438 50.4 447.5 113.4 c 0
479.4 116.2 m 0
 471.4 66.3 500.6 24.7 552.5 23.7 c 0
 604.9 22.7 653.1 63.8 661.1 116.2 c 0
 668.1 163.8 634.9 206.6 587.5 207.6 c 0
 539.1 208.6 487.4 165.3 479.4 116.2 c 0
EndSplineSet
EndChar

StartChar: threeeighths
Encoding: 8540 8540 165
Width: 821
VWidth: 0
Flags: HMW
LayerCount: 2
Fore
SplineSet
747.6 699 m 1
 791.5 698.5 l 1
 147.4 0 l 1
 103.5 0 l 1
 747.6 699 l 1
197.8 492 m 1
 201.3 512.9 l 1
 253.3 517.9 304.8 545 314.3 595.9 c 0
 321.3 636.9 298.8 674 251.8 675.5 c 0
 202.1 677 166.4 638.8 153.9 597 c 1
 122.5 597.5 l 1
 137.5 657.5 184.8 706.5 253.8 705.5 c 0
 319.8 704.5 356.6 651.5 347.1 595.7 c 0
 335.6 530 267.7 496.5 197.8 492 c 1
180.3 274.5 m 0
 102.8 274.5 66 326 70 391 c 1
 102.8 391 l 1
 100.8 343.2 124.3 306.6 181.8 305.6 c 0
 236.1 304.6 283.3 342.6 290.8 392.6 c 0
 300.3 452.7 247.8 478.2 196.3 483.2 c 1
 199.8 504.6 l 1
 269.7 500.1 335.6 467.1 323.6 388.3 c 0
 313.6 321.5 251.3 274.5 180.3 274.5 c 0
580.9 321.7 m 0
 589.9 377.5 645.2 426 706 425.5 c 0
 766.3 425 806.1 375.5 798.1 320.7 c 0
 789.6 261.4 733.4 216.1 673 216.6 c 0
 613.1 217.1 572.4 263.4 580.9 321.7 c 0
611.8 317.9 m 0
 605.8 276.8 634.3 239.8 673.5 238.3 c 0
 713.2 236.8 759.7 275.3 766.2 317.9 c 0
 772.2 358.3 747.6 394.8 704 396.3 c 0
 659.9 397.8 618.3 359.8 611.8 317.9 c 0
532 113.4 m 0
 542 180.5 606.8 229.8 672.5 229.3 c 0
 737.7 229.3 785 179 776 112.4 c 0
 766.5 48.4 706 -6 635 -5.5 c 0
 564.5 -5 522.5 50.4 532 113.4 c 0
563.9 116.2 m 0
 555.9 66.3 585.1 24.7 637 23.7 c 0
 689.4 22.7 737.1 63.8 745.1 116.2 c 0
 752.1 163.8 719.4 206.6 672 207.6 c 0
 623.6 208.6 571.9 165.3 563.9 116.2 c 0
EndSplineSet
EndChar

StartChar: fiveeighths
Encoding: 8541 8541 166
Width: 855
VWidth: 0
Flags: HMW
LayerCount: 2
Fore
SplineSet
781.6 699 m 1
 825.5 698.5 l 1
 181.4 0 l 1
 137.5 0 l 1
 781.6 699 l 1
348.8 415.5 m 0
 336.8 330 267.5 272.5 187.2 272.5 c 0
 121.6 272.5 86.3 309.3 65 360.5 c 1
 94.4 379.1 l 1
 110.5 337.2 139.3 304.1 189.2 303.6 c 0
 253.6 303.1 305.2 351.4 314.7 416 c 0
 323.2 472.5 293.7 520.1 236.4 522.6 c 0
 191 524.6 153.8 503.9 116.2 475.5 c 1
 141.7 505.3 l 1
 168.2 532.7 209.9 553.1 251 552.6 c 0
 323.3 551.6 358.8 486.3 348.8 415.5 c 0
229.2 668.3 m 1
 163.6 513.5 l 1
 112.2 472 l 1
 207.7 697.5 l 1
 400.2 697.5 l 1
 395.7 668.8 l 1
 229.2 668.3 l 1
614.9 321.7 m 0
 623.9 377.5 679.2 426 740 425.5 c 0
 800.3 425 840.1 375.5 832.1 320.7 c 0
 823.6 261.4 767.4 216.1 707 216.6 c 0
 647.1 217.1 606.4 263.4 614.9 321.7 c 0
645.8 317.9 m 0
 639.8 276.8 668.3 239.8 707.5 238.3 c 0
 747.2 236.8 793.7 275.3 800.2 317.9 c 0
 806.2 358.3 781.6 394.8 738 396.3 c 0
 693.9 397.8 652.3 359.8 645.8 317.9 c 0
566 113.4 m 0
 576 180.5 640.3 229.8 706 229.3 c 0
 771.2 229.3 819 179 810 112.4 c 0
 800.5 48.4 740 -6 669 -5.5 c 0
 598.5 -5 556.5 50.4 566 113.4 c 0
597.9 116.2 m 0
 589.9 66.3 619.1 24.7 671 23.7 c 0
 723.4 22.7 771.1 63.8 779.1 116.2 c 0
 786.1 163.8 753.4 206.6 706 207.6 c 0
 657.6 208.6 605.9 165.3 597.9 116.2 c 0
EndSplineSet
EndChar

StartChar: seveneighths
Encoding: 8542 8542 167
Width: 749
VWidth: 0
Flags: HMW
LayerCount: 2
Fore
SplineSet
674.6 699 m 1
 718.5 698.5 l 1
 74.4 0 l 1
 30.5 0 l 1
 674.6 699 l 1
118 668.9 m 1
 122.5 699.5 l 1
 405.6 699.5 l 1
 129.9 281 l 1
 95.1 281 l 1
 349.3 668.4 l 1
 118 668.9 l 1
508.4 321.7 m 0
 517.4 377.5 572.7 426 633.5 425.5 c 0
 693.8 425 733.1 375.5 725.1 320.7 c 0
 716.6 261.4 660.9 216.1 600.5 216.6 c 0
 540.6 217.1 499.9 263.4 508.4 321.7 c 0
538.8 317.9 m 0
 532.8 276.8 561.8 239.8 601 238.3 c 0
 640.7 236.8 687.2 275.3 693.7 317.9 c 0
 699.7 358.3 674.6 394.8 631 396.3 c 0
 586.9 397.8 545.3 359.8 538.8 317.9 c 0
459.5 113.4 m 0
 469.5 180.5 533.8 229.8 599.5 229.3 c 0
 664.7 229.3 712 179 703 112.4 c 0
 693.5 48.4 633.5 -6 562.5 -5.5 c 0
 492 -5 450 50.4 459.5 113.4 c 0
490.9 116.2 m 0
 482.9 66.3 512.1 24.7 564 23.7 c 0
 616.4 22.7 664.6 63.8 672.6 116.2 c 0
 679.6 163.8 646.9 206.6 599.5 207.6 c 0
 551.1 208.6 498.9 165.3 490.9 116.2 c 0
EndSplineSet
EndChar

StartChar: uni2074
Encoding: 8308 8308 168
Width: 368
VWidth: 0
Flags: HMW
LayerCount: 2
Fore
SplineSet
66 364.5 m 1
 96.3 392.7 l 1
 287.4 393.2 l 1
 294.3 393.2 l 1
 372.7 393.2 l 1
 367.7 364.5 l 1
 66 364.5 l 1
101.1 365 m 1
 65.5 365.5 l 1
 347.4 699 l 1
 361.4 699.5 l 1
 289.4 280.5 l 1
 256.2 280.5 l 1
 273.2 377.8 l 1
 273.7 382.2 l 1
 314.7 620.1 l 1
 101.1 365 l 1
EndSplineSet
EndChar

StartChar: uni2075
Encoding: 8309 8309 169
Width: 339
VWidth: 0
Flags: HMW
LayerCount: 2
Fore
SplineSet
348.8 415.5 m 0
 336.8 330 267.5 272.5 187.2 272.5 c 0
 121.6 272.5 86.3 309.3 65 360.5 c 1
 94.4 379.1 l 1
 110.5 337.2 139.3 304.1 189.2 303.6 c 0
 253.6 303.1 305.2 351.4 314.7 416 c 0
 323.2 472.5 293.7 520.1 236.4 522.6 c 0
 191 524.6 153.8 503.9 116.2 475.5 c 1
 141.7 505.3 l 1
 168.2 532.7 209.9 553.1 251 552.6 c 0
 323.3 551.6 358.8 486.3 348.8 415.5 c 0
229.2 668.3 m 1
 163.6 513.5 l 1
 112.2 472 l 1
 207.7 697.5 l 1
 400.2 697.5 l 1
 395.7 668.8 l 1
 229.2 668.3 l 1
EndSplineSet
EndChar

StartChar: uni2076
Encoding: 8310 8310 170
Width: 329
VWidth: 0
Flags: HMW
LayerCount: 2
Fore
SplineSet
110.7 413.8 m 0
 102.2 356.2 131.7 303.5 193.4 302.5 c 0
 255.6 301.5 308.1 353.7 317.6 413.8 c 0
 325.6 469.2 295.1 520.8 237.3 522.3 c 0
 173.8 523.8 120.2 471.5 110.7 413.8 c 0
290.8 697 m 1
 332.9 696.5 l 1
 167.6 512.2 l 1
 164.7 515.1 l 1
 188 534.8 216.4 547.6 249.5 547.1 c 0
 319 546.1 357.5 480.1 348.5 413.3 c 0
 337 335 271.4 272 191.4 272.5 c 0
 111.4 273 67.8 337.5 79.3 413.8 c 0
 84.8 447.8 103.2 479.9 123.2 503.9 c 1
 290.8 697 l 1
EndSplineSet
EndChar

StartChar: uni2077
Encoding: 8311 8311 171
Width: 342
VWidth: 0
Flags: HMW
LayerCount: 2
Fore
SplineSet
118 668.9 m 1
 122.5 699.5 l 1
 405.6 699.5 l 1
 129.9 281 l 1
 95.1 281 l 1
 349.3 668.4 l 1
 118 668.9 l 1
EndSplineSet
EndChar

StartChar: uni2078
Encoding: 8312 8312 172
Width: 304
VWidth: 0
Flags: HMW
LayerCount: 2
Fore
SplineSet
119.4 601.7 m 0
 128.4 657.5 183.7 706 244.5 705.5 c 0
 304.8 705 344.1 655.5 336.1 600.7 c 0
 327.6 541.4 271.9 496.1 211.5 496.6 c 0
 151.6 497.1 110.9 543.4 119.4 601.7 c 0
149.8 597.9 m 0
 143.8 556.8 172.8 519.8 212 518.3 c 0
 251.7 516.8 298.2 555.3 304.7 597.9 c 0
 310.7 638.3 285.6 674.8 242 676.3 c 0
 197.9 677.8 156.3 639.8 149.8 597.9 c 0
70.5 393.4 m 0
 80.5 460.5 144.8 509.8 210.5 509.3 c 0
 275.7 509.3 323.5 459 314.5 392.4 c 0
 305 328.4 244.5 274 173.5 274.5 c 0
 103 275 61 330.4 70.5 393.4 c 0
102.4 396.2 m 0
 94.4 346.3 123.1 304.7 175 303.7 c 0
 227.4 302.7 275.6 343.8 283.6 396.2 c 0
 290.6 443.8 257.9 486.6 210.5 487.6 c 0
 162.1 488.6 110.4 445.3 102.4 396.2 c 0
EndSplineSet
EndChar

StartChar: uni2079
Encoding: 8313 8313 173
Width: 329
VWidth: 0
Flags: HMW
LayerCount: 2
Fore
SplineSet
343.4 566.2 m 0
 351.9 623.8 322.4 676.5 260.7 677.5 c 0
 198.5 678.5 146 626.3 136.5 566.2 c 0
 128.5 510.8 159.2 459.2 217 457.7 c 0
 280.5 456.2 333.9 508.5 343.4 566.2 c 0
163.3 283 m 1
 121.4 283.5 l 1
 286 467.8 l 1
 288.9 464.9 l 1
 265.6 445.2 237.9 432.4 204.8 432.9 c 0
 135.3 433.9 96.1 499.9 105.1 566.7 c 0
 116.6 645 182.7 708 262.2 707.5 c 0
 342.2 707 386.3 642.5 374.8 566.2 c 0
 369.3 532.2 350.4 500.1 330.4 476.1 c 1
 163.3 283 l 1
EndSplineSet
EndChar

StartChar: uni2070
Encoding: 8304 8304 174
Width: 341
VWidth: 0
Flags: HMW
LayerCount: 2
Fore
SplineSet
120.2 490 m 0
 111.2 412.2 116.4 307.1 196.2 305.6 c 0
 276 304.1 326.7 403.2 339.2 490 c 0
 348.2 567.8 343 672.9 263.2 674.4 c 0
 183.4 675.9 132.7 576.8 120.2 490 c 0
86.5 490 m 0
 101 594.8 167 706 264.7 705.5 c 0
 363.9 705 383.9 586.8 372.4 490 c 0
 357.9 385.2 292.4 274 194.7 274.5 c 0
 95.5 275 75 393.2 86.5 490 c 0
EndSplineSet
EndChar

StartChar: uni2080
Encoding: 8320 8320 175
Width: 345
VWidth: 0
Flags: HMW
LayerCount: 2
Fore
SplineSet
72.2 210 m 0
 63.2 132.2 68.4 27.1 148.2 25.6 c 0
 228 24.1 278.7 123.2 291.2 210 c 0
 300.2 287.8 295.5 392.9 215.7 394.4 c 0
 135.9 395.9 84.7 296.8 72.2 210 c 0
39 210 m 0
 53.5 314.8 119 426 216.7 425.5 c 0
 315.9 425 335.9 306.8 324.4 210 c 0
 309.9 105.2 244.4 -6 146.7 -5.5 c 0
 47.5 -5 27.5 113.2 39 210 c 0
EndSplineSet
EndChar

StartChar: uni2084
Encoding: 8324 8324 176
Width: 368
VWidth: 0
Flags: HMW
LayerCount: 2
Fore
SplineSet
18 84.5 m 1
 48.3 112.7 l 1
 239.9 113.2 l 1
 246.8 113.2 l 1
 324.7 113.2 l 1
 319.7 84.5 l 1
 18 84.5 l 1
53.1 85 m 1
 18 85.5 l 1
 299.9 419 l 1
 313.9 419.5 l 1
 241.4 0 l 1
 208.7 0 l 1
 225.2 97.8 l 1
 226.2 102.2 l 1
 267.2 340.1 l 1
 53.1 85 l 1
EndSplineSet
EndChar

StartChar: uni2085
Encoding: 8325 8325 177
Width: 339
VWidth: 0
Flags: HMW
LayerCount: 2
Fore
SplineSet
301.3 135.5 m 0
 289.3 50 220 -7.5 139.7 -7.5 c 0
 74.1 -7.5 38.3 29.3 17 80.5 c 1
 46.4 99.1 l 1
 62.5 57.2 91.3 24.1 141.2 23.6 c 0
 205.6 23.1 257.7 71.4 267.2 136 c 0
 275.7 192.5 245.7 240.1 188.4 242.6 c 0
 143 244.6 105.8 223.9 68.2 195.5 c 1
 94.2 225.3 l 1
 120.7 252.7 161.9 273.1 203 272.6 c 0
 275.3 271.6 311.3 206.3 301.3 135.5 c 0
181.2 388.3 m 1
 115.6 233.5 l 1
 64.7 192 l 1
 159.7 417.5 l 1
 352.7 417.5 l 1
 347.7 388.8 l 1
 181.2 388.3 l 1
EndSplineSet
EndChar

StartChar: uni2086
Encoding: 8326 8326 178
Width: 329
VWidth: 0
Flags: HMW
LayerCount: 2
Fore
SplineSet
62.4 133.8 m 0
 53.9 76.2 82.9 23.5 144.6 22.5 c 0
 206.8 21.5 259.3 73.7 268.8 133.8 c 0
 276.8 189.2 246.3 240.8 188.5 242.3 c 0
 125 243.8 71.9 191.5 62.4 133.8 c 0
242.5 417 m 1
 285.1 416.5 l 1
 119.3 232.2 l 1
 116.4 235.1 l 1
 139.7 254.8 167.6 267.6 200.7 267.1 c 0
 270.2 266.1 309.2 200.1 300.2 133.3 c 0
 288.7 55 223.1 -8 143.1 -7.5 c 0
 63.1 -7 19.5 57.5 31 133.8 c 0
 36.5 167.8 54.9 199.9 74.9 223.9 c 1
 242.5 417 l 1
EndSplineSet
EndChar

StartChar: uni2087
Encoding: 8327 8327 179
Width: 342
VWidth: 0
Flags: HMW
LayerCount: 2
Fore
SplineSet
70 388.9 m 1
 75 419.5 l 1
 358.1 419.5 l 1
 81.9 0 l 1
 47.1 0 l 1
 301.3 388.4 l 1
 70 388.9 l 1
EndSplineSet
EndChar

StartChar: uni2088
Encoding: 8328 8328 180
Width: 304
VWidth: 0
Flags: HMW
LayerCount: 2
Fore
SplineSet
71.4 321.7 m 0
 80.4 377.5 135.7 426 196.5 425.5 c 0
 256.8 425 296.6 375.5 288.6 320.7 c 0
 280.1 261.4 223.9 216.1 163.5 216.6 c 0
 103.6 217.1 62.9 263.4 71.4 321.7 c 0
102.3 317.9 m 0
 96.3 276.8 124.8 239.8 164 238.3 c 0
 203.7 236.8 250.2 275.3 256.7 317.9 c 0
 262.7 358.3 238.1 394.8 194.5 396.3 c 0
 150.4 397.8 108.8 359.8 102.3 317.9 c 0
22.5 113.4 m 0
 32.5 180.5 97.3 229.8 163 229.3 c 0
 228.2 229.3 275.5 179 266.5 112.4 c 0
 257 48.4 196.5 -6 125.5 -5.5 c 0
 55 -5 13 50.4 22.5 113.4 c 0
54.4 116.2 m 0
 46.4 66.3 75.6 24.7 127.5 23.7 c 0
 179.9 22.7 228.1 63.8 236.1 116.2 c 0
 243.1 163.8 209.9 206.6 162.5 207.6 c 0
 114.1 208.6 62.4 165.3 54.4 116.2 c 0
EndSplineSet
EndChar

StartChar: uni2089
Encoding: 8329 8329 181
Width: 329
VWidth: 0
Flags: HMW
LayerCount: 2
Fore
SplineSet
285.3 286.2 m 0
 293.8 343.8 264.8 396.5 203.1 397.5 c 0
 140.9 398.5 87.9 346.3 78.4 286.2 c 0
 70.4 230.8 101.6 179.2 159.4 177.7 c 0
 222.9 176.2 275.8 228.5 285.3 286.2 c 0
105.7 3 m 1
 63.3 3.5 l 1
 228.4 187.8 l 1
 231.3 184.9 l 1
 208 165.2 180.3 152.4 147.2 152.9 c 0
 77.7 153.9 38.5 219.9 47.5 286.7 c 0
 59 365 125.1 428 204.6 427.5 c 0
 284.6 427 328.2 362.5 316.7 286.2 c 0
 311.2 252.2 293.3 220.1 273.3 196.1 c 1
 105.7 3 l 1
EndSplineSet
EndChar

StartChar: uni2081
Encoding: 8321 8321 182
Width: 294
VWidth: 0
Flags: HMW
LayerCount: 2
Fore
SplineSet
124 361 m 1
 129 394.8 l 1
 262.3 425.9 l 1
 188.3 1.5 l 1
 155.8 1.5 l 1
 220.8 385 l 1
 124 361 l 1
EndSplineSet
EndChar

StartChar: uni2082
Encoding: 8322 8322 183
Width: 329
VWidth: 0
Flags: HMW
LayerCount: 2
Fore
SplineSet
-0.5 3 m 1
 223.3 209.8 l 2
 253.5 237.7 282.9 268.4 289.9 309.1 c 0
 296.9 350.1 275.6 395.9 220.7 397.4 c 0
 156.1 399.9 113.3 341.2 99.8 279 c 1
 66.8 279 l 1
 83.3 358.5 137.1 429.5 222.2 428.5 c 0
 299.8 428 331.7 363.2 322.2 306.4 c 0
 314.7 260.2 282.7 223 248.3 191.1 c 2
 73.5 33.6 l 1
 282.7 33.1 l 1
 277.7 2.5 l 1
 -0.5 3 l 1
EndSplineSet
EndChar

StartChar: uni2083
Encoding: 8323 8323 184
Width: 304
VWidth: 0
Flags: HMW
LayerCount: 2
Fore
SplineSet
144.8 212 m 1
 148.3 232.9 l 1
 200.3 237.9 252.3 265 261.8 315.9 c 0
 268.8 356.9 246.3 394 199.3 395.5 c 0
 149.6 397 113.9 358.8 101.4 317 c 1
 70 317.5 l 1
 85 377.5 131.8 426.5 200.8 425.5 c 0
 266.8 424.5 304.1 371.5 294.6 315.7 c 0
 283.1 250 214.7 216.5 144.8 212 c 1
127.3 -5.5 m 0
 49.8 -5.5 13.5 46 17.5 111 c 1
 50.3 111 l 1
 48.3 63.2 71.8 26.6 129.3 25.6 c 0
 183.6 24.6 230.8 62.6 238.3 112.6 c 0
 247.8 172.7 194.8 198.2 143.3 203.2 c 1
 147.3 224.6 l 1
 217.2 220.1 282.6 187.1 270.6 108.3 c 0
 260.6 41.5 198.3 -5.5 127.3 -5.5 c 0
EndSplineSet
EndChar

StartChar: Agrave
Encoding: 192 192 185
Width: 616
VWidth: 0
Flags: HMW
LayerCount: 2
Fore
SplineSet
148 235.4 m 1
 173.5 286.4 l 1
 489 286.9 l 1
 498 234.9 l 1
 148 235.4 l 1
386 600.2 m 1
 196.3 269.1 l 1
 189.2 256.9 l 1
 41.9 0 l 1
 -20.5 0 l 1
 405.5 728 l 1
 581 0 l 1
 521.1 0 l 1
 464.1 253.1 l 1
 461.5 266.2 l 1
 386 600.2 l 1
312.8 940.4 m 1
 363.9 967 l 1
 491.4 806.5 l 1
 461.1 787 l 1
 312.8 940.4 l 1
EndSplineSet
EndChar

StartChar: Aacute
Encoding: 193 193 186
Width: 616
VWidth: 0
Flags: HMW
LayerCount: 2
Fore
SplineSet
148 235.4 m 1
 173.5 286.4 l 1
 489 286.9 l 1
 498 234.9 l 1
 148 235.4 l 1
386 600.2 m 1
 196.3 269.1 l 1
 189.2 256.9 l 1
 41.9 0 l 1
 -20.5 0 l 1
 405.5 728 l 1
 581 0 l 1
 521.1 0 l 1
 464.1 253.1 l 1
 461.5 266.2 l 1
 386 600.2 l 1
571.2 937.9 m 1
 372.9 788 l 1
 347.1 808.5 l 1
 527.1 966.5 l 1
 571.2 937.9 l 1
EndSplineSet
EndChar

StartChar: Acircumflex
Encoding: 194 194 187
Width: 616
VWidth: 0
Flags: HMW
LayerCount: 2
Fore
SplineSet
148 235.4 m 1
 173.5 286.4 l 1
 489 286.9 l 1
 498 234.9 l 1
 148 235.4 l 1
386 600.2 m 1
 196.3 269.1 l 1
 189.2 256.9 l 1
 41.9 0 l 1
 -20.5 0 l 1
 405.5 728 l 1
 581 0 l 1
 521.1 0 l 1
 464.1 253.1 l 1
 461.5 266.2 l 1
 386 600.2 l 1
432.5 873.5 m 1
 289.4 763.5 l 1
 260 790.9 l 1
 439 929.4 l 1
 572 789.4 l 1
 536.6 763.5 l 1
 432.5 873.5 l 1
EndSplineSet
EndChar

StartChar: Atilde
Encoding: 195 195 188
Width: 616
VWidth: 0
Flags: HMW
LayerCount: 2
Fore
SplineSet
148 235.4 m 1
 173.5 286.4 l 1
 489 286.9 l 1
 498 234.9 l 1
 148 235.4 l 1
386 600.2 m 1
 196.3 269.1 l 1
 189.2 256.9 l 1
 41.9 0 l 1
 -20.5 0 l 1
 405.5 728 l 1
 581 0 l 1
 521.1 0 l 1
 464.1 253.1 l 1
 461.5 266.2 l 1
 386 600.2 l 1
273.3 806.8 m 1
 288.8 843.3 323.9 878.5 369.4 877.5 c 0
 421.4 877 434.9 830 481.4 831.5 c 0
 506.9 832.5 526.4 853.5 544.9 878.5 c 1
 572.7 851 l 1
 551.7 819 517.2 786.5 475.2 787.5 c 0
 426.7 788.5 407.5 834.5 365.5 833.5 c 0
 329.5 832.5 314.2 804 305.7 783.5 c 1
 273.3 806.8 l 1
EndSplineSet
EndChar

StartChar: Adieresis
Encoding: 196 196 189
Width: 616
VWidth: 0
Flags: HMW
LayerCount: 2
Fore
SplineSet
148 235.4 m 1
 173.5 286.4 l 1
 489 286.9 l 1
 498 234.9 l 1
 148 235.4 l 1
386 600.2 m 1
 196.3 269.1 l 1
 189.2 256.9 l 1
 41.9 0 l 1
 -20.5 0 l 1
 405.5 728 l 1
 581 0 l 1
 521.1 0 l 1
 464.1 253.1 l 1
 461.5 266.2 l 1
 386 600.2 l 1
484.3 833.2 m 0
 486.3 851.6 507.8 870.4 526.5 869.4 c 0
 545.7 868.4 559.2 851.1 557.2 831.7 c 0
 555.2 813.3 533.7 794.5 515 795.5 c 0
 495.8 796.5 482.3 813.8 484.3 833.2 c 0
289.8 833.2 m 0
 291.8 851.6 313.3 870.4 332 869.4 c 0
 351.2 868.4 365.2 851.1 363.2 831.7 c 0
 361.2 813.3 339.7 794.5 321 795.5 c 0
 301.8 796.5 287.8 813.8 289.8 833.2 c 0
EndSplineSet
EndChar

StartChar: Aring
Encoding: 197 197 190
Width: 616
VWidth: 0
Flags: HMW
LayerCount: 2
Fore
SplineSet
148 235.4 m 1
 173.5 286.4 l 1
 489 286.9 l 1
 498 234.9 l 1
 148 235.4 l 1
386 600.2 m 1
 196.3 269.1 l 1
 189.2 256.9 l 1
 41.9 0 l 1
 -20.5 0 l 1
 405.5 728 l 1
 581 0 l 1
 521.1 0 l 1
 464.1 253.1 l 1
 461.5 266.2 l 1
 386 600.2 l 1
318.5 803 m 0
 326.5 858 381.5 902 434.5 901.5 c 0
 487.5 901 525.5 855.5 518 801 c 0
 510 746 455.5 702 402.5 702.5 c 0
 349.5 703 311 748.5 318.5 803 c 0
352.8 801.5 m 0
 348.3 766.5 371.9 736.1 405.5 734.6 c 0
 439.6 733.1 479.2 766.5 484.2 802.5 c 0
 488.7 837.5 464.6 867.9 431 869.4 c 0
 396.9 870.9 357.8 837.5 352.8 801.5 c 0
EndSplineSet
EndChar

StartChar: AE
Encoding: 198 198 191
Width: 906
VWidth: 0
Flags: HMW
LayerCount: 2
Fore
SplineSet
220.5 238.5 m 1
 229 290 l 1
 517.5 290 l 1
 508.5 238 l 1
 220.5 238.5 l 1
535 700 m 1
 575.8 674 l 1
 39.1 0 l 1
 -22.5 0 l 1
 535 700 l 1
478.5 0 m 1
 487.5 52 l 1
 817.7 52 l 1
 808.7 0 l 1
 478.5 0 l 1
597 648 m 1
 535 700 l 1
 928.2 700 l 1
 919.2 648 l 1
 597 648 l 1
539.5 357.8 m 1
 548.5 409.8 l 1
 859.2 409.8 l 1
 850.7 357.8 l 1
 539.5 357.8 l 1
567.5 699.5 m 1
 623.2 700 l 1
 502.2 0 l 1
 448 0 l 1
 567.5 699.5 l 1
EndSplineSet
EndChar

StartChar: Ccedilla
Encoding: 199 199 192
Width: 664
VWidth: 0
Flags: HMW
LayerCount: 2
Fore
SplineSet
132.9 350 m 0
 109.4 194.1 191.7 48.8 353.5 47.3 c 0
 449 46.3 527.2 86.3 590 141.8 c 1
 578.5 68.5 l 1
 513 19.5 442 -9.6 348 -9.1 c 0
 152.5 -8.1 47 163 74.5 350 c 0
 105 547 268 708.1 466.5 709.1 c 0
 555.5 709.6 618 684 674 631 c 1
 662 557.9 l 1
 615.6 619.7 547.5 653.2 461 653.2 c 0
 296.9 652.7 159.9 516 132.9 350 c 0
344.3 34 m 1
 385.7 34 l 1
 309.1 -62.3 l 1
 320.2 -57.1 329.3 -52.5 342.3 -53 c 0
 377.8 -56 407 -85 402 -128 c 0
 395 -184.5 337.3 -220.5 283.8 -220.5 c 0
 248.8 -220.5 226.5 -207 201.5 -182 c 1
 227.1 -156.8 l 1
 245.9 -173.4 260.9 -184.3 286.8 -184.3 c 0
 322.4 -184.3 360.2 -160.9 364.7 -126.5 c 0
 368.2 -98 348.6 -80.9 320.6 -79.9 c 0
 299.6 -78.4 272.4 -88.1 250.5 -100 c 1
 344.3 34 l 1
EndSplineSet
EndChar

StartChar: Egrave
Encoding: 200 200 193
Width: 517
VWidth: 0
Flags: HMW
LayerCount: 2
Fore
SplineSet
82.5 0 m 1
 91 52 l 1
 429 52 l 1
 420.5 0 l 1
 82.5 0 l 1
193.5 648.5 m 1
 202 700 l 1
 539.5 700 l 1
 531 648 l 1
 193.5 648.5 l 1
143.5 357.8 m 1
 152.5 409.8 l 1
 470.5 409.8 l 1
 462 357.8 l 1
 143.5 357.8 l 1
173 699.5 m 1
 228.7 700 l 1
 108.2 0 l 1
 54.5 0 l 1
 173 699.5 l 1
257.3 922.5 m 1
 307.9 949.1 l 1
 435.9 788.6 l 1
 406.1 769.6 l 1
 257.3 922.5 l 1
EndSplineSet
EndChar

StartChar: Eacute
Encoding: 201 201 194
Width: 517
VWidth: 0
Flags: HMW
LayerCount: 2
Fore
SplineSet
82.5 0 m 1
 91 52 l 1
 429 52 l 1
 420.5 0 l 1
 82.5 0 l 1
193.5 648.5 m 1
 202 700 l 1
 539.5 700 l 1
 531 648 l 1
 193.5 648.5 l 1
143.5 357.8 m 1
 152.5 409.8 l 1
 470.5 409.8 l 1
 462 357.8 l 1
 143.5 357.8 l 1
173 699.5 m 1
 228.7 700 l 1
 108.2 0 l 1
 54.5 0 l 1
 173 699.5 l 1
531.2 920 m 1
 332.9 770.1 l 1
 306.6 790.6 l 1
 487.6 948.6 l 1
 531.2 920 l 1
EndSplineSet
EndChar

StartChar: Ecircumflex
Encoding: 202 202 195
Width: 517
VWidth: 0
Flags: HMW
LayerCount: 2
Fore
SplineSet
82.5 0 m 1
 91 52 l 1
 429 52 l 1
 420.5 0 l 1
 82.5 0 l 1
193.5 648.5 m 1
 202 700 l 1
 539.5 700 l 1
 531 648 l 1
 193.5 648.5 l 1
143.5 357.8 m 1
 152.5 409.8 l 1
 470.5 409.8 l 1
 462 357.8 l 1
 143.5 357.8 l 1
173 699.5 m 1
 228.7 700 l 1
 108.2 0 l 1
 54.5 0 l 1
 173 699.5 l 1
394.5 879.6 m 1
 251.4 770.1 l 1
 222.5 797.5 l 1
 401 936 l 1
 534.5 795.5 l 1
 499.1 769.6 l 1
 394.5 879.6 l 1
EndSplineSet
EndChar

StartChar: Edieresis
Encoding: 203 203 196
Width: 517
VWidth: 0
Flags: HMW
LayerCount: 2
Fore
SplineSet
82.5 0 m 1
 91 52 l 1
 429 52 l 1
 420.5 0 l 1
 82.5 0 l 1
193.5 648.5 m 1
 202 700 l 1
 539.5 700 l 1
 531 648 l 1
 193.5 648.5 l 1
143.5 357.8 m 1
 152.5 409.8 l 1
 470.5 409.8 l 1
 462 357.8 l 1
 143.5 357.8 l 1
173 699.5 m 1
 228.7 700 l 1
 108.2 0 l 1
 54.5 0 l 1
 173 699.5 l 1
444.3 827.3 m 0
 446.3 845.7 467.8 864.5 486.5 863.5 c 0
 505.7 862.5 519.7 845.2 517.7 825.8 c 0
 515.7 807.4 494.2 788.6 475.5 789.6 c 0
 456.3 790.6 442.3 807.9 444.3 827.3 c 0
249.8 827.3 m 0
 251.8 845.7 273.3 864.5 292 863.5 c 0
 311.2 862.5 325.7 845.2 323.7 825.8 c 0
 321.7 807.4 300.2 788.6 281.5 789.6 c 0
 262.3 790.6 247.8 807.9 249.8 827.3 c 0
EndSplineSet
EndChar

StartChar: Igrave
Encoding: 204 204 197
Width: 212
VWidth: 0
Flags: HMW
LayerCount: 2
Fore
SplineSet
171.5 699.5 m 1
 226.5 700 l 1
 105.5 0 l 1
 52.5 0 l 1
 171.5 699.5 l 1
99.4 922.5 m 1
 150.8 949.1 l 1
 278.3 788.6 l 1
 247.7 769.6 l 1
 99.4 922.5 l 1
EndSplineSet
EndChar

StartChar: Iacute
Encoding: 205 205 198
Width: 212
VWidth: 0
Flags: HMW
LayerCount: 2
Fore
SplineSet
171.5 699.5 m 1
 226.5 700 l 1
 105.5 0 l 1
 52.5 0 l 1
 171.5 699.5 l 1
372.8 920 m 1
 175 770.1 l 1
 149.5 790.6 l 1
 330 948.6 l 1
 372.8 920 l 1
EndSplineSet
EndChar

StartChar: Icircumflex
Encoding: 206 206 199
Width: 212
VWidth: 0
Flags: HMW
LayerCount: 2
Fore
SplineSet
171.5 699.5 m 1
 226.5 700 l 1
 105.5 0 l 1
 52.5 0 l 1
 171.5 699.5 l 1
231.1 879.6 m 1
 87.5 770.1 l 1
 58.6 797.5 l 1
 237.1 936 l 1
 370.6 795.5 l 1
 335.2 769.6 l 1
 231.1 879.6 l 1
EndSplineSet
EndChar

StartChar: Idieresis
Encoding: 207 207 200
Width: 212
VWidth: 0
Flags: HMW
LayerCount: 2
Fore
SplineSet
171.5 699.5 m 1
 226.5 700 l 1
 105.5 0 l 1
 52.5 0 l 1
 171.5 699.5 l 1
267.2 815.3 m 0
 269.2 833.2 290.4 852.5 309.1 851.5 c 0
 328.3 850.5 342.6 833.2 340.6 813.8 c 0
 338.6 795.4 316.3 776.6 297.6 777.6 c 0
 277.9 778.6 265.2 796.4 267.2 815.3 c 0
96.2 815.3 m 0
 98.2 833.2 119.4 852.5 138.1 851.5 c 0
 157.3 850.5 171.6 833.2 169.6 813.8 c 0
 167.6 795.4 145.8 776.6 127.1 777.6 c 0
 107.4 778.6 94.2 796.4 96.2 815.3 c 0
EndSplineSet
EndChar

StartChar: Ntilde
Encoding: 209 209 201
Width: 709
VWidth: 0
Flags: HMW
LayerCount: 2
Fore
SplineSet
674.5 700 m 1
 729 700 l 1
 604 -26.5 l 1
 193.5 581.6485 l 1
 92.5 0 l 1
 37.5 0 l 1
 162.5 726.5 l 1
 573.5 116.4345 l 1
 674.5 700 l 1
303.4 784.8 m 1
 318.9 821.3 354 856.5 399.5 855.5 c 0
 449.5 855 465.5 808 512 809.5 c 0
 537.5 810.5 556.5 831.5 575 856.5 c 1
 602.6 829 l 1
 581.6 797 547.1 764.5 505.1 765.5 c 0
 458.6 766.5 437.6 812 395.6 811.5 c 0
 359.6 811 344.1 782 335.6 761.5 c 1
 303.4 784.8 l 1
EndSplineSet
EndChar

StartChar: Eth
Encoding: 208 208 202
Width: 659
VWidth: 0
Flags: HMW
LayerCount: 2
Fore
SplineSet
33 324.5 m 1
 41.5 373 l 1
 333.5 373 l 1
 325.5 324 l 1
 33 324.5 l 1
173 699.5 m 1
 228.7 700 l 1
 108.2 0 l 1
 54.5 0 l 1
 173 699.5 l 1
241 0 m 1
 83.1 0 l 1
 92.6 55.2 l 1
 246.5 55.2 l 1
 420 58.2 550.3 180.5 578.3 350 c 0
 603.8 511 521 641.3 350.5 644.8 c 1
 193.1 644.8 l 1
 202.6 700 l 1
 356 700 l 1
 556.5 696.5 661.5 540.5 633 350 c 0
 602 151 445 3 241 0 c 1
EndSplineSet
EndChar

StartChar: Ograve
Encoding: 210 210 203
Width: 760
VWidth: 0
Flags: HMW
LayerCount: 2
Fore
SplineSet
132.7 350 m 0
 108.7 193.9 190.3 47.6 358.9 46.6 c 0
 529.5 45.6 666.1 185.4 693.1 350 c 0
 717.1 506.1 635.5 652.4 466.9 653.4 c 0
 296.3 654.4 159.7 514.6 132.7 350 c 0
74.5 350 m 0
 105 546 269.9 709.6 471.9 709.1 c 0
 671.4 708.6 778.8 536.5 751.3 350 c 0
 720.8 154 555.9 -9.6 353.9 -9.1 c 0
 154.4 -8.6 47 163.5 74.5 350 c 0
387.4 922.5 m 1
 438.5 949.1 l 1
 566.5 788.6 l 1
 535.3 769.6 l 1
 387.4 922.5 l 1
EndSplineSet
EndChar

StartChar: Oacute
Encoding: 211 211 204
Width: 760
VWidth: 0
Flags: HMW
LayerCount: 2
Fore
SplineSet
132.7 350 m 0
 108.7 193.9 190.3 47.6 358.9 46.6 c 0
 529.5 45.6 666.1 185.4 693.1 350 c 0
 717.1 506.1 635.5 652.4 466.9 653.4 c 0
 296.3 654.4 159.7 514.6 132.7 350 c 0
74.5 350 m 0
 105 546 269.9 709.6 471.9 709.1 c 0
 671.4 708.6 778.8 536.5 751.3 350 c 0
 720.8 154 555.9 -9.6 353.9 -9.1 c 0
 154.4 -8.6 47 163.5 74.5 350 c 0
633.4 920 m 1
 436.5 770.1 l 1
 409.3 790.6 l 1
 589.3 948.6 l 1
 633.4 920 l 1
EndSplineSet
EndChar

StartChar: Ocircumflex
Encoding: 212 212 205
Width: 760
VWidth: 0
Flags: HMW
LayerCount: 2
Fore
SplineSet
132.7 350 m 0
 108.7 193.9 190.3 47.6 358.9 46.6 c 0
 529.5 45.6 666.1 185.4 693.1 350 c 0
 717.1 506.1 635.5 652.4 466.9 653.4 c 0
 296.3 654.4 159.7 514.6 132.7 350 c 0
74.5 350 m 0
 105 546 269.9 709.6 471.9 709.1 c 0
 671.4 708.6 778.8 536.5 751.3 350 c 0
 720.8 154 555.9 -9.6 353.9 -9.1 c 0
 154.4 -8.6 47 163.5 74.5 350 c 0
504.9 879.6 m 1
 361.8 770.1 l 1
 332.9 797.5 l 1
 511.9 936 l 1
 644.9 795.5 l 1
 609.5 769.6 l 1
 504.9 879.6 l 1
EndSplineSet
EndChar

StartChar: Otilde
Encoding: 213 213 206
Width: 760
VWidth: 0
Flags: HMW
LayerCount: 2
Fore
SplineSet
132.7 350 m 0
 108.7 193.9 190.3 47.6 358.9 46.6 c 0
 529.5 45.6 666.1 185.4 693.1 350 c 0
 717.1 506.1 635.5 652.4 466.9 653.4 c 0
 296.3 654.4 159.7 514.6 132.7 350 c 0
74.5 350 m 0
 105 546 269.9 709.6 471.9 709.1 c 0
 671.4 708.6 778.8 536.5 751.3 350 c 0
 720.8 154 555.9 -9.6 353.9 -9.1 c 0
 154.4 -8.6 47 163.5 74.5 350 c 0
344.4 800.9 m 1
 348.4 838.4 401.5 872.1 440 871.6 c 0
 490 871.1 505.5 824.1 552.5 825.6 c 0
 578 826.6 597.5 847.6 616 872.6 c 1
 642.9 845.1 l 1
 621.9 813.1 587.9 780.6 545.9 781.6 c 0
 499.4 782.6 478.6 828.1 436.6 827.6 c 0
 400.1 827.1 384.4 798.1 375.9 777.6 c 1
 344.4 800.9 l 1
EndSplineSet
EndChar

StartChar: Odieresis
Encoding: 214 214 207
Width: 760
VWidth: 0
Flags: HMW
LayerCount: 2
Fore
SplineSet
132.7 350 m 0
 108.7 193.9 190.3 47.6 358.9 46.6 c 0
 529.5 45.6 666.1 185.4 693.1 350 c 0
 717.1 506.1 635.5 652.4 466.9 653.4 c 0
 296.3 654.4 159.7 514.6 132.7 350 c 0
74.5 350 m 0
 105 546 269.9 709.6 471.9 709.1 c 0
 671.4 708.6 778.8 536.5 751.3 350 c 0
 720.8 154 555.9 -9.6 353.9 -9.1 c 0
 154.4 -8.6 47 163.5 74.5 350 c 0
557.2 819.3 m 0
 559.2 837.7 580.7 856.5 599.4 855.5 c 0
 618.6 854.5 632.6 837.2 630.6 817.8 c 0
 628.6 799.4 607.1 780.6 588.4 781.6 c 0
 569.2 782.6 555.2 799.9 557.2 819.3 c 0
355.2 819.3 m 0
 357.2 837.7 378.7 856.5 397.4 855.5 c 0
 416.6 854.5 430.6 837.2 428.6 817.8 c 0
 426.6 799.4 405.1 780.6 386.4 781.6 c 0
 367.2 782.6 353.2 799.9 355.2 819.3 c 0
EndSplineSet
EndChar

StartChar: Ugrave
Encoding: 217 217 208
Width: 587
VWidth: 0
Flags: HMW
LayerCount: 2
Fore
SplineSet
169 700 m 1
 223.7 700 l 1
 141.7 226 l 2
 128.7 128.5 165 43.7 272.5 42.7 c 0
 380.5 41.7 450.3 123.5 468.3 226 c 2
 550.3 700 l 1
 605 700 l 1
 524 226 l 2
 502 95.5 407.5 -9.5 267.5 -9.5 c 0
 129 -9.5 71 100 88 226 c 1
 169 700 l 1
295.3 922.5 m 1
 345.9 949.1 l 1
 473.9 788.6 l 1
 443.6 769.6 l 1
 295.3 922.5 l 1
EndSplineSet
EndChar

StartChar: Uacute
Encoding: 218 218 209
Width: 587
VWidth: 0
Flags: HMW
LayerCount: 2
Fore
SplineSet
169 700 m 1
 223.7 700 l 1
 141.7 226 l 2
 128.7 128.5 165 43.7 272.5 42.7 c 0
 380.5 41.7 450.3 123.5 468.3 226 c 2
 550.3 700 l 1
 605 700 l 1
 524 226 l 2
 502 95.5 407.5 -9.5 267.5 -9.5 c 0
 129 -9.5 71 100 88 226 c 1
 169 700 l 1
553.7 920 m 1
 355.4 770.1 l 1
 329.1 790.6 l 1
 509.6 948.6 l 1
 553.7 920 l 1
EndSplineSet
EndChar

StartChar: Ucircumflex
Encoding: 219 219 210
Width: 587
VWidth: 0
Flags: HMW
LayerCount: 2
Fore
SplineSet
169 700 m 1
 223.7 700 l 1
 141.7 226 l 2
 128.7 128.5 165 43.7 272.5 42.7 c 0
 380.5 41.7 450.3 123.5 468.3 226 c 2
 550.3 700 l 1
 605 700 l 1
 524 226 l 2
 502 95.5 407.5 -9.5 267.5 -9.5 c 0
 129 -9.5 71 100 88 226 c 1
 169 700 l 1
419 879.6 m 1
 275.4 770.1 l 1
 247 797.5 l 1
 425.5 936 l 1
 559 795.5 l 1
 523.1 769.6 l 1
 419 879.6 l 1
EndSplineSet
EndChar

StartChar: Udieresis
Encoding: 220 220 211
Width: 587
VWidth: 0
Flags: HMW
LayerCount: 2
Fore
SplineSet
169 700 m 1
 223.7 700 l 1
 141.7 226 l 2
 128.7 128.5 165 43.7 272.5 42.7 c 0
 380.5 41.7 450.3 123.5 468.3 226 c 2
 550.3 700 l 1
 605 700 l 1
 524 226 l 2
 502 95.5 407.5 -9.5 267.5 -9.5 c 0
 129 -9.5 71 100 88 226 c 1
 169 700 l 1
461.3 807.3 m 0
 463.3 825.7 484.8 844.5 503.5 843.5 c 0
 522.7 842.5 536.7 825.2 534.7 805.8 c 0
 532.7 787.4 511.2 768.6 492.5 769.6 c 0
 473.3 770.6 459.3 787.9 461.3 807.3 c 0
274.8 807.3 m 0
 276.8 825.7 298.3 844.5 317 843.5 c 0
 336.2 842.5 350.2 825.2 348.2 805.8 c 0
 346.2 787.4 324.7 768.6 306 769.6 c 0
 286.8 770.6 272.8 787.9 274.8 807.3 c 0
EndSplineSet
EndChar

StartChar: Yacute
Encoding: 221 221 212
Width: 523
VWidth: 0
Flags: HMW
LayerCount: 2
Fore
SplineSet
528.3 920 m 1
 330.7 770.1 l 1
 305 790.6 l 1
 485 948.6 l 1
 528.3 920 l 1
545.6 699.5 m 1
 608.7 699.5 l 1
 308.7 286.5 l 1
 259.7 0 l 1
 204.5 0 l 1
 255.5 289 l 1
 101.5 700 l 1
 161.1 700 l 1
 289.1 339 l 1
 545.6 699.5 l 1
EndSplineSet
EndChar

StartChar: agrave
Encoding: 224 224 213
Width: 541
VWidth: 0
Flags: HMW
LayerCount: 2
Fore
SplineSet
473.2 459.5 m 1
 522.7 460 l 1
 442.7 0 l 1
 395.2 0 l 1
 473.2 459.5 l 1
49 230 m 0
 68.5 364.1 176 471 304.5 470 c 0
 428.6 469 471.5 346.5 455.5 230 c 0
 437.5 105.5 350.1 -9 226.5 -9.5 c 0
 98 -10 31.5 102.4 49 230 c 0
101.3 230 m 0
 86.8 128.5 135.9 39 237.6 39.5 c 0
 331.4 40 415.7 130.5 431.7 230 c 0
 444.7 323 398.9 418.5 306.6 420.5 c 0
 204.4 422.5 117.8 337 101.3 230 c 0
218.3 687.4 m 1
 268.9 714 l 1
 396.4 553.5 l 1
 366.6 534 l 1
 218.3 687.4 l 1
EndSplineSet
Substitution2: "alt a" agrave.alt
EndChar

StartChar: aacute
Encoding: 225 225 214
Width: 541
VWidth: 0
Flags: HMW
LayerCount: 2
Fore
SplineSet
473.2 459.5 m 1
 522.7 460 l 1
 442.7 0.5 l 1
 395.2 0 l 1
 473.2 459.5 l 1
49 230 m 0
 68.5 364.1 176 471 304.5 470 c 0
 428.6 469 471.5 346.5 455.5 230 c 0
 437.5 105.5 350.1 -9 226.5 -9.5 c 0
 98 -10 31.5 102.4 49 230 c 0
101.3 230 m 0
 86.8 128.5 135.9 39 237.6 39.5 c 0
 331.4 40 415.7 130.5 431.7 230 c 0
 444.7 323 398.9 418.5 306.6 420.5 c 0
 204.4 422.5 117.8 337 101.3 230 c 0
457.2 684.9 m 1
 258.9 535 l 1
 232.6 555.5 l 1
 413.1 713.5 l 1
 457.2 684.9 l 1
EndSplineSet
Substitution2: "alt a" aacute.alt
EndChar

StartChar: acircumflex
Encoding: 226 226 215
Width: 541
VWidth: 0
Flags: HMW
LayerCount: 2
Fore
SplineSet
473.2 459.5 m 1
 522.7 460 l 1
 442.7 0 l 1
 395.2 0 l 1
 473.2 459.5 l 1
49 230 m 0
 68.5 364.1 176 471 304.5 470 c 0
 428.6 469 471.5 346.5 455.5 230 c 0
 437.5 105.5 350.1 -9 226.5 -9.5 c 0
 98 -10 31.5 102.4 49 230 c 0
101.3 230 m 0
 86.8 128.5 135.9 39 237.6 39.5 c 0
 331.4 40 415.7 130.5 431.7 230 c 0
 444.7 323 398.9 418.5 306.6 420.5 c 0
 204.4 422.5 117.8 337 101.3 230 c 0
350.5 648.5 m 1
 207.4 538.5 l 1
 178 565.9 l 1
 357 704.4 l 1
 490 564.4 l 1
 454.6 538.5 l 1
 350.5 648.5 l 1
EndSplineSet
Substitution2: "alt a" acircumflex.alt
EndChar

StartChar: atilde
Encoding: 227 227 216
Width: 541
VWidth: 0
Flags: HMW
LayerCount: 2
Fore
SplineSet
473.2 459.5 m 1
 522.7 460 l 1
 442.7 0 l 1
 395.2 0 l 1
 473.2 459.5 l 1
49 230 m 0
 68.5 364.1 176 471 304.5 470 c 0
 428.6 469 471.5 346.5 455.5 230 c 0
 437.5 105.5 350.1 -9 226.5 -9.5 c 0
 98 -10 31.5 102.4 49 230 c 0
101.3 230 m 0
 86.8 128.5 135.9 39 237.6 39.5 c 0
 331.4 40 415.7 130.5 431.7 230 c 0
 444.7 323 398.9 418.5 306.6 420.5 c 0
 204.4 422.5 117.8 337 101.3 230 c 0
187.8 561.8 m 1
 197.3 599.3 243.9 632.5 283.9 632.5 c 0
 333.9 632.5 349.4 585 396.4 586.5 c 0
 421.9 587.5 440.9 608.5 459.4 633.5 c 1
 487.2 606 l 1
 466.2 574 431.7 541.5 389.7 542.5 c 0
 343.2 543.5 322 589.5 280 588.5 c 0
 244 587.5 228.7 559 220.2 538.5 c 1
 187.8 561.8 l 1
EndSplineSet
Substitution2: "alt a" atilde.alt
EndChar

StartChar: adieresis
Encoding: 228 228 217
Width: 541
VWidth: 0
Flags: HMW
LayerCount: 2
Fore
SplineSet
473.2 459.5 m 1
 522.7 460 l 1
 442.7 0 l 1
 395.2 0 l 1
 473.2 459.5 l 1
49 230 m 0
 68.5 364.1 176 471 304.5 470 c 0
 428.6 469 471.5 346.5 455.5 230 c 0
 437.5 105.5 350.1 -9 226.5 -9.5 c 0
 98 -10 31.5 102.4 49 230 c 0
101.3 230 m 0
 86.8 128.5 135.9 39 237.6 39.5 c 0
 331.4 40 415.7 130.5 431.7 230 c 0
 444.7 323 398.9 418.5 306.6 420.5 c 0
 204.4 422.5 117.8 337 101.3 230 c 0
402.3 588.2 m 0
 404.3 606.6 425.8 625.4 444.5 624.4 c 0
 463.7 623.4 477.7 606.1 475.7 586.7 c 0
 473.7 568.3 451.7 549.5 433 550.5 c 0
 413.8 551.5 400.3 568.8 402.3 588.2 c 0
208.3 588.2 m 0
 210.3 606.6 231.8 625.4 250.5 624.4 c 0
 269.7 623.4 283.2 606.1 281.2 586.7 c 0
 279.2 568.3 257.7 549.5 239 550.5 c 0
 219.8 551.5 206.3 568.8 208.3 588.2 c 0
EndSplineSet
Substitution2: "alt a" adieresis.alt
EndChar

StartChar: aring
Encoding: 229 229 218
Width: 541
VWidth: 0
Flags: HMW
LayerCount: 2
Fore
SplineSet
473.2 459.5 m 1
 522.7 460 l 1
 442.7 0 l 1
 395.2 0 l 1
 473.2 459.5 l 1
49 230 m 0
 68.5 364.1 176 471 304.5 470 c 0
 428.6 469 471.5 346.5 455.5 230 c 0
 437.5 105.5 350.1 -9 226.5 -9.5 c 0
 98 -10 31.5 102.4 49 230 c 0
101.3 230 m 0
 86.8 128.5 135.9 39 237.6 39.5 c 0
 331.4 40 415.7 130.5 431.7 230 c 0
 444.7 323 398.9 418.5 306.6 420.5 c 0
 204.4 422.5 117.8 337 101.3 230 c 0
230 630 m 0
 238 685 292 729.5 345 729 c 0
 398 728.5 436.5 683.5 429 629 c 0
 421 574 366.5 529.5 313.5 530 c 0
 260.5 530.5 222.5 575.5 230 630 c 0
263.8 629.5 m 0
 259.3 594.5 282.9 563.1 316.5 562.6 c 0
 350.6 562.1 390.2 594 395.2 630 c 0
 399.7 665 376.1 696.4 342.5 696.9 c 0
 307.9 697.4 268.8 665.5 263.8 629.5 c 0
EndSplineSet
Substitution2: "alt a" aring.alt
EndChar

StartChar: germandbls
Encoding: 223 223 219
Width: 537
VWidth: 0
Flags: HMW
LayerCount: 2
Fore
SplineSet
235 39 m 1
 340 47 436.2 119 455.2 231 c 0
 474.2 341.9 387.5 413.1 281.5 420.1 c 1
 287 455 l 1
 428.5 449.5 528 359 506 224.5 c 0
 483.5 86.5 364 -3 227 -9.5 c 1
 235 39 l 1
283.5 433.5 m 1
 289 469.1 l 1
 388 473.6 462.7 515.5 479.2 600 c 0
 492.7 675.5 457 740 362.5 740.5 c 0
 284 741 218 684 205 606 c 2
 101 0 l 1
 49.5 0 l 1
 153 606.5 l 2
 171 710.5 256.5 789.5 366.5 789.5 c 0
 488.5 789.5 548.5 711 532 605.5 c 0
 511.5 489 420 437 283.5 433.5 c 1
EndSplineSet
EndChar

StartChar: ae
Encoding: 230 230 220
Width: 800
VWidth: 0
Flags: HMW
LayerCount: 2
Fore
SplineSet
79.3 133.9 m 0
 69.3 76.9 106.2 37.8 173.7 37.3 c 0
 259.3 36.3 324.5 95.4 341 173.9 c 1
 366.9 143.2 l 1
 348.4 57.2 267.5 -9.5 169.7 -9.5 c 0
 74.3 -9.5 14 45.6 27 128.4 c 0
 42 227.3 135.3 284 238.3 283.5 c 0
 305.3 283.5 348.5 254.7 372 228.5 c 1
 366.5 197.4 l 1
 332.4 225.1 291.5 243.2 237.5 242.7 c 0
 157.8 242.2 91.3 202.9 79.3 133.9 c 0
134.1 369.6 m 1
 114 410.5 l 1
 157.1 439.3 214.5 470.5 288 469.5 c 0
 378 468 416.4 409.5 405.9 330 c 1
 374.9 142.8 l 1
 336.5 143.3 l 1
 367 320 l 1
 374 373.9 345.4 421.5 282.9 423 c 0
 220.4 425 169.7 393 134.1 369.6 c 1
386.7 217.6 m 1
 393.7 261.5 l 1
 767.5 262 l 1
 774.2 217.1 l 1
 386.7 217.6 l 1
726.7 250 m 1
 739.7 340.6 699.2 422 605.7 423.5 c 0
 503.2 425 426.9 343.7 406.9 250 c 1
 402.8 232 l 1
 389.8 132.5 426.5 41 529.5 39.5 c 0
 611 38.5 667 82.3 711.3 133.5 c 1
 749.9 105.5 l 1
 693.4 39 626.5 -11 519.5 -9.5 c 0
 396 -7.5 335.5 109.5 356 230 c 0
 359.5 247 368.4 263 374.4 279 c 0
 412.4 383.5 495.3 470.5 617 469.5 c 0
 728 468.5 794.9 363.8 779.9 241.8 c 0
 778.9 233.8 777.2 225.6 775.2 217.6 c 1
 723.2 230.5 l 1
 726.7 250 l 1
EndSplineSet
EndChar

StartChar: ccedilla
Encoding: 231 231 221
Width: 467
VWidth: 0
Flags: HMW
LayerCount: 2
Fore
SplineSet
96.3 230 m 0
 80.8 131.4 135.5 40.5 240 39.5 c 0
 310 39 371.5 75.1 407.5 112.9 c 1
 397.5 48.3 l 1
 358.5 15.4 299 -9.5 235 -9.5 c 0
 101.6 -9 26 103.5 44.5 230 c 0
 64.5 362.5 178.1 469.5 313.5 469.5 c 0
 373.5 469.5 426.5 446.6 458.5 411.2 c 1
 448.5 346.6 l 1
 426 389.4 374 421 309 420.5 c 0
 203 420 113.8 334.6 96.3 230 c 0
231.8 33.6 m 1
 272.7 33.6 l 1
 196.6 -63.2 l 1
 207.7 -58 216.8 -53.4 229.8 -53.9 c 0
 265.3 -56.9 294.5 -85.4 289.5 -128.4 c 0
 282.5 -184.9 224.3 -221.4 170.8 -221.4 c 0
 135.8 -221.4 113.5 -207.9 88.5 -182.9 c 1
 114.6 -157.7 l 1
 133.4 -174.3 148.4 -185.2 174.3 -185.2 c 0
 209.9 -185.2 247.7 -161.8 252.2 -127.4 c 0
 255.7 -98.9 235.6 -81.8 207.6 -80.8 c 0
 186.6 -79.3 159.9 -89 138 -100.9 c 1
 231.8 33.6 l 1
EndSplineSet
EndChar

StartChar: egrave
Encoding: 232 232 222
Width: 494
VWidth: 0
Flags: HMW
LayerCount: 2
Fore
SplineSet
86.7 217.1 m 1
 93.2 262 l 1
 424.1 262 l 1
 435.5 344.2 393.7 422.5 301.9 423.5 c 0
 206.5 424.5 128.4 346.5 111.4 249.4 c 1
 107.3 230.9 l 1
 95.3 131.7 136.1 40 237.4 39.5 c 0
 317.1 39 369.5 85.2 410.3 134 c 1
 449.4 105.5 l 1
 398.1 43.9 334.6 -10 227.4 -9.5 c 0
 101.9 -8.5 40.5 108.4 55.5 230.9 c 0
 58.5 251.9 63.4 271.7 70.7 290.8 c 0
 105.3 390.7 194.6 470 305.4 469.5 c 0
 428.9 469 491.4 363.5 477.4 242 c 0
 476.4 234 474.2 225.1 472.7 217.1 c 1
 86.7 217.1 l 1
177.293 685.4045 m 1
 227.393 712.0045 l 1
 357.893 551.5045 l 1
 327.693 532.5045 l 1
 177.293 685.4045 l 1
EndSplineSet
EndChar

StartChar: eacute
Encoding: 233 233 223
Width: 494
VWidth: 0
Flags: HMW
LayerCount: 2
Fore
SplineSet
86.7 217.1 m 1
 93.2 262 l 1
 424.1 262 l 1
 435.5 344.2 393.7 422.5 301.9 423.5 c 0
 206.5 424.5 128.4 346.5 111.4 249.4 c 1
 107.3 230.9 l 1
 95.3 131.7 136.1 40 237.4 39.5 c 0
 317.1 39 369.5 85.2 410.3 134 c 1
 449.4 105.5 l 1
 398.1 43.9 334.6 -10 227.4 -9.5 c 0
 101.9 -8.5 40.5 108.4 55.5 230.9 c 0
 58.5 251.9 63.4 271.7 70.7 290.8 c 0
 105.3 390.7 194.6 470 305.4 469.5 c 0
 428.9 469 491.4 363.5 477.4 242 c 0
 476.4 234 474.2 225.1 472.7 217.1 c 1
 86.7 217.1 l 1
494.293 682.9045 m 1
 298.893 532.5045 l 1
 272.193 553.0045 l 1
 449.693 711.0045 l 1
 494.293 682.9045 l 1
EndSplineSet
EndChar

StartChar: ecircumflex
Encoding: 234 234 224
Width: 494
VWidth: 0
Flags: HMW
LayerCount: 2
Fore
SplineSet
82.7 217.6 m 1
 89.7 261.5 l 1
 421.1 262 l 1
 430.5 344.2 392.2 422.5 300.4 423.5 c 0
 204.5 424.5 125.4 346.5 107.9 249.4 c 1
 103.8 230.9 l 1
 91.3 131.7 130.6 41 231.9 39.5 c 0
 311.6 38.5 365 85.2 405.8 133.5 c 1
 444.4 105.5 l 1
 392.1 43.9 328.6 -10 221.4 -9.5 c 0
 95.9 -8.5 36.5 108.9 52 230.9 c 0
 55 251.9 60.4 271.7 67.7 290.8 c 0
 103.3 390.2 193.1 470 303.9 469.5 c 0
 427.9 469 488.9 362.5 473.9 242 c 0
 472.9 234 471.2 225.6 469.2 217.6 c 1
 82.7 217.6 l 1
334.4 640.5 m 1
 191.3 530.5 l 1
 162.4 557.9 l 1
 340.9 696.4 l 1
 474.4 555.9 l 1
 439 530 l 1
 334.4 640.5 l 1
EndSplineSet
EndChar

StartChar: edieresis
Encoding: 235 235 225
Width: 494
VWidth: 0
Flags: HMW
LayerCount: 2
Fore
SplineSet
82.7 217.6 m 1
 89.7 261.5 l 1
 421.1 262 l 1
 430.5 344.2 392.2 422.5 300.4 423.5 c 0
 204.5 424.5 125.4 346.5 107.9 249.4 c 1
 103.8 230.9 l 1
 91.3 131.7 130.6 41 231.9 39.5 c 0
 311.6 38.5 365 85.2 405.8 133.5 c 1
 444.4 105.5 l 1
 392.1 43.9 328.6 -10 221.4 -9.5 c 0
 95.9 -8.5 36.5 108.9 52 230.9 c 0
 55 251.9 60.4 271.7 67.7 290.8 c 0
 103.3 390.2 193.1 470 303.9 469.5 c 0
 427.9 469 488.9 362.5 473.9 242 c 0
 472.9 234 471.2 225.6 469.2 217.6 c 1
 82.7 217.6 l 1
380.2 567.7 m 0
 382.2 586.1 403.7 605.4 422.4 604.4 c 0
 441.6 603.4 455.6 586.1 453.6 566.7 c 0
 451.6 548.3 430.1 529 411.4 530 c 0
 392.2 531 378.2 548.3 380.2 567.7 c 0
186.2 567.7 m 0
 188.2 586.1 209.7 605.4 228.4 604.4 c 0
 247.6 603.4 261.6 586.1 259.6 566.7 c 0
 257.6 548.3 236.1 529 217.4 530 c 0
 198.2 531 184.2 548.3 186.2 567.7 c 0
EndSplineSet
EndChar

StartChar: igrave
Encoding: 236 236 226
Width: 224
VWidth: 0
Flags: HMW
LayerCount: 2
Fore
SplineSet
138 459.5 m 1
 190.5 460 l 1
 110.5 0 l 1
 60 0 l 1
 138 459.5 l 1
50 695.4 m 1
 101.1 722 l 1
 228.6 561.5 l 1
 197.9 542 l 1
 50 695.4 l 1
EndSplineSet
EndChar

StartChar: dotlessi
Encoding: 305 305 227
Width: 224
VWidth: 0
Flags: HMW
LayerCount: 2
Fore
SplineSet
138 459.5 m 1
 190.5 460 l 1
 110.5 0 l 1
 60 0 l 1
 138 459.5 l 1
EndSplineSet
EndChar

StartChar: kgreenlandic
Encoding: 312 312 228
Width: 399
VWidth: 0
Flags: HMW
LayerCount: 2
Fore
SplineSet
122.5 459.5 m 1
 175 460 l 1
 95 0 l 1
 44.5 0 l 1
 122.5 459.5 l 1
363.6 459.5 m 1
 431.3 459.5 l 1
 186.4 269 l 1
 368.9 0 l 1
 306.6 0 l 1
 123.1 271.5 l 1
 363.6 459.5 l 1
EndSplineSet
EndChar

StartChar: iacute
Encoding: 237 237 229
Width: 224
VWidth: 0
Flags: HMW
LayerCount: 2
Fore
SplineSet
138 459.5 m 1
 190.5 460 l 1
 110.5 0 l 1
 60 0 l 1
 138 459.5 l 1
358 692.9 m 1
 161.1 543 l 1
 133.9 563.5 l 1
 314.4 721.5 l 1
 358 692.9 l 1
EndSplineSet
EndChar

StartChar: icircumflex
Encoding: 238 238 230
Width: 224
VWidth: 0
Flags: HMW
LayerCount: 2
Fore
SplineSet
138 459.5 m 1
 190.5 460 l 1
 110.5 0 l 1
 60 0 l 1
 138 459.5 l 1
197.5 646.5 m 1
 54.4 536.5 l 1
 25.5 563.9 l 1
 204 702.4 l 1
 337.5 562.4 l 1
 302.1 536.5 l 1
 197.5 646.5 l 1
EndSplineSet
EndChar

StartChar: idieresis
Encoding: 239 239 231
Width: 224
VWidth: 0
Flags: HMW
LayerCount: 2
Fore
SplineSet
138 459.5 m 1
 190.5 460 l 1
 110.5 0 l 1
 60 0 l 1
 138 459.5 l 1
237.8 586.2 m 0
 239.8 604.6 261.3 623.4 280 622.4 c 0
 299.2 621.4 313.2 604.1 311.2 584.7 c 0
 309.2 566.3 287.7 547.5 269 548.5 c 0
 249.8 549.5 235.8 566.8 237.8 586.2 c 0
59.3 586.2 m 0
 61.3 604.6 82.8 623.4 101.5 622.4 c 0
 120.7 621.4 134.7 604.1 132.7 584.7 c 0
 130.7 566.3 109.2 547.5 90.5 548.5 c 0
 71.3 549.5 57.3 566.8 59.3 586.2 c 0
EndSplineSet
EndChar

StartChar: ntilde
Encoding: 241 241 232
Width: 489
VWidth: 0
Flags: HMW
LayerCount: 2
Fore
SplineSet
179.5 460 m 1
 100 0 l 1
 48 0 l 1
 128 460 l 1
 179.5 460 l 1
386.5 296 m 2
 395 362.5 379 419 305 420.5 c 0
 224.3 422 165.5 352.3 147.5 281 c 1
 124.2 281 l 1
 144.2 379.5 219.5 469.5 321 469.5 c 0
 418 469.5 450 394 438.5 302 c 1
 386 0 l 1
 335.5 0 l 1
 386.5 296 l 2
168.3 561.8 m 1
 183.8 598.3 218.9 633.5 264.4 632.5 c 0
 314.4 632 330.4 585 376.9 586.5 c 0
 402.4 587.5 421.4 608.5 439.9 633.5 c 1
 467.5 606 l 1
 446.5 574 412 541.5 370 542.5 c 0
 323.5 543.5 302.5 589 260.5 588.5 c 0
 224.5 588 209 559 200.5 538.5 c 1
 168.3 561.8 l 1
EndSplineSet
EndChar

StartChar: ograve
Encoding: 242 242 233
Width: 533
VWidth: 0
Flags: HMW
LayerCount: 2
Fore
SplineSet
49 230 m 0
 69 361.5 183.1 469.5 318 469.5 c 0
 451.4 469.5 527.5 356.5 509 230 c 0
 489 98.5 374.9 -9.5 240 -9.5 c 0
 106.6 -9.5 30.5 103.5 49 230 c 0
101.3 230 m 0
 85.8 131.4 140 40 244.5 39.5 c 0
 350.5 39 439.7 125.9 456.7 230 c 0
 472.2 328.6 418 420 313.5 420.5 c 0
 207.5 421 118.3 334.1 101.3 230 c 0
211.8 695.4 m 1
 262.4 722 l 1
 390.4 561.5 l 1
 360.1 542 l 1
 211.8 695.4 l 1
EndSplineSet
EndChar

StartChar: oacute
Encoding: 243 243 234
Width: 533
VWidth: 0
Flags: HMW
LayerCount: 2
Fore
SplineSet
49 230 m 0
 69 361.5 183.1 469.5 318 469.5 c 0
 451.4 469.5 527.5 356.5 509 230 c 0
 489 98.5 374.9 -9.5 240 -9.5 c 0
 106.6 -9.5 30.5 103.5 49 230 c 0
101.3 230 m 0
 85.8 131.4 140 40 244.5 39.5 c 0
 350.5 39 439.7 125.9 456.7 230 c 0
 472.2 328.6 418 420 313.5 420.5 c 0
 207.5 421 118.3 334.1 101.3 230 c 0
504.7 692.9 m 1
 306.9 543 l 1
 280.6 563.5 l 1
 461.1 721.5 l 1
 504.7 692.9 l 1
EndSplineSet
EndChar

StartChar: ocircumflex
Encoding: 244 244 235
Width: 533
VWidth: 0
Flags: HMW
LayerCount: 2
Fore
SplineSet
49 230 m 0
 69 361.5 183.1 469.5 318 469.5 c 0
 451.4 469.5 527.5 356.5 509 230 c 0
 489 98.5 374.9 -9.5 240 -9.5 c 0
 106.6 -9.5 30.5 103.5 49 230 c 0
101.3 230 m 0
 85.8 131.4 140 40 244.5 39.5 c 0
 350.5 39 439.7 125.9 456.7 230 c 0
 472.2 328.6 418 420 313.5 420.5 c 0
 207.5 421 118.3 334.1 101.3 230 c 0
354.5 660.5 m 1
 210.9 550.5 l 1
 182.5 577.9 l 1
 361 716.4 l 1
 494 576.4 l 1
 458.6 550.5 l 1
 354.5 660.5 l 1
EndSplineSet
EndChar

StartChar: otilde
Encoding: 245 245 236
Width: 533
VWidth: 0
Flags: HMW
LayerCount: 2
Fore
SplineSet
49 230 m 0
 69 361.5 183.1 469.5 318 469.5 c 0
 451.4 469.5 527.5 356.5 509 230 c 0
 489 98.5 374.9 -9.5 240 -9.5 c 0
 106.6 -9.5 30.5 103.5 49 230 c 0
101.3 230 m 0
 85.8 131.4 140 40 244.5 39.5 c 0
 350.5 39 439.7 125.9 456.7 230 c 0
 472.2 328.6 418 420 313.5 420.5 c 0
 207.5 421 118.3 334.1 101.3 230 c 0
189.3 561.8 m 1
 186.8 599.3 251.4 633 285.4 632.5 c 0
 335.4 632 350.9 585 397.9 586.5 c 0
 423.4 587.5 442.9 608.5 461.4 633.5 c 1
 489.2 606 l 1
 468.2 574 433.7 541.5 391.7 542.5 c 0
 345.2 543.5 324 589.5 282 588.5 c 0
 246 587.5 230.7 559 222.2 538.5 c 1
 189.3 561.8 l 1
EndSplineSet
EndChar

StartChar: odieresis
Encoding: 246 246 237
Width: 533
VWidth: 0
Flags: HMW
LayerCount: 2
Fore
SplineSet
49 230 m 0
 69 361.5 183.1 469.5 318 469.5 c 0
 451.4 469.5 527.5 356.5 509 230 c 0
 489 98.5 374.9 -9.5 240 -9.5 c 0
 106.6 -9.5 30.5 103.5 49 230 c 0
101.3 230 m 0
 85.8 131.4 140 40 244.5 39.5 c 0
 350.5 39 439.7 125.9 456.7 230 c 0
 472.2 328.6 418 420 313.5 420.5 c 0
 207.5 421 118.3 334.1 101.3 230 c 0
401.3 594.2 m 0
 403.3 612.6 424.8 631.4 443.5 630.4 c 0
 462.7 629.4 476.7 612.1 474.7 592.7 c 0
 472.7 574.3 451.2 555.5 432.5 556.5 c 0
 413.3 557.5 399.3 574.8 401.3 594.2 c 0
207.3 594.2 m 0
 209.3 612.6 230.8 631.4 249.5 630.4 c 0
 268.7 629.4 282.7 612.1 280.7 592.7 c 0
 278.7 574.3 257.2 555.5 238.5 556.5 c 0
 219.3 557.5 205.3 574.8 207.3 594.2 c 0
EndSplineSet
EndChar

StartChar: ugrave
Encoding: 249 249 238
Width: 489
VWidth: 0
Flags: HMW
LayerCount: 2
Fore
SplineSet
334.5 0 m 1
 414 460 l 1
 466 460 l 1
 386.5 0 l 1
 334.5 0 l 1
128.5 168 m 2
 120 99.5 134.5 40.5 209.5 39.5 c 0
 290.2 38 348.5 107.2 366.5 179 c 1
 390.3 179 l 1
 370.3 80.5 294.5 -10 193 -9.5 c 0
 95 -9.5 65 68 76.5 162 c 1
 128.5 460 l 1
 178.5 459.5 l 1
 128.5 168 l 2
206 699.4 m 1
 257.4 726 l 1
 384.9 565.5 l 1
 354.1 546 l 1
 206 699.4 l 1
EndSplineSet
EndChar

StartChar: uacute
Encoding: 250 250 239
Width: 489
VWidth: 0
Flags: HMW
LayerCount: 2
Fore
SplineSet
334.5 0 m 1
 414 460 l 1
 466 460 l 1
 386.5 0 l 1
 334.5 0 l 1
128.5 168 m 2
 120 99.5 134.5 40.5 209.5 39.5 c 0
 290.2 38 348.5 107.2 366.5 179 c 1
 390.3 179 l 1
 370.3 80.5 294.5 -10 193 -9.5 c 0
 95 -9.5 65 68 76.5 162 c 1
 128.5 460 l 1
 178.5 459.5 l 1
 128.5 168 l 2
467.7 696.9 m 1
 270.6 546.5 l 1
 244.4 567.5 l 1
 424.4 725.5 l 1
 467.7 696.9 l 1
EndSplineSet
EndChar

StartChar: ucircumflex
Encoding: 251 251 240
Width: 489
VWidth: 0
Flags: HMW
LayerCount: 2
Fore
SplineSet
334.5 0 m 1
 414 460 l 1
 466 460 l 1
 386.5 0 l 1
 334.5 0 l 1
128.5 168 m 2
 120 99.5 134.5 40.5 209.5 39.5 c 0
 290.2 38 348.5 107.2 366.5 179 c 1
 390.3 179 l 1
 370.3 80.5 294.5 -10 193 -9.5 c 0
 95 -9.5 65 68 76.5 162 c 1
 128.5 460 l 1
 178.5 459.5 l 1
 128.5 168 l 2
331.7 656.5 m 1
 188.4 546.5 l 1
 159.7 573.9 l 1
 338.2 712.4 l 1
 471.7 572.4 l 1
 435.6 546.5 l 1
 331.7 656.5 l 1
EndSplineSet
EndChar

StartChar: udieresis
Encoding: 252 252 241
Width: 489
VWidth: 0
Flags: HMW
LayerCount: 2
Fore
SplineSet
334.5 0 m 1
 414 460 l 1
 466 460 l 1
 386.5 0 l 1
 334.5 0 l 1
128.5 168 m 2
 120 99.5 134.5 40.5 209.5 39.5 c 0
 290.2 38 348.5 107.2 366.5 179 c 1
 390.3 179 l 1
 370.3 80.5 294.5 -10 193 -9.5 c 0
 95 -9.5 65 68 76.5 162 c 1
 128.5 460 l 1
 178.5 459.5 l 1
 128.5 168 l 2
371.1 588.2 m 0
 373.1 606.1 394 625.4 412.7 624.4 c 0
 431.9 623.4 446.5 606.1 444.5 586.7 c 0
 442.5 568.3 420.4 549.5 401.7 550.5 c 0
 382 551.5 369.1 569.3 371.1 588.2 c 0
192.1 588.2 m 0
 194.1 606.1 215.5 625.4 234.2 624.4 c 0
 253.4 623.4 267.5 606.1 265.5 586.7 c 0
 263.5 568.3 241.9 549.5 223.2 550.5 c 0
 203.5 551.5 190.1 569.3 192.1 588.2 c 0
EndSplineSet
EndChar

StartChar: yacute
Encoding: 253 253 242
Width: 420
VWidth: 0
Flags: HMW
LayerCount: 2
Fore
SplineSet
470.5 459.5 m 1
 62 -219.5 l 1
 3.3 -219.5 l 1
 165.3 48.5 l 1
 55.5 460 l 1
 115.4 460 l 1
 210.5 68 l 1
 186.9 70.7 l 1
 411.8 459.5 l 1
 470.5 459.5 l 1
438.6 692.9 m 1
 241 543 l 1
 214.5 563.5 l 1
 395 721.5 l 1
 438.6 692.9 l 1
EndSplineSet
EndChar

StartChar: thorn
Encoding: 254 254 243
Width: 541
VWidth: 0
Flags: HMW
LayerCount: 2
Fore
SplineSet
58.5 -219.5 m 1
 6 -220 l 1
 178 780 l 1
 228.5 779.5 l 1
 58.5 -219.5 l 1
516.7 230 m 0
 497.2 95.9 390.2 -11 261.7 -10 c 0
 137.6 -9 95.2 113.5 111.2 230 c 0
 129.2 354.5 216.1 469 339.7 469.5 c 0
 468.2 470 534.2 357.6 516.7 230 c 0
464.9 230 m 0
 479.4 331.5 429.8 421 328.1 420.5 c 0
 234.3 420 150.5 329.5 134.5 230 c 0
 121.5 137 166.8 41.5 259.1 39.5 c 0
 361.3 37.5 448.4 123 464.9 230 c 0
EndSplineSet
EndChar

StartChar: ydieresis
Encoding: 255 255 244
Width: 420
VWidth: 0
Flags: HMW
LayerCount: 2
Fore
SplineSet
470.5 459.5 m 1
 62 -219.5 l 1
 3.3 -219.5 l 1
 165.3 48.5 l 1
 55.5 460 l 1
 115.4 460 l 1
 210.5 68 l 1
 186.9 70.7 l 1
 411.8 459.5 l 1
 470.5 459.5 l 1
334.4 576.2 m 0
 336.4 594.6 357.7 613.4 376.4 612.4 c 0
 395.6 611.4 409.8 594.1 407.8 574.7 c 0
 405.8 556.3 384.1 537.5 365.4 538.5 c 0
 346.2 539.5 332.4 556.8 334.4 576.2 c 0
155.9 576.2 m 0
 157.9 594.6 179.2 613.4 197.9 612.4 c 0
 217.1 611.4 231.3 594.1 229.3 574.7 c 0
 227.3 556.3 205.1 537.5 186.4 538.5 c 0
 167.2 539.5 153.9 556.8 155.9 576.2 c 0
EndSplineSet
EndChar

StartChar: Amacron
Encoding: 256 256 245
Width: 616
VWidth: 0
Flags: HMW
LayerCount: 2
Fore
SplineSet
148 235.4 m 1
 173.5 286.4 l 1
 489 286.9 l 1
 498 234.9 l 1
 148 235.4 l 1
386 600.2 m 1
 196.3 269.1 l 1
 189.2 256.9 l 1
 41.9 0 l 1
 -20.5 0 l 1
 405.5 728 l 1
 581 0 l 1
 521.1 0 l 1
 464.1 253.1 l 1
 461.5 266.2 l 1
 386 600.2 l 1
247.5 795.5 m 1
 255.5 844 l 1
 596.5 844 l 1
 588 795 l 1
 247.5 795.5 l 1
EndSplineSet
EndChar

StartChar: amacron
Encoding: 257 257 246
Width: 541
VWidth: 0
Flags: HMW
LayerCount: 2
Fore
SplineSet
473.2 459.5 m 1
 522.7 460 l 1
 442.7 0 l 1
 395.2 0 l 1
 473.2 459.5 l 1
49 230 m 0
 68.5 364.1 176 471 304.5 470 c 0
 428.6 469 471.5 346.5 455.5 230 c 0
 437.5 105.5 350.1 -9 226.5 -9.5 c 0
 98 -10 31.5 102.4 49 230 c 0
101.3 230 m 0
 86.8 128.5 135.9 39 237.6 39.5 c 0
 331.4 40 415.7 130.5 431.7 230 c 0
 444.7 323 398.9 418.5 306.6 420.5 c 0
 204.4 422.5 117.8 337 101.3 230 c 0
154 544.5 m 1
 162 593 l 1
 503 593 l 1
 494.5 544 l 1
 154 544.5 l 1
EndSplineSet
Substitution2: "alt a" amacron.alt
EndChar

StartChar: breve
Encoding: 728 728 247
Width: 529
VWidth: 0
Flags: HMW
LayerCount: 2
Fore
SplineSet
225 850 m 1
 270.3 850 l 1
 267.8 803 292.6 754 362 753.5 c 0
 433.4 753 471.2 803 486.2 849.5 c 1
 532.5 849 l 1
 514.5 776.5 455.5 710.5 358.5 710.5 c 0
 263 710.5 220 776.5 225 850 c 1
EndSplineSet
EndChar

StartChar: Abreve
Encoding: 258 258 248
Width: 616
VWidth: 0
Flags: HMW
LayerCount: 2
Fore
SplineSet
148 235.4 m 1
 173.5 286.4 l 1
 489 286.9 l 1
 498 234.9 l 1
 148 235.4 l 1
386 600.2 m 1
 196.3 269.1 l 1
 189.2 256.9 l 1
 41.9 0 l 1
 -20.5 0 l 1
 405.5 728 l 1
 581 0 l 1
 521.1 0 l 1
 464.1 253.1 l 1
 461.5 266.2 l 1
 386 600.2 l 1
286.5 931 m 1
 331.8 930.5 l 1
 328.3 883.5 352.6 835 422 834.5 c 0
 493.4 834 532.2 884.5 548.2 930.5 c 1
 594.5 930 l 1
 575 857.5 515.5 791.5 418.5 791.5 c 0
 322.5 791.5 280.5 857.5 286.5 931 c 1
EndSplineSet
EndChar

StartChar: abreve
Encoding: 259 259 249
Width: 541
VWidth: 0
Flags: HMW
LayerCount: 2
Fore
SplineSet
473.2 459.5 m 1
 522.7 460 l 1
 442.7 0 l 1
 395.2 0 l 1
 473.2 459.5 l 1
49 230 m 0
 68.5 364.1 176 471 304.5 470 c 0
 428.6 469 471.5 346.5 455.5 230 c 0
 437.5 105.5 350.1 -9 226.5 -9.5 c 0
 98 -10 31.5 102.4 49 230 c 0
101.3 230 m 0
 86.8 128.5 135.9 39 237.6 39.5 c 0
 331.4 40 415.7 130.5 431.7 230 c 0
 444.7 323 398.9 418.5 306.6 420.5 c 0
 204.4 422.5 117.8 337 101.3 230 c 0
176 677.5 m 1
 221.3 677.5 l 1
 218.3 630.5 242.6 581.5 312 581 c 0
 383.4 580.5 422.2 630.5 437.7 677 c 1
 484 676.5 l 1
 465.5 604 406 538 309 538 c 0
 213.5 538 170.5 604 176 677.5 c 1
EndSplineSet
Substitution2: "alt a" abreve.alt
EndChar

StartChar: Aogonek
Encoding: 260 260 250
Width: 616
VWidth: 0
Flags: HMW
LayerCount: 2
Fore
SplineSet
148.9 235.4 m 1
 174.4 286.4 l 1
 489 286.9 l 1
 498 234.9 l 1
 148.9 235.4 l 1
386 600.2 m 1
 196.3 269.1 l 1
 189.2 256.9 l 1
 41.9 0 l 1
 -20.5 0 l 1
 405.5 728 l 1
 581 0 l 1
 521.1 0 l 1
 464.1 253.1 l 1
 461.5 266.2 l 1
 386 600.2 l 1
571.8 -147.6 m 1
 589.1 -181.5 l 1
 566.6 -201 534.1 -219.5 494.1 -219.5 c 0
 428.6 -220 388.1 -184 396.1 -127.5 c 0
 407.1 -58 489.3 -14.5 556.8 18.5 c 1
 582 0 l 1
 528.3 -26 457.1 -63 449.1 -116 c 0
 445.1 -151.5 467.6 -172 502.1 -173.5 c 0
 530.4 -174.5 554.1 -161.1 571.8 -147.6 c 1
EndSplineSet
EndChar

StartChar: aogonek
Encoding: 261 261 251
Width: 541
VWidth: 0
Flags: HMW
LayerCount: 2
Fore
SplineSet
473.2 459.5 m 1
 522.7 460 l 1
 442.7 0.5 l 1
 395.2 0 l 1
 473.2 459.5 l 1
49 230 m 0
 68.5 364.1 176 471 304.5 470 c 0
 428.6 469 471.5 346.5 455.5 230 c 0
 437.5 105.5 350.1 -9 226.5 -9.5 c 0
 98 -10 31.5 102.4 49 230 c 0
101.3 230 m 0
 86.8 128.5 135.9 39 237.6 39.5 c 0
 331.4 40 415.7 130.5 431.7 230 c 0
 444.7 323 398.9 418.5 306.6 420.5 c 0
 204.4 422.5 117.8 337 101.3 230 c 0
433.5 -147.6 m 1
 450.3 -181.5 l 1
 427.8 -201 395.3 -219.5 355.3 -219.5 c 0
 289.8 -220 249.8 -184 257.8 -127.5 c 0
 268.8 -58 351 -14.5 418.5 18.5 c 1
 443.7 0 l 1
 390 -26 318.8 -63 310.8 -116 c 0
 306.8 -151.5 329.3 -172 363.8 -173.5 c 0
 392.1 -174.5 415.8 -161.1 433.5 -147.6 c 1
EndSplineSet
Substitution2: "alt a" aogonek.alt
EndChar

StartChar: Cacute
Encoding: 262 262 252
Width: 664
VWidth: 0
Flags: HMW
LayerCount: 2
Fore
SplineSet
132.9 350 m 0
 109.4 194.1 191.7 48.8 353.5 47.3 c 0
 449 46.3 527.2 86.3 590 141.8 c 1
 578.5 68.5 l 1
 513 19.5 442 -9.6 348 -9.1 c 0
 152.5 -8.1 47 163 74.5 350 c 0
 105 547 268 708.1 466.5 709.1 c 0
 555.5 709.6 618 684 674 631 c 1
 662 557.9 l 1
 615.6 619.7 547.5 653.2 461 653.2 c 0
 296.9 652.7 159.9 516 132.9 350 c 0
633.7 920 m 1
 435.9 770.1 l 1
 409.6 790.6 l 1
 590.1 948.6 l 1
 633.7 920 l 1
EndSplineSet
EndChar

StartChar: cacute
Encoding: 263 263 253
Width: 467
VWidth: 0
Flags: HMW
LayerCount: 2
Fore
SplineSet
96.3 230 m 0
 80.8 131.4 135.5 40.5 240 39.5 c 0
 310 39 371.5 75.1 407.5 112.9 c 1
 397.5 48.3 l 1
 358.5 15.4 299 -9.5 235 -9.5 c 0
 101.6 -9 26 103.5 44.5 230 c 0
 64.5 362.5 178.1 469.5 313.5 469.5 c 0
 373.5 469.5 426.5 446.6 458.5 411.2 c 1
 448.5 346.6 l 1
 426 389.4 374 421 309 420.5 c 0
 203 420 113.8 334.6 96.3 230 c 0
485 684.9 m 1
 287.6 535 l 1
 260.4 555.5 l 1
 440.9 713.5 l 1
 485 684.9 l 1
EndSplineSet
EndChar

StartChar: Ccircumflex
Encoding: 264 264 254
Width: 664
VWidth: 0
Flags: HMW
LayerCount: 2
Fore
SplineSet
132.9 350 m 0
 109.4 194.1 191.7 48.8 353.5 47.3 c 0
 449 46.3 527.2 86.3 590 141.8 c 1
 578.5 68.5 l 1
 513 19.5 442 -9.6 348 -9.1 c 0
 152.5 -8.1 47 163 74.5 350 c 0
 105 547 268 708.1 466.5 709.1 c 0
 555.5 709.6 618 684 674 631 c 1
 662 557.9 l 1
 615.6 619.7 547.5 653.2 461 653.2 c 0
 296.9 652.7 159.9 516 132.9 350 c 0
499.5 879.6 m 1
 356.4 770.1 l 1
 327.5 797.5 l 1
 506 936 l 1
 639 795.5 l 1
 604.1 769.6 l 1
 499.5 879.6 l 1
EndSplineSet
EndChar

StartChar: ccircumflex
Encoding: 265 265 255
Width: 467
VWidth: 0
Flags: HMW
LayerCount: 2
Fore
SplineSet
96.3 230 m 0
 80.8 131.4 135.5 40.5 240 39.5 c 0
 310 39 371.5 75.1 407.5 112.9 c 1
 397.5 48.3 l 1
 358.5 15.4 299 -9.5 235 -9.5 c 0
 101.6 -9 26 103.5 44.5 230 c 0
 64.5 362.5 178.1 469.5 313.5 469.5 c 0
 373.5 469.5 426.5 446.6 458.5 411.2 c 1
 448.5 346.6 l 1
 426 389.4 374 421 309 420.5 c 0
 203 420 113.8 334.6 96.3 230 c 0
346.5 640.5 m 1
 202.9 530.5 l 1
 174 557.9 l 1
 352.5 696.4 l 1
 486 556.4 l 1
 450.6 530.5 l 1
 346.5 640.5 l 1
EndSplineSet
EndChar

StartChar: Cdotaccent
Encoding: 266 266 256
Width: 664
VWidth: 0
Flags: HMW
LayerCount: 2
Fore
SplineSet
132.9 350 m 0
 109.4 194.1 191.7 48.8 353.5 47.3 c 0
 449 46.3 527.2 86.3 590 141.8 c 1
 578.5 68.5 l 1
 513 19.5 442 -9.6 348 -9.1 c 0
 152.5 -8.1 47 163 74.5 350 c 0
 105 547 268 708.1 466.5 709.1 c 0
 555.5 709.6 618 684 674 631 c 1
 662 557.9 l 1
 615.6 619.7 547.5 653.2 461 653.2 c 0
 296.9 652.7 159.9 516 132.9 350 c 0
449.3 811.3 m 0
 451.3 829.7 472.8 848.5 491.5 847.5 c 0
 510.7 846.5 524.2 829.2 522.2 809.8 c 0
 520.2 791.4 498.7 772.6 480 773.6 c 0
 460.8 774.6 447.3 791.9 449.3 811.3 c 0
EndSplineSet
EndChar

StartChar: cdotaccent
Encoding: 267 267 257
Width: 467
VWidth: 0
Flags: HMW
LayerCount: 2
Fore
SplineSet
96.3 230 m 0
 80.8 131.4 135.5 40.5 240 39.5 c 0
 310 39 371.5 75.1 407.5 112.9 c 1
 397.5 48.3 l 1
 358.5 15.4 299 -9.5 235 -9.5 c 0
 101.6 -9 26 103.5 44.5 230 c 0
 64.5 362.5 178.1 469.5 313.5 469.5 c 0
 373.5 469.5 426.5 446.6 458.5 411.2 c 1
 448.5 346.6 l 1
 426 389.4 374 421 309 420.5 c 0
 203 420 113.8 334.6 96.3 230 c 0
295.8 572.2 m 0
 297.8 590.6 319.3 609.4 338 608.4 c 0
 357.2 607.4 370.7 590.1 368.7 570.7 c 0
 366.7 552.3 345.2 533.5 326.5 534.5 c 0
 307.3 535.5 293.8 552.8 295.8 572.2 c 0
EndSplineSet
EndChar

StartChar: Ccaron
Encoding: 268 268 258
Width: 664
VWidth: 0
Flags: HMW
LayerCount: 2
Fore
SplineSet
132.9 350 m 0
 109.4 194.1 191.7 48.8 353.5 47.3 c 0
 449 46.3 527.2 86.3 590 141.8 c 1
 578.5 68.5 l 1
 513 19.5 442 -9.6 348 -9.1 c 0
 152.5 -8.1 47 163 74.5 350 c 0
 105 547 268 708.1 466.5 709.1 c 0
 555.5 709.6 618 684 674 631 c 1
 662 557.9 l 1
 615.6 619.7 547.5 653.2 461 653.2 c 0
 296.9 652.7 159.9 516 132.9 350 c 0
487 829.5 m 1
 629.9 939.7 l 1
 659 912.1 l 1
 480.5 773.6 l 1
 347.5 913.6 l 1
 383.1 940.2 l 1
 487 829.5 l 1
EndSplineSet
EndChar

StartChar: ccaron
Encoding: 269 269 259
Width: 467
VWidth: 0
Flags: HMW
LayerCount: 2
Fore
SplineSet
96.3 230 m 0
 80.8 131.4 135.5 40.5 240 39.5 c 0
 310 39 371.5 75.1 407.5 112.9 c 1
 397.5 48.3 l 1
 358.5 15.4 299 -9.5 235 -9.5 c 0
 101.6 -9 26 103.5 44.5 230 c 0
 64.5 362.5 178.1 469.5 313.5 469.5 c 0
 373.5 469.5 426.5 446.6 458.5 411.2 c 1
 448.5 346.6 l 1
 426 389.4 374 421 309 420.5 c 0
 203 420 113.8 334.6 96.3 230 c 0
334.5 594.4 m 1
 477.4 704.6 l 1
 506.5 676.5 l 1
 328 538 l 1
 194.5 678.5 l 1
 230.6 705.1 l 1
 334.5 594.4 l 1
EndSplineSet
EndChar

StartChar: Dcaron
Encoding: 270 270 260
Width: 642
VWidth: 0
Flags: HMW
LayerCount: 2
Fore
SplineSet
173 699.5 m 1
 228.7 700 l 1
 108.2 0 l 1
 54.5 0 l 1
 173 699.5 l 1
241 0 m 1
 83.1 0 l 1
 92.6 55.2 l 1
 246.5 55.2 l 1
 420.4 58.2 550.3 180.3 578.3 350 c 0
 603.8 511.5 521.4 641.3 350.5 644.8 c 1
 193.1 644.8 l 1
 202.6 700 l 1
 356 700 l 1
 556.5 696.5 661.5 540.5 633 350 c 0
 602 151 445 3 241 0 c 1
429.6 837.5 m 1
 572 947.7 l 1
 601.6 920.1 l 1
 423.1 781.6 l 1
 290.1 921.6 l 1
 325.2 948.2 l 1
 429.6 837.5 l 1
EndSplineSet
EndChar

StartChar: dcaron
Encoding: 271 271 261
Width: 553
VWidth: 0
Flags: HMW
LayerCount: 2
Fore
SplineSet
524.7 779.5 m 1
 577.2 780 l 1
 442.7 0 l 1
 392.2 0 l 1
 524.7 779.5 l 1
49 230 m 0
 68.5 364.1 176 471 304.5 470 c 0
 428.6 469 471.5 346.5 455.5 230 c 0
 437.5 105.5 350.1 -9 226.5 -9.5 c 0
 98 -10 31.5 102.4 49 230 c 0
101.3 230 m 0
 86.8 128.5 135.9 39 237.6 39.5 c 0
 331.4 40 415.7 130.5 431.7 230 c 0
 444.7 323 398.9 418.5 306.6 420.5 c 0
 204.4 422.5 117.8 337 101.3 230 c 0
718.4 772.8 m 1
 768.1 751.8 l 1
 617.6 504.8 l 1
 582 518 l 1
 718.4 772.8 l 1
EndSplineSet
EndChar

StartChar: Dcroat
Encoding: 272 272 262
Width: 659
VWidth: 0
Flags: HMW
LayerCount: 2
Fore
SplineSet
33 324.5 m 1
 41.5 373 l 1
 333.5 373 l 1
 325.5 324 l 1
 33 324.5 l 1
173 699.5 m 1
 228.7 700 l 1
 108.2 0 l 1
 54.5 0 l 1
 173 699.5 l 1
241 0 m 1
 83.1 0 l 1
 92.6 55.2 l 1
 246.5 55.2 l 1
 420 58.2 550.3 180.5 578.3 350 c 0
 603.8 511 521 641.3 350.5 644.8 c 1
 193.1 644.8 l 1
 202.6 700 l 1
 356 700 l 1
 556.5 696.5 661.5 540.5 633 350 c 0
 602 151 445 3 241 0 c 1
EndSplineSet
EndChar

StartChar: dcroat
Encoding: 273 273 263
Width: 541
VWidth: 0
Flags: HMW
LayerCount: 2
Fore
SplineSet
364.5 616.5 m 1
 372.5 665 l 1
 665 665 l 1
 656.5 616 l 1
 364.5 616.5 l 1
524.7 779.5 m 1
 577.2 780 l 1
 442.7 0 l 1
 392.2 0 l 1
 524.7 779.5 l 1
49 230 m 0
 68.5 364.5 176 471 304.5 470 c 0
 427 469 471.5 348.5 455.5 230 c 0
 437.5 103.5 348.5 -9 226.5 -9.5 c 0
 98 -10 31 101.5 49 230 c 0
101.3 230 m 0
 86.8 128.5 136.1 39 237.6 39.5 c 0
 332.6 40 415.7 132.5 431.7 230 c 0
 444.7 321 400.1 418.5 306.6 420.5 c 0
 204.6 422.5 117.8 336.5 101.3 230 c 0
EndSplineSet
EndChar

StartChar: Emacron
Encoding: 274 274 264
Width: 517
VWidth: 0
Flags: HMW
LayerCount: 2
Fore
SplineSet
82.5 0 m 1
 91 52 l 1
 429 52 l 1
 420.5 0 l 1
 82.5 0 l 1
193.5 648.5 m 1
 202 700 l 1
 539.5 700 l 1
 531 648 l 1
 193.5 648.5 l 1
143.5 357.8 m 1
 152.5 409.8 l 1
 470.5 409.8 l 1
 462 357.8 l 1
 143.5 357.8 l 1
173 699.5 m 1
 228.7 700 l 1
 108.2 0 l 1
 54.5 0 l 1
 173 699.5 l 1
210.5 796.5 m 1
 219 845 l 1
 559.5 845 l 1
 551.5 796 l 1
 210.5 796.5 l 1
EndSplineSet
EndChar

StartChar: emacron
Encoding: 275 275 265
Width: 494
VWidth: 0
Flags: HMW
LayerCount: 2
Fore
SplineSet
86.7 217.1 m 1
 93.2 262 l 1
 424.1 262 l 1
 435.5 344.2 393.7 422.5 301.9 423.5 c 0
 206.5 424.5 128.4 346.5 111.4 249.4 c 1
 107.3 230.9 l 1
 95.3 131.7 136.1 40 237.4 39.5 c 0
 317.1 39 369.5 85.2 410.3 134 c 1
 449.4 105.5 l 1
 398.1 43.9 334.6 -10 227.4 -9.5 c 0
 101.9 -8.5 40.5 108.4 55.5 230.9 c 0
 58.5 251.9 63.4 271.7 70.7 290.8 c 0
 105.3 390.7 194.6 470 305.4 469.5 c 0
 428.9 469 491.4 363.5 477.4 242 c 0
 476.4 234 474.2 225.1 472.7 217.1 c 1
 86.7 217.1 l 1
138.453 537.0045 m 1
 145.953 586.0045 l 1
 486.453 586.0045 l 1
 478.953 537.0045 l 1
 138.453 537.0045 l 1
EndSplineSet
EndChar

StartChar: Ebreve
Encoding: 276 276 266
Width: 517
VWidth: 0
Flags: HMW
LayerCount: 2
Fore
SplineSet
82.5 0 m 1
 91 52 l 1
 429 52 l 1
 420.5 0 l 1
 82.5 0 l 1
193.5 648.5 m 1
 202 700 l 1
 539.5 700 l 1
 531 648 l 1
 193.5 648.5 l 1
143.5 357.8 m 1
 152.5 409.8 l 1
 470.5 409.8 l 1
 462 357.8 l 1
 143.5 357.8 l 1
173 699.5 m 1
 228.7 700 l 1
 108.2 0 l 1
 54.5 0 l 1
 173 699.5 l 1
242 909.1 m 1
 287.3 909.1 l 1
 283.8 862.1 307.6 813.1 377 812.6 c 0
 448.4 812.1 487.2 862.6 503.2 908.6 c 1
 550 908.1 l 1
 530.5 835.6 470.5 769.6 373.5 769.6 c 0
 277.5 769.6 236 835.6 242 909.1 c 1
EndSplineSet
EndChar

StartChar: ebreve
Encoding: 277 277 267
Width: 494
VWidth: 0
Flags: HMW
LayerCount: 2
Fore
SplineSet
82.7 217.6 m 1
 89.7 261.5 l 1
 421.1 262 l 1
 430.5 344.2 392.2 422.5 300.4 423.5 c 0
 204.5 424.5 125.4 346.5 107.9 249.4 c 1
 103.8 230.9 l 1
 91.3 131.7 130.6 41 231.9 39.5 c 0
 311.6 38.5 365 85.2 405.8 133.5 c 1
 444.4 105.5 l 1
 392.1 43.9 328.6 -10 221.4 -9.5 c 0
 95.9 -8.5 36.5 108.9 52 230.9 c 0
 55 251.9 60.4 271.7 67.7 290.8 c 0
 103.3 390.2 193.1 470 303.9 469.5 c 0
 427.9 469 488.9 362.5 473.9 242 c 0
 472.9 234 471.2 225.6 469.2 217.6 c 1
 82.7 217.6 l 1
179.4 669.5 m 1
 224.2 669.5 l 1
 221.7 622.5 246 573.5 315.4 573 c 0
 386.8 572.5 425.1 623 440.6 669 c 1
 486.9 668.5 l 1
 467.9 596.5 408.4 530 311.4 530 c 0
 215.4 530 173.9 596 179.4 669.5 c 1
EndSplineSet
EndChar

StartChar: Edotaccent
Encoding: 278 278 268
Width: 517
VWidth: 0
Flags: HMW
LayerCount: 2
Fore
SplineSet
82.5 0 m 1
 91 52 l 1
 429 52 l 1
 420.5 0 l 1
 82.5 0 l 1
193.5 648.5 m 1
 202 700 l 1
 539.5 700 l 1
 531 648 l 1
 193.5 648.5 l 1
143.5 357.8 m 1
 152.5 409.8 l 1
 470.5 409.8 l 1
 462 357.8 l 1
 143.5 357.8 l 1
173 699.5 m 1
 228.7 700 l 1
 108.2 0 l 1
 54.5 0 l 1
 173 699.5 l 1
337.8 807.3 m 0
 339.8 825.7 361.3 844.5 380 843.5 c 0
 399.2 842.5 413.2 825.2 411.2 805.8 c 0
 409.2 787.4 387.7 768.6 369 769.6 c 0
 349.8 770.6 335.8 787.9 337.8 807.3 c 0
EndSplineSet
EndChar

StartChar: edotaccent
Encoding: 279 279 269
Width: 494
VWidth: 0
Flags: HMW
LayerCount: 2
Fore
SplineSet
82.7 217.6 m 1
 89.7 261.5 l 1
 421.1 262 l 1
 430.5 344.2 392.2 422.5 300.4 423.5 c 0
 204.5 424.5 125.4 346.5 107.9 249.4 c 1
 103.8 230.9 l 1
 91.3 131.7 130.6 41 231.9 39.5 c 0
 311.6 38.5 365 85.2 405.8 133.5 c 1
 444.4 105.5 l 1
 392.1 43.9 328.6 -10 221.4 -9.5 c 0
 95.9 -8.5 36.5 108.9 52 230.9 c 0
 55 251.9 60.4 271.7 67.7 290.8 c 0
 103.3 390.2 193.1 470 303.9 469.5 c 0
 427.9 469 488.9 362.5 473.9 242 c 0
 472.9 234 471.2 225.6 469.2 217.6 c 1
 82.7 217.6 l 1
283.2 567.7 m 0
 285.2 586.1 306.7 605.4 325.4 604.4 c 0
 344.6 603.4 358.6 586.1 356.6 566.7 c 0
 354.6 548.3 333.1 529 314.4 530 c 0
 295.2 531 281.2 548.3 283.2 567.7 c 0
EndSplineSet
EndChar

StartChar: Eogonek
Encoding: 280 280 270
Width: 517
VWidth: 0
Flags: HMW
LayerCount: 2
Fore
SplineSet
82.5 0 m 1
 91 52 l 1
 429 52 l 1
 420.5 0 l 1
 82.5 0 l 1
193.5 648.5 m 1
 202 700 l 1
 539.5 700 l 1
 531 648 l 1
 193.5 648.5 l 1
143.5 357.8 m 1
 152.5 409.8 l 1
 470.5 409.8 l 1
 462 357.8 l 1
 143.5 357.8 l 1
173 699.5 m 1
 228.7 700 l 1
 108.2 0 l 1
 54.5 0 l 1
 173 699.5 l 1
339.8 -147.6 m 1
 357.1 -181.5 l 1
 334.6 -201 301.6 -219.5 261.6 -219.5 c 0
 196.1 -220 156.1 -184 164.1 -127.5 c 0
 175.1 -58 257.3 -14.5 324.8 18.5 c 1
 350 0 l 1
 296.3 -26 225.1 -63 217.1 -116 c 0
 213.1 -151.5 235.6 -172 270.1 -173.5 c 0
 298.4 -174.5 322.1 -161.1 339.8 -147.6 c 1
EndSplineSet
EndChar

StartChar: eogonek
Encoding: 281 281 271
Width: 494
VWidth: 0
Flags: HMW
LayerCount: 2
Fore
SplineSet
82.7 217.6 m 1
 89.7 261.5 l 1
 421.1 262 l 1
 430.5 344.2 392.2 422.5 300.4 423.5 c 0
 204.5 424.5 125.4 346.5 107.9 249.4 c 1
 103.8 230.9 l 1
 91.3 131.7 130.6 41 231.9 39.5 c 0
 311.6 38.5 365 85.2 405.8 133.5 c 1
 444.4 105.5 l 1
 392.1 43.9 328.6 -10 221.4 -9.5 c 0
 95.9 -8.5 36.5 108.9 52 230.9 c 0
 55 251.9 60.4 271.7 67.7 290.8 c 0
 103.3 390.2 193.1 470 303.9 469.5 c 0
 427.9 469 488.9 362.5 473.9 242 c 0
 472.9 234 471.2 225.6 469.2 217.6 c 1
 82.7 217.6 l 1
238.8 -149.2 m 1
 255.9 -183.1 l 1
 233.4 -202.6 201.4 -221.6 161.4 -221.6 c 0
 95.9 -222.1 55.1 -186.1 63.1 -129.6 c 0
 73.6 -60.6 155.1 -18.8 222.1 14.2 c 1
 248 -5.3 l 1
 193.8 -29.8 123.6 -64.8 115.6 -118.1 c 0
 111.6 -153.6 134.9 -174.1 169.4 -175.6 c 0
 197.7 -176.6 221.1 -162.7 238.8 -149.2 c 1
EndSplineSet
EndChar

StartChar: Ecaron
Encoding: 282 282 272
Width: 517
VWidth: 0
Flags: HMW
LayerCount: 2
Fore
SplineSet
82.5 0 m 1
 91 52 l 1
 429 52 l 1
 420.5 0 l 1
 82.5 0 l 1
193.5 648.5 m 1
 202 700 l 1
 539.5 700 l 1
 531 648 l 1
 193.5 648.5 l 1
143.5 357.8 m 1
 152.5 409.8 l 1
 470.5 409.8 l 1
 462 357.8 l 1
 143.5 357.8 l 1
173 699.5 m 1
 228.7 700 l 1
 108.2 0 l 1
 54.5 0 l 1
 173 699.5 l 1
376 825.5 m 1
 518.4 935.7 l 1
 548 908.1 l 1
 369.5 769.6 l 1
 236 909.6 l 1
 272.1 936.2 l 1
 376 825.5 l 1
EndSplineSet
EndChar

StartChar: ecaron
Encoding: 283 283 273
Width: 494
VWidth: 0
Flags: HMW
LayerCount: 2
Fore
SplineSet
82.7 217.6 m 1
 89.7 261.5 l 1
 421.1 262 l 1
 430.5 344.2 392.2 422.5 300.4 423.5 c 0
 204.5 424.5 125.4 346.5 107.9 249.4 c 1
 103.8 230.9 l 1
 91.3 131.7 130.6 41 231.9 39.5 c 0
 311.6 38.5 365 85.2 405.8 133.5 c 1
 444.4 105.5 l 1
 392.1 43.9 328.6 -10 221.4 -9.5 c 0
 95.9 -8.5 36.5 108.9 52 230.9 c 0
 55 251.9 60.4 271.7 67.7 290.8 c 0
 103.3 390.2 193.1 470 303.9 469.5 c 0
 427.9 469 488.9 362.5 473.9 242 c 0
 472.9 234 471.2 225.6 469.2 217.6 c 1
 82.7 217.6 l 1
316.9 585.9 m 1
 459.8 696.1 l 1
 488.9 668.5 l 1
 310.4 530 l 1
 176.9 670 l 1
 213 696.6 l 1
 316.9 585.9 l 1
EndSplineSet
EndChar

StartChar: Gcircumflex
Encoding: 284 284 274
Width: 748
VWidth: 0
Flags: HMW
LayerCount: 2
Fore
SplineSet
421.5 297 m 1
 431 349 l 1
 733 348.5 l 1
 699 164.5 560.5 -9.1 354.5 -9.1 c 0
 155 -9.1 47 162 74.5 350 c 0
 105.5 548 271 709.1 473.5 709.1 c 0
 591 709.6 677.9 653.5 727.4 558.5 c 1
 683.4 523.8 l 1
 645.7 604.6 569.5 653.9 468 653.4 c 0
 298.9 653.4 160.2 517.5 132.7 350 c 0
 108.7 192.6 192.7 47.1 360 46.6 c 0
 516.5 46.1 624 166.8 666.7 297 c 1
 421.5 297 l 1
506.5 879.6 m 1
 362.9 770.1 l 1
 334 797.5 l 1
 512.5 936 l 1
 646 795.5 l 1
 610.6 769.6 l 1
 506.5 879.6 l 1
EndSplineSet
EndChar

StartChar: gcircumflex
Encoding: 285 285 275
Width: 541
VWidth: 0
Flags: HMW
LayerCount: 2
Fore
SplineSet
16.2 -30 m 1
 67.5 -30.5 l 1
 60 -112 102.6 -180 196.5 -180.5 c 0
 292.9 -181.5 375.2 -101.8 393.2 10 c 1
 470.7 460 l 1
 522.7 460 l 1
 445.7 10 l 2
 423.7 -130 318.5 -229.5 192 -229.5 c 0
 68.5 -229.5 4.7 -142.5 16.2 -30 c 1
49 230 m 0
 68.5 364.1 176 471 304.5 470 c 0
 428.6 469 471.5 346.5 455.5 230 c 0
 437.5 105.5 350.1 -9 226.5 -9.5 c 0
 98 -10 31.5 102.4 49 230 c 0
101.3 230 m 0
 86.3 128.5 135.9 39.5 237.6 39.5 c 0
 332.1 39.5 416.2 131 431.7 232 c 0
 444.7 323 398.6 418.5 306.6 420.5 c 0
 204.4 422.5 117.8 337 101.3 230 c 0
337.5 640.5 m 1
 193.9 530.5 l 1
 165.5 557.9 l 1
 344 696.4 l 1
 477 556.4 l 1
 441.6 530.5 l 1
 337.5 640.5 l 1
EndSplineSet
EndChar

StartChar: Gbreve
Encoding: 286 286 276
Width: 748
VWidth: 0
Flags: HMW
LayerCount: 2
Fore
SplineSet
421.5 297 m 1
 431 349 l 1
 733 348.5 l 1
 699 164.5 560.5 -9.1 354.5 -9.1 c 0
 155 -9.1 47 162 74.5 350 c 0
 105.5 548 271 709.1 473.5 709.1 c 0
 591 709.6 677.9 653.5 727.4 558.5 c 1
 683.4 523.8 l 1
 645.7 604.6 569.5 653.9 468 653.4 c 0
 298.9 653.4 160.2 517.5 132.7 350 c 0
 108.7 192.6 192.7 47.1 360 46.6 c 0
 516.5 46.1 624 166.8 666.7 297 c 1
 421.5 297 l 1
355.5 909.1 m 1
 401.3 909.1 l 1
 397.8 862.1 421.6 813.1 491 812.6 c 0
 562.4 812.1 601.2 862.6 617.2 908.6 c 1
 663.5 908.1 l 1
 644 835.6 584 769.6 487 769.6 c 0
 391 769.6 349.5 835.6 355.5 909.1 c 1
EndSplineSet
EndChar

StartChar: gbreve
Encoding: 287 287 277
Width: 541
VWidth: 0
Flags: HMW
LayerCount: 2
Fore
SplineSet
16.2 -30 m 1
 67.5 -30.5 l 1
 60 -112 102.6 -180 196.5 -180.5 c 0
 292.9 -181.5 375.2 -101.8 393.2 10 c 1
 470.7 460 l 1
 522.7 460 l 1
 445.7 10 l 2
 423.7 -130 318.5 -229.5 192 -229.5 c 0
 68.5 -229.5 4.7 -142.5 16.2 -30 c 1
49 230 m 0
 68.5 364.1 176 471 304.5 470 c 0
 428.6 469 471.5 346.5 455.5 230 c 0
 437.5 105.5 350.1 -9 226.5 -9.5 c 0
 98 -10 31.5 102.4 49 230 c 0
101.3 230 m 0
 86.3 128.5 135.9 39.5 237.6 39.5 c 0
 332.1 39.5 416.2 131 431.7 232 c 0
 444.7 323 398.6 418.5 306.6 420.5 c 0
 204.4 422.5 117.8 337 101.3 230 c 0
187 670 m 1
 232.3 669.5 l 1
 228.8 622.5 252.6 574 322 573.5 c 0
 393.4 573 432.2 623.5 448.2 669.5 c 1
 494.5 669 l 1
 475 597 415 530.5 318 530.5 c 0
 222 530.5 181 596.5 187 670 c 1
EndSplineSet
EndChar

StartChar: Gdotaccent
Encoding: 288 288 278
Width: 748
VWidth: 0
Flags: HMW
LayerCount: 2
Fore
SplineSet
421.5 297 m 1
 431 349 l 1
 733 348.5 l 1
 699 164.5 560.5 -9.1 354.5 -9.1 c 0
 155 -9.1 47 162 74.5 350 c 0
 105.5 548 271 709.1 473.5 709.1 c 0
 591 709.6 677.9 653.5 727.4 558.5 c 1
 683.4 523.8 l 1
 645.7 604.6 569.5 653.9 468 653.4 c 0
 298.9 653.4 160.2 517.5 132.7 350 c 0
 108.7 192.6 192.7 47.1 360 46.6 c 0
 516.5 46.1 624 166.8 666.7 297 c 1
 421.5 297 l 1
455.3 807.3 m 0
 457.3 825.7 478.8 844.5 497.5 843.5 c 0
 516.7 842.5 530.7 825.2 528.7 805.8 c 0
 526.7 787.4 505.2 768.6 486.5 769.6 c 0
 467.3 770.6 453.3 787.9 455.3 807.3 c 0
EndSplineSet
EndChar

StartChar: gdotaccent
Encoding: 289 289 279
Width: 541
VWidth: 0
Flags: HMW
LayerCount: 2
Fore
SplineSet
16.2 -30 m 1
 67.5 -30.5 l 1
 60 -112 102.6 -180 196.5 -180.5 c 0
 292.9 -181.5 375.2 -101.8 393.2 10 c 1
 470.7 460 l 1
 522.7 460 l 1
 445.7 10 l 2
 423.7 -130 318.5 -229.5 192 -229.5 c 0
 68.5 -229.5 4.7 -142.5 16.2 -30 c 1
49 230 m 0
 68.5 364.1 176 471 304.5 470 c 0
 428.6 469 471.5 346.5 455.5 230 c 0
 437.5 105.5 350.1 -9 226.5 -9.5 c 0
 98 -10 31.5 102.4 49 230 c 0
101.3 230 m 0
 86.3 128.5 135.9 39.5 237.6 39.5 c 0
 332.1 39.5 416.2 131 431.7 232 c 0
 444.7 323 398.6 418.5 306.6 420.5 c 0
 204.4 422.5 117.8 337 101.3 230 c 0
302.3 592.2 m 0
 304.3 610.6 325.8 629.4 344.5 628.4 c 0
 363.7 627.4 377.2 610.1 375.2 590.7 c 0
 373.2 572.3 351.7 553.5 333 554.5 c 0
 313.8 555.5 300.3 572.8 302.3 592.2 c 0
EndSplineSet
EndChar

StartChar: uni0122
Encoding: 290 290 280
Width: 748
VWidth: 0
Flags: HMW
LayerCount: 2
Fore
SplineSet
421.5 297 m 1
 431 349 l 1
 733 348.5 l 1
 699 164.5 560.5 -9.1 354.5 -9.1 c 0
 155 -9.1 47 162 74.5 350 c 0
 105.5 548 271 709.1 473.5 709.1 c 0
 591 709.6 677.9 653.5 727.4 558.5 c 1
 683.4 523.8 l 1
 645.7 604.6 569.5 653.9 468 653.4 c 0
 298.9 653.4 160.2 517.5 132.7 350 c 0
 108.7 192.6 192.7 47.1 360 46.6 c 0
 516.5 46.1 624 166.8 666.7 297 c 1
 421.5 297 l 1
362.1 -70.1 m 1
 412.3 -90.6 l 1
 261.3 -338.1 l 1
 226.2 -324.9 l 1
 362.1 -70.1 l 1
EndSplineSet
EndChar

StartChar: Hcircumflex
Encoding: 292 292 281
Width: 666
VWidth: 0
Flags: HMW
LayerCount: 2
Fore
SplineSet
143.7 354.9 m 1
 152.2 406.9 l 1
 611.2 406.9 l 1
 602.7 354.9 l 1
 143.7 354.9 l 1
623.7 699.5 m 1
 679.9 700 l 1
 558.4 0 l 1
 505.2 0 l 1
 623.7 699.5 l 1
173 699.5 m 1
 228.7 700 l 1
 108.2 0 l 1
 54.5 0 l 1
 173 699.5 l 1
459.2 879.6 m 1
 315.4 770.1 l 1
 286.7 797.5 l 1
 465.7 936 l 1
 598.7 795.5 l 1
 563.1 769.6 l 1
 459.2 879.6 l 1
EndSplineSet
EndChar

StartChar: hcircumflex
Encoding: 293 293 282
Width: 489
VWidth: 0
Flags: HMW
LayerCount: 2
Fore
SplineSet
234.5 780 m 1
 100 0 l 1
 48.5 0 l 1
 182.5 780 l 1
 234.5 780 l 1
386.5 296 m 2
 395 362.5 379 419 305 420.5 c 0
 224.3 422 165.5 352.3 147.5 281 c 1
 124.2 281 l 1
 144.2 379.5 219.5 469.5 321 469.5 c 0
 418 469.5 450 394 438.5 302 c 1
 386 0 l 1
 335.5 0 l 1
 386.5 296 l 2
246.2 950.5 m 1
 102.4 840.5 l 1
 73.7 867.9 l 1
 252.7 1006.4 l 1
 385.7 866.4 l 1
 350.1 840.5 l 1
 246.2 950.5 l 1
EndSplineSet
EndChar

StartChar: Itilde
Encoding: 296 296 283
Width: 212
VWidth: 0
Flags: HMW
LayerCount: 2
Fore
SplineSet
171.5 699.5 m 1
 226.5 700 l 1
 105.5 0 l 1
 52.5 0 l 1
 171.5 699.5 l 1
77.4 817.8 m 1
 92.9 854.3 127.5 889.5 173 888.5 c 0
 223 888 239 841 285.5 842.5 c 0
 311 843.5 330.5 864.5 349 889.5 c 1
 376.1 862 l 1
 355.1 830 321.1 797.5 279.1 798.5 c 0
 232.6 799.5 211.6 845 169.6 844.5 c 0
 133.6 844 117.6 815 109.1 794.5 c 1
 77.4 817.8 l 1
EndSplineSet
EndChar

StartChar: itilde
Encoding: 297 297 284
Width: 224
VWidth: 0
Flags: HMW
LayerCount: 2
Fore
SplineSet
138 459.5 m 1
 190.5 460 l 1
 110.5 0 l 1
 60 0 l 1
 138 459.5 l 1
43.4 577.8 m 1
 58.9 614.3 93.5 649.5 139 648.5 c 0
 189 648 205 601 251.5 602.5 c 0
 277 603.5 296.5 624.5 315 649.5 c 1
 342.1 622 l 1
 321.1 590 286.6 557.5 244.6 558.5 c 0
 198.1 559.5 177.6 605 135.6 604.5 c 0
 99.6 604 83.6 575 75.1 554.5 c 1
 43.4 577.8 l 1
EndSplineSet
EndChar

StartChar: Imacron
Encoding: 298 298 285
Width: 212
VWidth: 0
Flags: HMW
LayerCount: 2
Fore
SplineSet
171.5 699.5 m 1
 226.5 700 l 1
 105.5 0 l 1
 52.5 0 l 1
 171.5 699.5 l 1
58.5 796.5 m 1
 66.5 845 l 1
 407.5 845 l 1
 399 796 l 1
 58.5 796.5 l 1
EndSplineSet
EndChar

StartChar: imacron
Encoding: 299 299 286
Width: 224
VWidth: 0
Flags: HMW
LayerCount: 2
Fore
SplineSet
138 459.5 m 1
 190.5 460 l 1
 110.5 0 l 1
 60 0 l 1
 138 459.5 l 1
24 556.5 m 1
 32.5 605 l 1
 373 605 l 1
 365 556 l 1
 24 556.5 l 1
EndSplineSet
EndChar

StartChar: Ibreve
Encoding: 300 300 287
Width: 212
VWidth: 0
Flags: HMW
LayerCount: 2
Fore
SplineSet
171.5 699.5 m 1
 226.5 700 l 1
 105.5 0 l 1
 52.5 0 l 1
 171.5 699.5 l 1
80.5 910 m 1
 125.3 909.5 l 1
 121.8 862.5 146.1 814 215.5 813.5 c 0
 286.9 813 325.7 863.5 341.7 909.5 c 1
 388 909 l 1
 368.5 837 309 770.5 212 770.5 c 0
 116 770.5 74.5 836.5 80.5 910 c 1
EndSplineSet
EndChar

StartChar: ibreve
Encoding: 301 301 288
Width: 224
VWidth: 0
Flags: HMW
LayerCount: 2
Fore
SplineSet
138 459.5 m 1
 190.5 460 l 1
 110.5 0 l 1
 60 0 l 1
 138 459.5 l 1
46 670 m 1
 91.3 669.5 l 1
 87.8 622.5 111.6 574 181 573.5 c 0
 252.4 573 291.2 623.5 307.2 669.5 c 1
 353.5 669 l 1
 334 597 274.5 530.5 177.5 530.5 c 0
 81.5 530.5 40 596.5 46 670 c 1
EndSplineSet
EndChar

StartChar: Iogonek
Encoding: 302 302 289
Width: 212
VWidth: 0
Flags: HMW
LayerCount: 2
Fore
SplineSet
171.5 699.5 m 1
 226.5 700 l 1
 105.5 0 l 1
 52.5 0 l 1
 171.5 699.5 l 1
96.3 -147.6 m 1
 113.6 -181.5 l 1
 91.1 -201 58.6 -219.5 18.6 -219.5 c 0
 -46.9 -220 -87.4 -184 -79.4 -127.5 c 0
 -68.4 -58 13.8 -14.5 81.3 18.5 c 1
 106.5 0 l 1
 52.8 -26 -18.9 -63 -26.9 -116 c 0
 -30.9 -151.5 -7.9 -172 26.6 -173.5 c 0
 54.9 -174.5 78.6 -161.1 96.3 -147.6 c 1
EndSplineSet
EndChar

StartChar: iogonek
Encoding: 303 303 290
Width: 224
VWidth: 0
Flags: HMW
LayerCount: 2
Fore
SplineSet
163 668.5 m 0
 165 686.7 186.1 705.5 205 704.5 c 0
 224.4 703.5 238 686.7 236 667.5 c 0
 234 649.3 212.9 630.5 194 631.5 c 0
 174.6 632.5 161 649.3 163 668.5 c 0
138 459.5 m 1
 190.5 460 l 1
 110.5 0 l 1
 60 0 l 1
 138 459.5 l 1
101.3 -147.6 m 1
 118.6 -181.5 l 1
 96.1 -201 63.6 -219.5 23.6 -219.5 c 0
 -41.9 -220 -82.9 -184 -74.9 -127.5 c 0
 -63.9 -58 18.8 -14.5 86.3 18.5 c 1
 111.5 0 l 1
 57.8 -26 -13.9 -63 -21.9 -116 c 0
 -25.9 -151.5 -2.9 -172 31.6 -173.5 c 0
 59.9 -174.5 83.6 -161.1 101.3 -147.6 c 1
EndSplineSet
EndChar

StartChar: Idotaccent
Encoding: 304 304 291
Width: 212
VWidth: 0
Flags: HMW
LayerCount: 2
Fore
SplineSet
171.5 699.5 m 1
 226.5 700 l 1
 105.5 0 l 1
 52.5 0 l 1
 171.5 699.5 l 1
180.4 810.2 m 0
 182.4 828.6 203.9 847.4 222.6 846.4 c 0
 241.8 845.4 255.8 828.1 253.8 808.7 c 0
 251.8 790.3 230.3 771.5 211.6 772.5 c 0
 192.4 773.5 178.4 790.8 180.4 810.2 c 0
EndSplineSet
EndChar

StartChar: uni0136
Encoding: 310 310 292
Width: 504
VWidth: 0
Flags: HMW
LayerCount: 2
Fore
SplineSet
171.5 699.5 m 1
 226.7 700 l 1
 106.2 0 l 1
 52.5 0 l 1
 171.5 699.5 l 1
505.6 699.5 m 1
 576.3 699.5 l 1
 218.9 370.5 l 1
 468.8 0 l 1
 402.9 0 l 1
 153.5 372.4 l 1
 505.6 699.5 l 1
270 -61 m 1
 320.2 -81.5 l 1
 169.7 -329 l 1
 134.6 -315.8 l 1
 270 -61 l 1
EndSplineSet
EndChar

StartChar: uni0137
Encoding: 311 311 293
Width: 399
VWidth: 0
Flags: HMW
LayerCount: 2
Fore
SplineSet
177 779.5 m 1
 229.5 780 l 1
 95 0 l 1
 44.5 0 l 1
 177 779.5 l 1
363.6 459.5 m 1
 431.3 459.5 l 1
 186.4 269 l 1
 368.9 0 l 1
 306.6 0 l 1
 123.1 271.5 l 1
 363.6 459.5 l 1
216.8 -61 m 1
 266.5 -81.5 l 1
 116 -329 l 1
 80.9 -315.8 l 1
 216.8 -61 l 1
EndSplineSet
EndChar

StartChar: Lacute
Encoding: 313 313 294
Width: 428
VWidth: 0
Flags: HMW
LayerCount: 2
Fore
SplineSet
173.5 700 m 1
 228.5 700 l 1
 117 52 l 1
 397.5 52 l 1
 388.5 0 l 1
 53.5 0 l 1
 173.5 700 l 1
523.2 920 m 1
 325.4 770.1 l 1
 299.1 790.6 l 1
 479.6 948.6 l 1
 523.2 920 l 1
EndSplineSet
EndChar

StartChar: lacute
Encoding: 314 314 295
Width: 203
VWidth: 0
Flags: HMW
LayerCount: 2
Fore
SplineSet
182 779.5 m 1
 234.5 780 l 1
 99.5 0 l 1
 49.5 0 l 1
 182 779.5 l 1
389.2 990.9 m 1
 190.9 841 l 1
 164.6 861.5 l 1
 345.1 1019.5 l 1
 389.2 990.9 l 1
EndSplineSet
EndChar

StartChar: uni013B
Encoding: 315 315 296
Width: 428
VWidth: 0
Flags: HMW
LayerCount: 2
Fore
SplineSet
173.5 700 m 1
 228.5 700 l 1
 117 52 l 1
 397.5 52 l 1
 388.5 0 l 1
 53.5 0 l 1
 173.5 700 l 1
215.1 -61 m 1
 264.8 -81.5 l 1
 114.8 -329 l 1
 79.2 -315.8 l 1
 215.1 -61 l 1
EndSplineSet
EndChar

StartChar: uni013C
Encoding: 316 316 297
Width: 203
VWidth: 0
Flags: HMW
LayerCount: 2
Fore
SplineSet
182 779.5 m 1
 234.5 780 l 1
 99.5 0 l 1
 49.5 0 l 1
 182 779.5 l 1
76.6 -61 m 1
 126.3 -81.5 l 1
 -24.2 -329 l 1
 -59.3 -315.8 l 1
 76.6 -61 l 1
EndSplineSet
EndChar

StartChar: Lcaron
Encoding: 317 317 298
Width: 428
VWidth: 0
Flags: HMW
LayerCount: 2
Fore
SplineSet
173.5 700 m 1
 228.5 700 l 1
 117 52 l 1
 397.5 52 l 1
 388.5 0 l 1
 53.5 0 l 1
 173.5 700 l 1
417.9 708.1 m 1
 467.6 687.6 l 1
 317.6 440.1 l 1
 282 453.8 l 1
 417.9 708.1 l 1
EndSplineSet
EndChar

StartChar: lcaron
Encoding: 318 318 299
Width: 223
VWidth: 0
Flags: HMW
LayerCount: 2
Fore
SplineSet
182 779.5 m 1
 234.5 780 l 1
 99.5 0 l 1
 49.5 0 l 1
 182 779.5 l 1
398.9 772.8 m 1
 448.6 751.8 l 1
 298.6 504.8 l 1
 262.5 518 l 1
 398.9 772.8 l 1
EndSplineSet
EndChar

StartChar: Ldot
Encoding: 319 319 300
Width: 428
VWidth: 0
Flags: HMW
LayerCount: 2
Fore
SplineSet
173.5 700 m 1
 228.5 700 l 1
 117 52 l 1
 397.5 52 l 1
 388.5 0 l 1
 53.5 0 l 1
 173.5 700 l 1
296.3 415.3 m 0
 298.3 433.7 319.8 452.5 338.5 451.5 c 0
 357.7 450.5 371.7 433.2 369.7 413.8 c 0
 367.7 395.4 346.2 376.6 327.5 377.6 c 0
 308.3 378.6 294.3 395.9 296.3 415.3 c 0
EndSplineSet
EndChar

StartChar: ldot
Encoding: 320 320 301
Width: 359
VWidth: 0
Flags: HMW
LayerCount: 2
Fore
SplineSet
182 779.5 m 1
 234.5 780 l 1
 99.5 0 l 1
 49.5 0 l 1
 182 779.5 l 1
256.5 408.2 m 0
 258.5 426.6 280 445.4 298.7 444.4 c 0
 317.9 443.4 331.9 426.1 329.9 406.7 c 0
 327.9 388.3 306.4 369.5 287.7 370.5 c 0
 268.5 371.5 254.5 388.8 256.5 408.2 c 0
EndSplineSet
EndChar

StartChar: eth
Encoding: 240 240 302
Width: 543
VWidth: 0
Flags: HMW
LayerCount: 2
Fore
SplineSet
455.2 226 m 0
 470.2 318.5 417.3 407.4 311.8 407.4 c 0
 213.5 407.4 127.3 323.5 111.3 226 c 0
 96.3 130 146 41.1 249.5 40.6 c 0
 355 40.1 438.7 125.9 455.2 226 c 0
315 700 m 1
 484.6 376.8 l 2
 505.1 333.3 515 279 507 226 c 0
 487 94.5 380 -9.5 245 -9.5 c 0
 111.5 -9.5 40.5 100 59 226.5 c 0
 77.5 344.5 178.5 448 297 448.5 c 0
 350 448.5 389.4 429.6 420.4 390.3 c 1
 417.6 388.3 l 1
 249.5 700 l 1
 315 700 l 1
212 542.5 m 1
 218.5 584.5 l 1
 499 584.5 l 1
 492 542.5 l 1
 212 542.5 l 1
EndSplineSet
EndChar

StartChar: racute
Encoding: 341 341 303
Width: 311
VWidth: 0
Flags: HMW
LayerCount: 2
Fore
SplineSet
179.5 460 m 1
 100 0 l 1
 48 0 l 1
 128 460 l 1
 179.5 460 l 1
318.5 399.6 m 1
 301 411.8 285.3 420.5 264 421 c 0
 193 422.5 160 347.5 147.5 281 c 1
 123.7 281 l 1
 139.7 373 196 470.5 280.5 469.5 c 0
 308.5 469.5 331.3 458.9 352.4 441 c 1
 318.5 399.6 l 1
408.5 680.9 m 1
 210.2 530.5 l 1
 184.7 551.5 l 1
 365.2 709.5 l 1
 408.5 680.9 l 1
EndSplineSet
EndChar

StartChar: rcaron
Encoding: 345 345 304
Width: 311
VWidth: 0
Flags: HMW
LayerCount: 2
Fore
SplineSet
179.5 460 m 1
 100 0 l 1
 48 0 l 1
 128 460 l 1
 179.5 460 l 1
318.5 399.6 m 1
 301 411.8 285.3 420.5 264 421 c 0
 193 422.5 160 347.5 147.5 281 c 1
 123.7 281 l 1
 139.7 373 196 470.5 280.5 469.5 c 0
 308.5 469.5 331.3 458.9 352.4 441 c 1
 318.5 399.6 l 1
260.8 586.4 m 1
 403.7 696.6 l 1
 432.8 668.5 l 1
 254.3 530 l 1
 120.8 670.5 l 1
 156.9 697.1 l 1
 260.8 586.4 l 1
EndSplineSet
EndChar

StartChar: Rcaron
Encoding: 344 344 305
Width: 507
VWidth: 0
Flags: HMW
LayerCount: 2
Fore
SplineSet
226.3 333.9 m 1
 285.7 333.9 l 1
 460.6 0 l 1
 395.8 0 l 1
 226.3 333.9 l 1
173 699.5 m 1
 228.7 700 l 1
 108.2 0 l 1
 54.5 0 l 1
 173 699.5 l 1
192.5 650.8 m 1
 201.5 700 l 1
 327.5 700 l 1
 453.5 697.5 544.6 620.9 525.1 496.4 c 0
 505.1 369.9 392 296.3 261.5 293.8 c 1
 131.5 293.8 l 1
 140.5 342.8 l 1
 266 342.8 l 1
 368.4 345.3 453.9 399 470.9 496.9 c 0
 486.9 592.8 420.2 647.8 322.5 650.3 c 1
 192.5 650.8 l 1
348.6 825.5 m 1
 491.5 935.7 l 1
 521.1 908.1 l 1
 342.1 769.6 l 1
 209.1 909.6 l 1
 244.7 936.2 l 1
 348.6 825.5 l 1
EndSplineSet
EndChar

StartChar: uni0213
Encoding: 531 531 306
Width: 311
VWidth: 0
Flags: HMW
LayerCount: 2
Fore
SplineSet
179.5 460 m 1
 100 0 l 1
 48 0 l 1
 128 460 l 1
 179.5 460 l 1
318.5 399.6 m 1
 301 411.8 285.3 420.5 264 421 c 0
 193 422.5 160 347.5 147.5 281 c 1
 123.7 281 l 1
 139.7 373 196 470.5 280.5 469.5 c 0
 308.5 469.5 331.3 458.9 352.4 441 c 1
 318.5 399.6 l 1
100.6 538 m 1
 147.9 538.5 l 1
 163.4 585 201.7 634.5 273.1 634.5 c 0
 343 634.5 368.8 585.5 365.8 537.5 c 1
 407.1 538 l 1
 415.1 610 376.6 676.5 281.1 677.5 c 0
 182.6 678.5 121.6 610 100.6 538 c 1
EndSplineSet
EndChar

StartChar: uni0212
Encoding: 530 530 307
Width: 507
VWidth: 0
Flags: HMW
LayerCount: 2
Fore
SplineSet
226.3 333.9 m 1
 285.7 333.9 l 1
 460.6 0 l 1
 395.8 0 l 1
 226.3 333.9 l 1
173 699.5 m 1
 228.7 700 l 1
 108.2 0 l 1
 54.5 0 l 1
 173 699.5 l 1
192.5 650.8 m 1
 201.5 700 l 1
 327.5 700 l 1
 453.5 697.5 544.6 620.9 525.1 496.4 c 0
 505.1 369.9 392 296.3 261.5 293.8 c 1
 131.5 293.8 l 1
 140.5 342.8 l 1
 266 342.8 l 1
 368.4 345.3 453.9 399 470.9 496.9 c 0
 486.9 592.8 420.2 647.8 322.5 650.3 c 1
 192.5 650.8 l 1
210.1 769.6 m 1
 257.4 769.6 l 1
 272.9 816.1 311.2 865.6 382.6 865.6 c 0
 452.5 865.6 477.8 817.1 474.8 769.1 c 1
 516.6 769.1 l 1
 524.6 841.1 486.1 907.6 390.6 908.6 c 0
 292.1 909.6 231.1 841.6 210.1 769.6 c 1
EndSplineSet
EndChar

StartChar: OE
Encoding: 338 338 308
Width: 942
VWidth: 0
Flags: HMW
LayerCount: 2
Fore
SplineSet
562 358.5 m 1
 571 410 l 1
 894.5 410 l 1
 886 358 l 1
 562 358.5 l 1
588 679.5 m 1
 643.7 680 l 1
 529.2 20 l 1
 476 20.5 l 1
 588 679.5 l 1
853 51.5 m 1
 844.5 0 l 1
 353.5 0 l 1
 154 3.5 42 158.5 70.5 350 c 0
 102 550 264.5 697 468.5 700 c 1
 963.5 700 l 1
 954 648 l 1
 619.5 648 l 1
 603 648 l 1
 464 648 l 1
 291 645 153 519 125 350 c 0
 99.5 189.5 189.5 55.5 358 52 c 1
 494 52 l 1
 517.5 52 l 1
 853 51.5 l 1
EndSplineSet
EndChar

StartChar: oe
Encoding: 339 339 309
Width: 883
VWidth: 0
Flags: HMW
LayerCount: 2
Fore
SplineSet
807.5 250 m 1
 820.5 335 783.5 422.5 684 423.5 c 0
 582 424.5 506.5 341.4 486 249.4 c 1
 481.9 230.9 l 1
 467.9 129.9 508 41 614 39.5 c 0
 690.1 38.5 748.5 81.8 791.6 133.5 c 1
 829.7 105.3 l 1
 774.7 40.8 705 -10 610 -9.5 c 0
 479.5 -8.5 420.9 109.5 437.4 230 c 0
 439.9 247 443.9 263 449.4 279 c 0
 483.9 385 577.5 470.5 693.5 469.5 c 0
 811 468.5 875.7 360.8 860.2 241.8 c 0
 859.2 233.8 857 225.6 855 217.6 c 1
 803.3 230.3 l 1
 807.5 250 l 1
466.8 217.6 m 1
 473.8 261.5 l 1
 850 262 l 1
 855 217.1 l 1
 466.8 217.6 l 1
49 230 m 0
 68.5 364 175.5 470 302.5 469.5 c 0
 427 469 478.4 355 461.9 230 c 0
 442.9 98 348.5 -9 224.5 -9.5 c 0
 97.5 -10 31.5 102 49 230 c 0
101.3 230 m 0
 86.8 129 134.3 39.5 235.6 39.5 c 0
 327.6 39.5 409.7 126.5 425.7 230 c 0
 438.7 326.5 396.6 418.5 305.1 420.5 c 0
 203.3 422.5 117.8 336.5 101.3 230 c 0
EndSplineSet
EndChar

StartChar: a.alt
Encoding: 65536 -1 310
Width: 451
VWidth: 0
Flags: HMW
LayerCount: 2
Fore
SplineSet
80 135 m 0
 71 72.5 112.5 38 173.5 37.5 c 0
 259 36.5 321.5 93 341.5 171.5 c 1
 348 141 l 1
 327.5 55.5 255 -10 157.5 -9.5 c 0
 73 -9 15.5 46.5 28 131.5 c 0
 43 230 138 284 237 283.5 c 0
 304.5 283 346.5 255.5 372 228.5 c 1
 366.5 197.5 l 1
 331 226 289.5 243 235.5 242.5 c 0
 160 242 91.5 205 80 135 c 0
133.5 369.5 m 1
 114 410.5 l 1
 158 439.5 215 470 286 469.5 c 0
 378 468.5 431 410.5 418 326 c 2
 362 0 l 1
 310 0 l 1
 367.5 326 l 2
 376 382 343.5 422 281.5 423 c 0
 221 424 170.5 394.5 133.5 369.5 c 1
EndSplineSet
EndChar

StartChar: Jcircumflex
Encoding: 308 308 312
Width: 215
VWidth: 0
Flags: HMW
LayerCount: 2
Fore
SplineSet
-138.5 -126.3 m 1
 -120 -149.5 -93.8 -167.8 -57.3 -167.3 c 0
 2 -166.8 37.2 -120 47.7 -50 c 1
 176.2 700 l 1
 228.4 700 l 1
 98.4 -60.5 l 2
 83.4 -155.5 29.4 -220.5 -65.1 -219.5 c 0
 -113.1 -219 -152.6 -193 -173.1 -167.5 c 1
 -138.5 -126.3 l 1
234.4 879.6 m 1
 90.6 770.1 l 1
 62.4 797.5 l 1
 240.9 936 l 1
 373.9 795.5 l 1
 338.3 769.6 l 1
 234.4 879.6 l 1
EndSplineSet
EndChar

StartChar: jcircumflex
Encoding: 309 309 313
Width: 215
VWidth: 0
Flags: HMW
LayerCount: 2
Fore
SplineSet
-98.8 -134.7 m 1
 -85.9 -153.6 -69.2 -167.5 -46 -168 c 0
 6 -168.5 30.5 -114.9 39 -62.9 c 2
 129 460 l 1
 180.5 460 l 1
 90.5 -68.9 l 2
 77.5 -150.4 30.5 -221.5 -54.5 -219.5 c 0
 -92.5 -219 -116.4 -197.9 -133.4 -175.9 c 1
 -98.8 -134.7 l 1
187 640.5 m 1
 43.9 530.5 l 1
 14.5 557.9 l 1
 193.5 696.4 l 1
 326.5 556.4 l 1
 291.6 530.5 l 1
 187 640.5 l 1
EndSplineSet
EndChar

StartChar: Nacute
Encoding: 323 323 314
Width: 709
VWidth: 0
Flags: HMW
LayerCount: 2
Fore
SplineSet
674.3 700 m 1
 729 700 l 1
 604 -26.5 l 1
 193.7 583.9 l 1
 92.7 0 l 1
 37.5 0 l 1
 162.5 726.5 l 1
 573.3 114.1 l 1
 674.3 700 l 1
639.2 905.9 m 1
 441.4 756 l 1
 415.1 776.5 l 1
 595.6 934.5 l 1
 639.2 905.9 l 1
EndSplineSet
EndChar

StartChar: nacute
Encoding: 324 324 315
Width: 489
VWidth: 0
Flags: HMW
LayerCount: 2
Fore
SplineSet
179.5 460 m 1
 100 0 l 1
 48 0 l 1
 128 460 l 1
 179.5 460 l 1
386.5 296 m 2
 395 362.5 379 419 305 420.5 c 0
 224.3 422 165.5 352.3 147.5 281 c 1
 129.7 281 l 1
 149.2 379.5 220 469.5 321 469.5 c 0
 418 469.5 450 394 438.5 302 c 1
 386 0 l 1
 335.5 0 l 1
 386.5 296 l 2
473.2 684.9 m 1
 276.1 534.5 l 1
 249.9 555.5 l 1
 430.4 713.5 l 1
 473.2 684.9 l 1
EndSplineSet
EndChar

StartChar: uni0145
Encoding: 325 325 316
Width: 709
VWidth: 0
Flags: HMW
LayerCount: 2
Fore
SplineSet
330.6 -40 m 1
 380.3 -60.5 l 1
 229.8 -308 l 1
 194.7 -294.8 l 1
 330.6 -40 l 1
674.3 700 m 1
 729 700 l 1
 604 -26.5 l 1
 193.7 583.9 l 1
 92.7 0 l 1
 37.5 0 l 1
 162.5 726.5 l 1
 573.3 114.1 l 1
 674.3 700 l 1
EndSplineSet
EndChar

StartChar: uni0146
Encoding: 326 326 317
Width: 489
VWidth: 0
Flags: HMW
LayerCount: 2
Fore
SplineSet
179.5 460 m 1
 100 0 l 1
 48 0 l 1
 128 460 l 1
 179.5 460 l 1
386.5 296 m 2
 395 362.5 379 419 305 420.5 c 0
 224.3 422 165.5 352.3 147.5 281 c 1
 124.2 281 l 1
 144.2 379.5 219.5 469.5 321 469.5 c 0
 418 469.5 450 394 438.5 302 c 1
 386 0 l 1
 335.5 0 l 1
 386.5 296 l 2
216.6 -53 m 1
 267 -73.5 l 1
 116.5 -321 l 1
 80.9 -307.8 l 1
 216.6 -53 l 1
EndSplineSet
EndChar

StartChar: Ncaron
Encoding: 327 327 318
Width: 709
VWidth: 0
Flags: HMW
LayerCount: 2
Fore
SplineSet
479 839.4 m 1
 621.9 949.6 l 1
 651 921.5 l 1
 472.5 783 l 1
 339.5 923.5 l 1
 375.1 950.1 l 1
 479 839.4 l 1
674.3 700 m 1
 729 700 l 1
 604 -26.5 l 1
 193.7 583.9 l 1
 92.7 0 l 1
 37.5 0 l 1
 162.5 726.5 l 1
 573.3 114.1 l 1
 674.3 700 l 1
EndSplineSet
EndChar

StartChar: ncaron
Encoding: 328 328 319
Width: 489
VWidth: 0
Flags: HMW
LayerCount: 2
Fore
SplineSet
179.5 460 m 1
 100 0 l 1
 48 0 l 1
 128 460 l 1
 179.5 460 l 1
386.5 296 m 2
 395 362.5 379 419 305 420.5 c 0
 224.3 422 165.5 352.3 147.5 281 c 1
 124.2 281 l 1
 144.2 379.5 219.5 469.5 321 469.5 c 0
 418 469.5 450 394 438.5 302 c 1
 386 0 l 1
 335.5 0 l 1
 386.5 296 l 2
316.2 586.4 m 1
 459.1 696.6 l 1
 488.2 668.5 l 1
 309.7 530 l 1
 176.2 670.5 l 1
 211.8 697.1 l 1
 316.2 586.4 l 1
EndSplineSet
EndChar

StartChar: Omacron
Encoding: 332 332 320
Width: 760
VWidth: 0
Flags: HMW
LayerCount: 2
Fore
SplineSet
132.7 350 m 0
 108.7 193.9 190.3 47.6 358.9 46.6 c 0
 529.5 45.6 666.1 185.4 693.1 350 c 0
 717.1 506.1 635.5 652.4 466.9 653.4 c 0
 296.3 654.4 159.7 514.6 132.7 350 c 0
74.5 350 m 0
 105 546 269.9 709.6 471.9 709.1 c 0
 671.4 708.6 778.8 536.5 751.3 350 c 0
 720.8 154 555.9 -9.6 353.9 -9.1 c 0
 154.4 -8.6 47 163.5 74.5 350 c 0
315.9 777.6 m 1
 323.9 826.1 l 1
 664.9 826.1 l 1
 656.4 777.1 l 1
 315.9 777.6 l 1
EndSplineSet
EndChar

StartChar: omacron
Encoding: 333 333 321
Width: 533
VWidth: 0
Flags: HMW
LayerCount: 2
Fore
SplineSet
49 230 m 0
 69 361.5 183.1 469.5 318 469.5 c 0
 451.4 469.5 527.5 356.5 509 230 c 0
 489 98.5 374.9 -9.5 240 -9.5 c 0
 106.6 -9.5 30.5 103.5 49 230 c 0
101.3 230 m 0
 85.8 131.4 140 40 244.5 39.5 c 0
 350.5 39 439.7 125.9 456.7 230 c 0
 472.2 328.6 418 420 313.5 420.5 c 0
 207.5 421 118.3 334.1 101.3 230 c 0
162 538.5 m 1
 170 587 l 1
 510.5 587 l 1
 502.5 538 l 1
 162 538.5 l 1
EndSplineSet
EndChar

StartChar: Obreve
Encoding: 334 334 322
Width: 760
VWidth: 0
Flags: HMW
LayerCount: 2
Fore
SplineSet
132.7 350 m 0
 108.7 193.9 190.3 47.6 358.9 46.6 c 0
 529.5 45.6 666.1 185.4 693.1 350 c 0
 717.1 506.1 635.5 652.4 466.9 653.4 c 0
 296.3 654.4 159.7 514.6 132.7 350 c 0
74.5 350 m 0
 105 546 269.9 709.6 471.9 709.1 c 0
 671.4 708.6 778.8 536.5 751.3 350 c 0
 720.8 154 555.9 -9.6 353.9 -9.1 c 0
 154.4 -8.6 47 163.5 74.5 350 c 0
354.4 909.1 m 1
 399.7 909.1 l 1
 396.2 862.1 420.5 813.1 489.9 812.6 c 0
 561.3 812.1 600.1 862.6 616.1 908.6 c 1
 662.4 908.1 l 1
 642.9 836.1 582.9 769.6 485.9 769.6 c 0
 389.9 769.6 348.4 835.6 354.4 909.1 c 1
EndSplineSet
EndChar

StartChar: obreve
Encoding: 335 335 323
Width: 533
VWidth: 0
Flags: HMW
LayerCount: 2
Fore
SplineSet
49 230 m 0
 69 361.5 183.1 469.5 318 469.5 c 0
 451.4 469.5 527.5 356.5 509 230 c 0
 489 98.5 374.9 -9.5 240 -9.5 c 0
 106.6 -9.5 30.5 103.5 49 230 c 0
101.3 230 m 0
 85.8 131.4 140 40 244.5 39.5 c 0
 350.5 39 439.7 125.9 456.7 230 c 0
 472.2 328.6 418 420 313.5 420.5 c 0
 207.5 421 118.3 334.1 101.3 230 c 0
200.5 670 m 1
 245.8 669.5 l 1
 242.3 622.5 266.1 574 335.5 573.5 c 0
 406.9 573 445.7 623.5 461.7 669.5 c 1
 508 669 l 1
 488.5 597 429 530.5 332 530.5 c 0
 236 530.5 194.5 596.5 200.5 670 c 1
EndSplineSet
EndChar

StartChar: Racute
Encoding: 340 340 324
Width: 507
VWidth: 0
Flags: HMW
LayerCount: 2
Fore
SplineSet
226.3 333.9 m 1
 285.7 333.9 l 1
 460.6 0 l 1
 395.8 0 l 1
 226.3 333.9 l 1
173 699.5 m 1
 228.7 700 l 1
 108.2 0 l 1
 54.5 0 l 1
 173 699.5 l 1
192.5 650.8 m 1
 201.5 700 l 1
 327.5 700 l 1
 453.5 697.5 544.6 620.9 525.1 496.4 c 0
 505.1 369.9 392 296.3 261.5 293.8 c 1
 131.5 293.8 l 1
 140.5 342.8 l 1
 266 342.8 l 1
 368.4 345.3 453.9 399 470.9 496.9 c 0
 486.9 592.8 420.2 647.8 322.5 650.3 c 1
 192.5 650.8 l 1
507.6 920 m 1
 310 770.1 l 1
 283 790.6 l 1
 464 948.6 l 1
 507.6 920 l 1
EndSplineSet
EndChar

StartChar: uni0156
Encoding: 342 342 325
Width: 507
VWidth: 0
Flags: HMW
LayerCount: 2
Fore
SplineSet
226.3 333.9 m 1
 285.7 333.9 l 1
 460.6 0 l 1
 395.8 0 l 1
 226.3 333.9 l 1
173 699.5 m 1
 228.7 700 l 1
 108.2 0 l 1
 54.5 0 l 1
 173 699.5 l 1
192.5 650.8 m 1
 201.5 700 l 1
 327.5 700 l 1
 453.5 697.5 544.6 620.9 525.1 496.4 c 0
 505.1 369.9 392 296.3 261.5 293.8 c 1
 131.5 293.8 l 1
 140.5 342.8 l 1
 266 342.8 l 1
 368.4 345.3 453.9 399 470.9 496.9 c 0
 486.9 592.8 420.2 647.8 322.5 650.3 c 1
 192.5 650.8 l 1
247.3 -61 m 1
 297.7 -81.5 l 1
 147.7 -329 l 1
 112.1 -315.8 l 1
 247.3 -61 l 1
EndSplineSet
EndChar

StartChar: uni0157
Encoding: 343 343 326
Width: 311
VWidth: 0
Flags: HMW
LayerCount: 2
Fore
SplineSet
179.5 460 m 1
 100 0 l 1
 48 0 l 1
 128 460 l 1
 179.5 460 l 1
318.5 399.6 m 1
 301 411.8 285.3 420.5 264 421 c 0
 193 422.5 160 347.5 147.5 281 c 1
 123.7 281 l 1
 139.7 373 196 470.5 280.5 469.5 c 0
 308.5 469.5 331.3 458.9 352.4 441 c 1
 318.5 399.6 l 1
68.6 -61 m 1
 118.3 -81.5 l 1
 -31.7 -329 l 1
 -67.3 -315.8 l 1
 68.6 -61 l 1
EndSplineSet
EndChar

StartChar: Scedilla
Encoding: 350 350 327
Width: 508
VWidth: 0
Flags: HMW
LayerCount: 2
Fore
SplineSet
93.6 214.2 m 1
 113.6 129.3 150.7 44.1 249 43.6 c 0
 340.5 43.1 399.4 100.8 412.9 179.9 c 0
 427.4 269 356.4 314.9 283.2 346.2 c 0
 206.7 379 124 430.2 139 538.5 c 0
 154.5 638 245 708.6 352 708.6 c 0
 455.5 708.6 505.8 635.5 526 555.5 c 1
 477.8 527.8 l 1
 461 590.6 423.6 655.1 341.8 655.6 c 0
 267.8 656.1 206.9 605.7 195.4 537.2 c 0
 181.4 456.3 259.9 416.2 332.9 384.9 c 0
 411.9 350.3 484.5 289.7 470 183.5 c 0
 453.5 74 365 -9.1 241 -8.6 c 0
 124.5 -8.1 66 84.6 43.5 187.5 c 1
 93.6 214.2 l 1
249.3 34 m 1
 290.2 34 l 1
 214.1 -62.3 l 1
 225.2 -57.1 234.3 -52.5 247.3 -53 c 0
 282.8 -56 312 -85 307 -128 c 0
 300 -184.5 241.8 -220.5 188.3 -220.5 c 0
 153.3 -220.5 131 -207 106 -182 c 1
 132.1 -156.8 l 1
 150.9 -173.4 165.9 -184.3 191.8 -184.3 c 0
 227.4 -184.3 265.2 -160.9 269.7 -126.5 c 0
 273.2 -98 253.6 -80.9 225.6 -79.9 c 0
 204.6 -78.4 176.9 -88.1 155 -100 c 1
 249.3 34 l 1
EndSplineSet
EndChar

StartChar: scedilla
Encoding: 351 351 328
Width: 391
VWidth: 0
Flags: HMW
LayerCount: 2
Fore
SplineSet
69.4 156.3 m 1
 84.3 98.8 115 40.8 180.1 39.8 c 0
 231.4 38.8 279.4 70.9 287.4 120.5 c 0
 296.4 174.6 246.7 200 196.7 219.8 c 0
 134.7 245.5 78.1 272.9 89.6 351.9 c 0
 101.1 426.9 173.2 469.4 245.8 469.4 c 0
 315.7 469.4 359.9 429.4 380.9 375.4 c 1
 336.2 350.5 l 1
 319.7 388.4 289.6 421 241.6 421.5 c 0
 195.1 422 147.5 398.6 140 353.3 c 0
 130 296.4 188.6 278.1 237.9 258.8 c 0
 298.6 233.9 350.3 195.2 340.8 125.2 c 0
 329.3 40.7 258.1 -9.2 175.6 -8.7 c 0
 86.1 -8.2 41.5 58.5 25 132.5 c 1
 69.4 156.3 l 1
183.1 33.9 m 1
 225.1 33.9 l 1
 148.2 -62.4 l 1
 158.8 -57.2 167.6 -53.1 180.6 -53.6 c 0
 216.6 -56.6 245.9 -84.6 241.4 -128.1 c 0
 234.9 -185.1 175.6 -221.1 122.1 -220.6 c 0
 87.1 -220.1 65.9 -207.1 40.9 -182.1 c 1
 65.9 -156.9 l 1
 84.7 -173.5 99.7 -184.4 125.6 -184.4 c 0
 161.2 -184.4 199 -161.5 203.5 -127.1 c 0
 207 -98.6 186.9 -81 158.9 -80 c 0
 137.9 -78.5 111.8 -88.7 89.9 -100.6 c 1
 183.1 33.9 l 1
EndSplineSet
EndChar

StartChar: Zcaron
Encoding: 381 381 329
Width: 524
VWidth: 0
Flags: HMW
LayerCount: 2
Fore
SplineSet
118.5 647.8 m 1
 128 700 l 1
 601.5 699.5 l 1
 91 52.7 l 1
 475 52.2 l 1
 465.5 0 l 1
 -12.5 0 l 1
 498.5 647.3 l 1
 118.5 647.8 l 1
383.5 825.5 m 1
 526.4 935.7 l 1
 556 908.1 l 1
 377 769.6 l 1
 244 909.6 l 1
 279.6 936.2 l 1
 383.5 825.5 l 1
EndSplineSet
EndChar

StartChar: zcaron
Encoding: 382 382 330
Width: 434
VWidth: 0
Flags: HMW
LayerCount: 2
Fore
SplineSet
299 586.4 m 1
 442.4 696.6 l 1
 471 668.5 l 1
 292.5 530 l 1
 159.5 670.5 l 1
 195.1 697.1 l 1
 299 586.4 l 1
363.5 410.5 m 1
 84 411 l 1
 92.5 460 l 1
 467.5 459.5 l 1
 91 49.5 l 1
 388.5 49 l 1
 380 0 l 1
 -12.5 0 l 1
 363.5 410.5 l 1
EndSplineSet
EndChar

StartChar: Ydieresis
Encoding: 376 376 331
Width: 523
VWidth: 0
Flags: HMW
LayerCount: 2
Fore
SplineSet
242.7 807.3 m 0
 244.7 825.7 265.6 844.5 284.3 843.5 c 0
 303.5 842.5 318.3 825.2 316.3 805.8 c 0
 314.3 787.4 292 768.6 273.3 769.6 c 0
 253.6 770.6 240.7 788.4 242.7 807.3 c 0
428.7 807.3 m 0
 430.7 825.7 452.1 844.5 470.8 843.5 c 0
 490 842.5 504.8 825.2 502.8 805.8 c 0
 500.8 787.4 478.5 768.6 459.8 769.6 c 0
 440.1 770.6 426.7 788.4 428.7 807.3 c 0
545.6 699.5 m 1
 608.7 699.5 l 1
 308.7 286.5 l 1
 259.7 0 l 1
 204.5 0 l 1
 255.5 289 l 1
 101.5 700 l 1
 161.1 700 l 1
 289.1 339 l 1
 545.6 699.5 l 1
EndSplineSet
EndChar

StartChar: Scaron
Encoding: 352 352 332
Width: 508
VWidth: 0
Flags: HMW
LayerCount: 2
Fore
SplineSet
93.6 214.2 m 1
 113.6 129.3 150.7 44.1 249 43.6 c 0
 340.5 43.1 399.4 100.8 412.9 179.9 c 0
 427.4 269 356.4 314.4 283.2 346.2 c 0
 207.2 379.5 124 437.7 139 541.5 c 0
 154.5 640.5 249 709.1 352 708.6 c 0
 455 708.1 509.5 632.5 526 555.5 c 1
 477.8 527.8 l 1
 461.5 590.1 429.1 654.6 347.8 655.6 c 0
 273.3 656.1 206.9 606.2 195.4 537.2 c 0
 181.4 456.8 259.9 416.2 332.9 384.9 c 0
 411.9 350.3 484 289.7 469.5 183.5 c 0
 453 73.5 368.5 -9.1 241 -8.6 c 0
 124.5 -8.1 66 84.6 43.5 187.5 c 1
 93.6 214.2 l 1
372.5 829.5 m 1
 515.4 939.7 l 1
 545 912.1 l 1
 366 773.6 l 1
 233 913.6 l 1
 268.6 940.2 l 1
 372.5 829.5 l 1
EndSplineSet
EndChar

StartChar: scaron
Encoding: 353 353 333
Width: 391
VWidth: 0
Flags: HMW
LayerCount: 2
Fore
SplineSet
71.3 155.2 m 1
 77.2 95.7 106.6 40 177.1 39.5 c 0
 231.5 39 279.4 70.4 287.4 120.8 c 0
 296.9 176 246.7 200.9 196.7 221.2 c 0
 135.7 246.4 78.6 278.5 90.1 353.5 c 0
 101.1 425 174.2 468.6 245.8 468.6 c 0
 315.7 468.6 364.4 429.6 380.9 374.6 c 1
 336.2 349.7 l 1
 319.2 387.1 289.6 419.3 241.6 419.3 c 0
 195.1 419.3 147.1 394.8 140.1 349.5 c 0
 131.1 296 188.6 275.1 237.4 255.8 c 0
 296.6 230.9 349.8 190.9 340.8 124.4 c 0
 329.8 38.9 255.6 -10.5 169.6 -9.5 c 0
 80.1 -9 32 56.2 25 131.7 c 1
 71.3 155.2 l 1
265.8 586.4 m 1
 408.7 696.6 l 1
 438.3 668.5 l 1
 259.3 530 l 1
 125.8 670.5 l 1
 161.9 697.1 l 1
 265.8 586.4 l 1
EndSplineSet
EndChar

StartChar: Lslash
Encoding: 321 321 334
Width: 407
VWidth: 0
Flags: HMW
LayerCount: 2
Fore
SplineSet
33.7 359.4 m 1
 25.5 396 l 1
 316.5 564.5 l 1
 325.2 527.9 l 1
 33.7 359.4 l 1
170 700 m 1
 225.2 700 l 1
 113.7 52 l 1
 380.5 52 l 1
 371 0 l 1
 49.5 0 l 1
 170 700 l 1
EndSplineSet
EndChar

StartChar: lslash
Encoding: 322 322 335
Width: 195
VWidth: 0
Flags: HMW
LayerCount: 2
Fore
SplineSet
34.4 359.4 m 1
 25.5 396 l 1
 266.5 544.5 l 1
 275.4 507.9 l 1
 34.4 359.4 l 1
178.5 779.5 m 1
 230.5 780 l 1
 96 0 l 1
 45.5 0 l 1
 178.5 779.5 l 1
EndSplineSet
EndChar

StartChar: uni0218
Encoding: 536 536 336
Width: 508
VWidth: 0
Flags: HMW
LayerCount: 2
Fore
SplineSet
93.6 214.2 m 1
 113.6 129.3 150.7 44.1 249 43.6 c 0
 340.5 43.1 399.4 100.8 412.9 179.9 c 0
 427.4 269 356.4 314.4 283.2 346.2 c 0
 207.2 379.5 124 437.7 139 541.5 c 0
 154.5 640.5 249 709.1 352 708.6 c 0
 455 708.1 509.5 632.5 526 555.5 c 1
 477.8 527.8 l 1
 461.5 590.1 429.1 654.6 347.8 655.6 c 0
 273.3 656.1 206.9 606.2 195.4 537.2 c 0
 181.4 456.8 259.9 416.2 332.9 384.9 c 0
 411.9 350.3 484.5 289.7 470 183.5 c 0
 453.5 73.5 368.5 -9.1 241 -8.6 c 0
 124.5 -8.1 66 84.6 43.5 187.5 c 1
 93.6 214.2 l 1
248.6 -70.1 m 1
 298.3 -90.6 l 1
 148.3 -338.1 l 1
 112.7 -324.9 l 1
 248.6 -70.1 l 1
EndSplineSet
EndChar

StartChar: uni0219
Encoding: 537 537 337
Width: 391
VWidth: 0
Flags: HMW
LayerCount: 2
Fore
SplineSet
71.3 155.2 m 1
 77.2 95.7 106.1 40 176.6 39.5 c 0
 231 39 279.4 70.4 287.4 120.8 c 0
 296.9 176 246.7 200.9 196.7 221.2 c 0
 135.7 246.4 78.6 278.5 90.1 353.5 c 0
 101.1 425 174.2 468.6 245.8 468.6 c 0
 315.7 468.6 364.4 429.6 380.9 374.6 c 1
 336.2 349.7 l 1
 319.2 387.1 289.6 419.3 241.6 419.3 c 0
 195.1 419.3 147.1 394.8 140.1 349.5 c 0
 131.1 296 188.6 275.1 237.4 255.8 c 0
 296.6 230.9 349.8 190.9 340.8 124.4 c 0
 329.8 38.9 255.6 -10.5 169.6 -9.5 c 0
 80.1 -9 32 56.2 25 131.7 c 1
 71.3 155.2 l 1
177.2 -71 m 1
 226.4 -91.5 l 1
 76.4 -339 l 1
 40.8 -325.8 l 1
 177.2 -71 l 1
EndSplineSet
EndChar

StartChar: pi
Encoding: 960 960 338
Width: 496
VWidth: 0
Flags: HMW
LayerCount: 2
Fore
SplineSet
134 437.5 m 1
 187 438 l 1
 110.5 0 l 1
 60 0 l 1
 134 437.5 l 1
80 460 m 1
 510 460 l 1
 501.5 411 l 1
 71.5 411 l 1
 80 460 l 1
377.5 438 m 1
 429.5 438 l 1
 376 133 l 1
 369.5 72.5 372 53 412.5 43 c 1
 404 -8.5 l 1
 330.5 -1 312.5 32 323 121 c 1
 377.5 438 l 1
EndSplineSet
EndChar

StartChar: trademark
Encoding: 8482 8482 339
Width: 645
VWidth: 0
Flags: HMW
LayerCount: 2
Fore
SplineSet
121.2 673.8 m 1
 125.2 699.5 l 1
 331.8 699.5 l 1
 327.8 673.8 l 1
 237.6 673.8 l 1
 182.1 350.5 l 1
 154.7 350.5 l 1
 209.7 673.8 l 1
 121.2 673.8 l 1
638 636.2 m 1
 671.7 716.7 l 1
 646.2 350 l 1
 619.1 350.5 l 1
 638 636.2 l 1
398.2 712.7 m 1
 402.2 634.2 l 1
 323.3 350.5 l 1
 296 351 l 1
 398.2 712.7 l 1
672.2 716.2 m 1
 658.4 652.2 l 1
 478.2 389.5 l 1
 388.8 656.2 l 1
 397.7 713.2 l 1
 486.2 445.7 l 1
 672.2 716.2 l 1
EndSplineSet
EndChar

StartChar: uni2219
Encoding: 8729 8729 340
Width: 275
VWidth: 0
Flags: HMW
LayerCount: 2
Fore
SplineSet
147.3 429.3 m 0
 149.3 447.7 170.8 466.5 189.5 465.5 c 0
 208.7 464.5 222.2 447.2 220.2 427.8 c 0
 218.2 409.4 196.7 390.6 178 391.6 c 0
 158.8 392.6 145.3 409.9 147.3 429.3 c 0
EndSplineSet
EndChar

StartChar: agrave.alt
Encoding: 65537 -1 341
Width: 451
VWidth: 0
Flags: HMW
LayerCount: 2
Fore
SplineSet
79.8 135 m 0
 69.8 72.2 111.8 37.8 173.5 37.3 c 0
 259.5 36.3 321.5 93 341.5 171.5 c 1
 347.8 141 l 1
 327.3 55.5 254.9 -10 157.5 -9.5 c 0
 73.5 -9 15 44.5 27.5 129.5 c 0
 42.5 228.5 137.5 284 237 283.5 c 0
 304.5 283.5 346.6 255.7 372 228.5 c 1
 366.5 197.4 l 1
 331.2 225.9 289.7 243.2 235.7 242.7 c 0
 160.3 242.2 91.8 204.7 79.8 135 c 0
133.6 369.6 m 1
 114 410.5 l 1
 157.8 439.7 215 470 286 469.5 c 0
 378 468.5 429 411 418 326 c 1
 362 0 l 1
 310 0 l 1
 367.5 326 l 1
 371.5 383 343.6 422 281.5 423 c 0
 221 424 170.6 394.4 133.6 369.6 c 1
179.5 691.4 m 1
 230.1 718 l 1
 358.1 557.5 l 1
 326.9 538 l 1
 179.5 691.4 l 1
EndSplineSet
EndChar

StartChar: aacute.alt
Encoding: 65538 -1 342
Width: 451
VWidth: 0
Flags: HMW
LayerCount: 2
Fore
SplineSet
79.8 135 m 0
 69.8 72.2 111.8 37.8 173.5 37.3 c 0
 259.5 36.3 321.5 93 341.5 171.5 c 1
 347.8 141 l 1
 327.3 55.5 254.9 -10 157.5 -9.5 c 0
 73.5 -9 15 44.5 27.5 129.5 c 0
 42.5 228.5 137.5 284 237 283.5 c 0
 304.5 283.5 346.6 255.7 372 228.5 c 1
 366.5 197.4 l 1
 331.2 225.9 289.7 243.2 235.7 242.7 c 0
 160.3 242.2 91.8 204.7 79.8 135 c 0
133.6 369.6 m 1
 114 410.5 l 1
 157.8 439.7 215 470 286 469.5 c 0
 378 468.5 429 411 418 326 c 1
 362 0 l 1
 310 0 l 1
 367.5 326 l 1
 371.5 383 343.6 422 281.5 423 c 0
 221 424 170.6 394.4 133.6 369.6 c 1
464 688.9 m 1
 267.1 539 l 1
 239.9 559.5 l 1
 420.4 717.5 l 1
 464 688.9 l 1
EndSplineSet
EndChar

StartChar: acircumflex.alt
Encoding: 65539 -1 343
Width: 451
VWidth: 0
Flags: HMW
LayerCount: 2
Fore
SplineSet
79.8 135 m 0
 69.8 72.2 111.8 37.8 173.5 37.3 c 0
 259.5 36.3 321.5 93 341.5 171.5 c 1
 347.8 141 l 1
 327.3 55.5 254.9 -10 157.5 -9.5 c 0
 73.5 -9 15 44.5 27.5 129.5 c 0
 42.5 228.5 137.5 284 237 283.5 c 0
 304.5 283.5 346.6 255.7 372 228.5 c 1
 366.5 197.4 l 1
 331.2 225.9 289.7 243.2 235.7 242.7 c 0
 160.3 242.2 91.8 204.7 79.8 135 c 0
133.6 369.6 m 1
 114 410.5 l 1
 157.8 439.7 215 470 286 469.5 c 0
 378 468.5 429 411 418 326 c 1
 362 0 l 1
 310 0 l 1
 367.5 326 l 1
 371.5 383 343.6 422 281.5 423 c 0
 221 424 170.6 394.4 133.6 369.6 c 1
320 644.5 m 1
 176.4 534.5 l 1
 147.5 561.9 l 1
 326 700.4 l 1
 459.5 560.4 l 1
 424.1 534.5 l 1
 320 644.5 l 1
EndSplineSet
EndChar

StartChar: atilde.alt
Encoding: 65540 -1 344
Width: 451
VWidth: 0
Flags: HMW
LayerCount: 2
Fore
SplineSet
79.8 135 m 0
 69.8 72.2 111.8 37.8 173.5 37.3 c 0
 259.5 36.3 321.5 93 341.5 171.5 c 1
 347.8 141 l 1
 327.3 55.5 254.9 -10 157.5 -9.5 c 0
 73.5 -9 15 44.5 27.5 129.5 c 0
 42.5 228.5 137.5 284 237 283.5 c 0
 304.5 283.5 346.6 255.7 372 228.5 c 1
 366.5 197.4 l 1
 331.2 225.9 289.7 243.2 235.7 242.7 c 0
 160.3 242.2 91.8 204.7 79.8 135 c 0
133.6 369.6 m 1
 114 410.5 l 1
 157.8 439.7 215 470 286 469.5 c 0
 378 468.5 429 411 418 326 c 1
 362 0 l 1
 310 0 l 1
 367.5 326 l 1
 371.5 383 343.6 422 281.5 423 c 0
 221 424 170.6 394.4 133.6 369.6 c 1
156.5 573.8 m 1
 172 610.3 206.6 645.5 252.1 644.5 c 0
 302.1 644 318.1 597 364.6 598.5 c 0
 390.1 599.5 409.6 620.5 428.1 645.5 c 1
 455 618 l 1
 434 586 399.5 553.5 357.5 554.5 c 0
 311 555.5 290.7 601 248.7 600.5 c 0
 212.2 600 196.5 571 188 550.5 c 1
 156.5 573.8 l 1
EndSplineSet
EndChar

StartChar: adieresis.alt
Encoding: 65541 -1 345
Width: 451
VWidth: 0
Flags: HMW
LayerCount: 2
Fore
SplineSet
79.8 135 m 0
 69.8 72.2 111.8 37.8 173.5 37.3 c 0
 259.5 36.3 321.5 93 341.5 171.5 c 1
 347.8 141 l 1
 327.3 55.5 254.9 -10 157.5 -9.5 c 0
 73.5 -9 15 44.5 27.5 129.5 c 0
 42.5 228.5 137.5 284 237 283.5 c 0
 304.5 283.5 346.6 255.7 372 228.5 c 1
 366.5 197.4 l 1
 331.2 225.9 289.7 243.2 235.7 242.7 c 0
 160.3 242.2 91.8 204.7 79.8 135 c 0
133.6 369.6 m 1
 114 410.5 l 1
 157.8 439.7 215 470 286 469.5 c 0
 378 468.5 429 411 418 326 c 1
 362 0 l 1
 310 0 l 1
 367.5 326 l 1
 371.5 383 343.6 422 281.5 423 c 0
 221 424 170.6 394.4 133.6 369.6 c 1
354.8 576.2 m 0
 356.8 594.6 378.3 613.4 397 612.4 c 0
 416.2 611.4 430.2 594.1 428.2 574.7 c 0
 426.2 556.3 404.2 537.5 385.5 538.5 c 0
 366.3 539.5 352.8 556.8 354.8 576.2 c 0
176.3 576.2 m 0
 178.3 594.6 199.8 613.4 218.5 612.4 c 0
 237.7 611.4 251.2 594.1 249.2 574.7 c 0
 247.2 556.3 225.7 537.5 207 538.5 c 0
 187.8 539.5 174.3 556.8 176.3 576.2 c 0
EndSplineSet
EndChar

StartChar: aring.alt
Encoding: 65542 -1 346
Width: 451
VWidth: 0
Flags: HMW
LayerCount: 2
Fore
SplineSet
79.8 135 m 0
 69.8 72.2 111.8 37.8 173.5 37.3 c 0
 259.5 36.3 321.5 93 341.5 171.5 c 1
 347.8 141 l 1
 327.3 55.5 254.9 -10 157.5 -9.5 c 0
 73.5 -9 15 44.5 27.5 129.5 c 0
 42.5 228.5 137.5 284 237 283.5 c 0
 304.5 283.5 346.6 255.7 372 228.5 c 1
 366.5 197.4 l 1
 331.2 225.9 289.7 243.2 235.7 242.7 c 0
 160.3 242.2 91.8 204.7 79.8 135 c 0
133.6 369.6 m 1
 114 410.5 l 1
 157.8 439.7 215 470 286 469.5 c 0
 378 468.5 429 411 418 326 c 1
 362 0 l 1
 310 0 l 1
 367.5 326 l 1
 371.5 383 343.6 422 281.5 423 c 0
 221 424 170.6 394.4 133.6 369.6 c 1
215.5 631 m 0
 223.5 686 278 730 331 729.5 c 0
 384 729 422.5 683.5 415 629 c 0
 407 574 352.5 530 299.5 530.5 c 0
 246.5 531 208 576.5 215.5 631 c 0
249.8 629.5 m 0
 245.3 594.5 268.4 564.1 302 562.6 c 0
 336.1 561.1 376.2 594.5 381.2 630.5 c 0
 385.7 665.5 361.6 695.9 328 697.4 c 0
 293.9 698.9 254.8 665.5 249.8 629.5 c 0
EndSplineSet
EndChar

StartChar: amacron.alt
Encoding: 65543 -1 347
Width: 451
VWidth: 0
Flags: HMW
LayerCount: 2
Fore
SplineSet
79.8 135 m 0
 69.8 72.2 111.8 37.8 173.5 37.3 c 0
 259.5 36.3 321.5 93 341.5 171.5 c 1
 347.8 141 l 1
 327.3 55.5 254.9 -10 157.5 -9.5 c 0
 73.5 -9 15 44.5 27.5 129.5 c 0
 42.5 228.5 137.5 284 237 283.5 c 0
 304.5 283.5 346.6 255.7 372 228.5 c 1
 366.5 197.4 l 1
 331.2 225.9 289.7 243.2 235.7 242.7 c 0
 160.3 242.2 91.8 204.7 79.8 135 c 0
133.6 369.6 m 1
 114 410.5 l 1
 157.8 439.7 215 470 286 469.5 c 0
 378 468.5 429 411 418 326 c 1
 362 0 l 1
 310 0 l 1
 367.5 326 l 1
 371.5 383 343.6 422 281.5 423 c 0
 221 424 170.6 394.4 133.6 369.6 c 1
132 550.5 m 1
 140 599 l 1
 480.5 599 l 1
 472.5 550 l 1
 132 550.5 l 1
EndSplineSet
EndChar

StartChar: abreve.alt
Encoding: 65544 -1 348
Width: 451
VWidth: 0
Flags: HMW
LayerCount: 2
Fore
SplineSet
79.8 135 m 0
 69.8 72.2 111.8 37.8 173.5 37.3 c 0
 259.5 36.3 321.5 93 341.5 171.5 c 1
 347.8 141 l 1
 327.3 55.5 254.9 -10 157.5 -9.5 c 0
 73.5 -9 15 44.5 27.5 129.5 c 0
 42.5 228.5 137.5 284 237 283.5 c 0
 304.5 283.5 346.6 255.7 372 228.5 c 1
 366.5 197.4 l 1
 331.2 225.9 289.7 243.2 235.7 242.7 c 0
 160.3 242.2 91.8 204.7 79.8 135 c 0
133.6 369.6 m 1
 114 410.5 l 1
 157.8 439.7 215 470 286 469.5 c 0
 378 468.5 429 411 418 326 c 1
 362 0 l 1
 310 0 l 1
 367.5 326 l 1
 371.5 383 343.6 422 281.5 423 c 0
 221 424 170.6 394.4 133.6 369.6 c 1
165 674 m 1
 210.3 673.5 l 1
 206.8 626.5 230.6 578 300 577.5 c 0
 371.4 577 410.2 627.5 426.2 673.5 c 1
 473 673 l 1
 453.5 601 393.5 534.5 296.5 534.5 c 0
 200.5 534.5 159 600.5 165 674 c 1
EndSplineSet
EndChar

StartChar: aogonek.alt
Encoding: 65545 -1 349
Width: 451
VWidth: 0
Flags: HMW
LayerCount: 2
Fore
SplineSet
79.8 135 m 0
 70.8 72.7 115.3 37.8 173.5 37.3 c 0
 259 36.3 321.5 93 341.5 171.5 c 1
 347.8 141 l 1
 327.3 55.5 254.9 -10 157.5 -9.5 c 0
 75.4 -9 15.5 45.6 28 133.6 c 0
 43 229.1 135 284 237 283.5 c 0
 304.5 283 346.6 255.7 372 228.5 c 1
 366.5 197.4 l 1
 331.2 225.9 289.7 243.2 235.7 242.7 c 0
 160.3 242.2 91.3 205.2 79.8 135 c 0
133.6 369.6 m 1
 114 410.5 l 1
 157.8 439.7 215 470 286 469.5 c 0
 378 468.5 429 411 418 326 c 1
 362 0 l 1
 310 0 l 1
 367.5 326 l 1
 371.5 383 343.6 422 281.5 423 c 0
 221 424 170.6 394.4 133.6 369.6 c 1
352.3 -147.6 m 1
 369.6 -181.5 l 1
 347.1 -201 314.6 -219.5 274.6 -219.5 c 0
 209.1 -220 168.6 -184 176.6 -127.5 c 0
 187.6 -58 270.3 -14.5 337.8 18.5 c 1
 362.5 0 l 1
 308.8 -26 237.6 -63 229.6 -116 c 0
 225.6 -151.5 248.6 -172 283.1 -173.5 c 0
 311.4 -174.5 334.6 -161.1 352.3 -147.6 c 1
EndSplineSet
EndChar

StartChar: dagger
Encoding: 8224 8224 350
Width: 525
VWidth: 0
Flags: HMW
LayerCount: 2
Fore
SplineSet
153 540 m 1
 505.5 540 l 1
 497.5 491 l 1
 145 491 l 1
 153 540 l 1
328 700 m 1
 380 700 l 1
 248 -150 l 1
 197.5 -149.5 l 1
 328 700 l 1
EndSplineSet
EndChar

StartChar: daggerdbl
Encoding: 8225 8225 351
Width: 525
VWidth: 0
Flags: HMW
LayerCount: 2
Fore
SplineSet
88 120 m 1
 441 120 l 1
 433 71 l 1
 80.5 71 l 1
 88 120 l 1
153 540 m 1
 505.5 540 l 1
 497.5 491 l 1
 145 491 l 1
 153 540 l 1
328 700 m 1
 380 700 l 1
 248 -150 l 1
 197.5 -149.5 l 1
 328 700 l 1
EndSplineSet
EndChar

StartChar: ellipsis
Encoding: 8230 8230 352
Width: 838
VWidth: 0
Flags: HMW
LayerCount: 2
Fore
SplineSet
78.5 25.2 m 0
 80.5 43.6 102 62.4 120.7 61.4 c 0
 139.9 60.4 153.9 43.1 151.9 23.7 c 0
 149.9 5.3 128.4 -13.5 109.7 -12.5 c 0
 90.5 -11.5 76.5 5.8 78.5 25.2 c 0
360 25.2 m 0
 362 43.6 383.5 62.4 402.2 61.4 c 0
 421.4 60.4 435.4 43.1 433.4 23.7 c 0
 431.4 5.3 409.9 -13.5 391.2 -12.5 c 0
 372 -11.5 358 5.8 360 25.2 c 0
641.5 25.2 m 0
 643.5 43.6 665 62.4 683.7 61.4 c 0
 702.9 60.4 716.9 43.1 714.9 23.7 c 0
 712.9 5.3 691.4 -13.5 672.7 -12.5 c 0
 653.5 -11.5 639.5 5.8 641.5 25.2 c 0
EndSplineSet
EndChar

StartChar: uniFF10
Encoding: 65296 65296 353
Width: 550
VWidth: 0
Flags: HMW
LayerCount: 2
Fore
SplineSet
125.7 350 m 0
 110.7 220.7 119.7 44 253.5 42.5 c 0
 387.3 41 470.3 204.2 490.8 350 c 0
 505.8 479.3 496.8 656 363 657.5 c 0
 229.2 659 146.2 495.8 125.7 350 c 0
71 350 m 0
 95.5 526.5 203 710 367.5 709.5 c 0
 534 709 565 511 545.5 350 c 0
 521 173.5 413 -10 248.5 -9.5 c 0
 82 -9 51.5 189 71 350 c 0
EndSplineSet
EndChar

StartChar: uniFF11
Encoding: 65297 65297 354
Width: 550
VWidth: 0
Flags: HMW
LayerCount: 2
Fore
SplineSet
205 598.9 m 1
 215.5 657 l 1
 435.5 708.5 l 1
 313.5 0 l 1
 259 0 l 1
 369 640.1 l 1
 205 598.9 l 1
EndSplineSet
EndChar

StartChar: uniFF12
Encoding: 65298 65298 355
Width: 550
VWidth: 0
Flags: HMW
LayerCount: 2
Fore
SplineSet
4.4 0 m 1
 378.4 345.2 l 2
 429.5 392.6 476.1 443 488.1 511.1 c 0
 500.6 580.2 464.6 657 372.1 658.5 c 0
 264.1 660 192.1 566.5 171.1 460.5 c 1
 117.4 461 l 1
 142.9 596 235.6 711.5 377.1 710.5 c 0
 507.1 710 559.1 602 542.6 507 c 0
 529.6 429.5 477.1 367.9 419.6 315.2 c 2
 126.1 52.5 l 1
 478.4 52 l 1
 469.4 0 l 1
 4.4 0 l 1
EndSplineSet
EndChar

StartChar: uniFF13
Encoding: 65299 65299 356
Width: 550
VWidth: 0
Flags: HMW
LayerCount: 2
Fore
SplineSet
286.1 352.4 m 1
 291.6 388 l 1
 379.1 394 463 441.8 479 525.9 c 0
 490.5 594.3 455.3 658.4 374.4 659.4 c 0
 291.1 660.4 231.7 598.5 213.2 526.5 c 1
 160.9 527 l 1
 183.4 630 264.1 710 378.6 709.5 c 0
 489.1 709 550.1 621.5 534.6 527.5 c 0
 515.6 418 403.6 356.9 286.1 352.4 c 1
256.1 -9.5 m 0
 129.6 -9.5 61.9 76.5 73.4 185 c 1
 128.2 184.5 l 1
 120.7 104 166.1 43 260.6 42.5 c 0
 351.6 42 426.5 103 440.5 187 c 0
 457 285.8 371.1 333.5 284.1 339 c 1
 289.6 374.6 l 1
 406.1 370.1 514.6 310 494.6 180.5 c 0
 476.6 68 376.1 -9.5 256.1 -9.5 c 0
EndSplineSet
EndChar

StartChar: uniFF14
Encoding: 65300 65300 357
Width: 550
VWidth: 0
Flags: HMW
LayerCount: 2
Fore
SplineSet
14.7 140.5 m 1
 68.2 188.5 l 1
 385.8 189 l 1
 397.7 189 l 1
 527.5 189 l 1
 519 140 l 1
 14.7 140.5 l 1
74.6 141 m 1
 14.7 140.5 l 1
 485.5 699 l 1
 507.9 699.5 l 1
 387.9 0 l 1
 333.2 0 l 1
 361.7 162.2 l 1
 362.7 171 l 1
 431.2 569 l 1
 74.6 141 l 1
EndSplineSet
EndChar

StartChar: uniFF15
Encoding: 65301 65301 358
Width: 550
VWidth: 0
Flags: HMW
LayerCount: 2
Fore
SplineSet
511.3 230 m 0
 490.8 86 376.6 -9.5 241.1 -9.5 c 0
 132.1 -9.5 70.3 51 38.3 137.5 c 1
 87.5 168.2 l 1
 111.5 97.6 163 43 246.1 42.5 c 0
 354.6 42 437.4 121.5 454.9 230 c 0
 469.4 323.5 419.3 405.7 322.3 407.7 c 0
 246.3 409.7 185.8 377 123.3 328.5 c 1
 166.9 379.7 l 1
 211.7 426.2 278.6 458 348.1 457.5 c 0
 468.6 456.5 527.3 348 511.3 230 c 0
310.8 651 m 1
 202.9 392.9 l 1
 119.8 325 l 1
 275.8 699.5 l 1
 597.3 700 l 1
 589.3 651.5 l 1
 310.8 651 l 1
EndSplineSet
EndChar

StartChar: uniFF16
Encoding: 65302 65302 359
Width: 550
VWidth: 0
Flags: HMW
LayerCount: 2
Fore
SplineSet
115.3 226 m 0
 100.3 130 150 41.1 253.5 40.6 c 0
 358 40.1 442.7 124.5 459.2 226 c 0
 473.2 318.5 421.7 406.4 324.2 407.4 c 0
 217.2 408.4 132.3 323 115.3 226 c 0
415.5 699.5 m 1
 485.5 699.5 l 1
 209.4 389.3 l 1
 205.1 393.3 l 1
 243.6 428.6 290 449 346 448.5 c 0
 463 447 526.5 337.5 511 225.5 c 0
 491.5 93.5 383.5 -9.5 248.5 -9.5 c 0
 114.5 -9.5 45 99.5 63.5 226 c 0
 73 283 101.4 336.8 135.4 376.8 c 2
 415.5 699.5 l 1
EndSplineSet
EndChar

StartChar: uniFF17
Encoding: 65303 65303 360
Width: 550
VWidth: 0
Flags: HMW
LayerCount: 2
Fore
SplineSet
136.8 648 m 1
 145.8 700 l 1
 615.8 699.5 l 1
 156 0 l 1
 98.1 0 l 1
 523.2 647.5 l 1
 136.8 648 l 1
EndSplineSet
EndChar

StartChar: uniFF18
Encoding: 65304 65304 361
Width: 550
VWidth: 0
Flags: HMW
LayerCount: 2
Fore
SplineSet
160 535.5 m 0
 175 629.5 264.5 710 367.5 709.5 c 0
 468.5 709 534 626 520 534.5 c 0
 505 434.5 414 360.6 312 360.6 c 0
 211.5 360.6 145.5 438 160 535.5 c 0
210.3 529 m 0
 200.3 460.5 247 397.5 314 396.5 c 0
 382.5 395.5 455.2 457 467.2 529 c 0
 478.2 596.5 438 659.5 363.5 660.5 c 0
 288 661.5 222.3 600 210.3 529 c 0
78 188.5 m 0
 95.5 302 201 382.9 312 382.4 c 0
 421 382.4 499 298.5 483 187.5 c 0
 466 79 368 -10 248.5 -9.5 c 0
 131 -9 62 84 78 188.5 c 0
130.8 194 m 0
 117.3 110 166 40.5 253 39.5 c 0
 341 38.5 418.7 106.5 432.7 194 c 0
 444.7 273 389.5 345.5 309.5 346.5 c 0
 228 347.5 144.8 276.5 130.8 194 c 0
EndSplineSet
EndChar

StartChar: uniFF19
Encoding: 65305 65305 362
Width: 550
VWidth: 0
Flags: HMW
LayerCount: 2
Fore
SplineSet
501.2 474 m 0
 516.2 570 467 658.9 363.5 659.4 c 0
 259 659.9 173.8 575.5 157.3 474 c 0
 143.3 381.5 194.8 293.6 292.3 292.6 c 0
 399.3 291.6 484.2 377 501.2 474 c 0
201 0 m 1
 131 0 l 1
 406.6 310.7 l 1
 411.4 306.7 l 1
 372.9 271.4 327 251 271 251.5 c 0
 154 253 90 362.5 105.5 474.5 c 0
 125 606.5 232.5 709.5 367.5 709.5 c 0
 501.5 709.5 572 600.5 553.5 474 c 0
 544 417 514.6 363.2 480.6 323.2 c 2
 201 0 l 1
EndSplineSet
EndChar

StartChar: caron
Encoding: 711 711 363
Width: 465
VWidth: 0
Flags: HMW
LayerCount: 2
Fore
SplineSet
311 626.4 m 1
 453.4 736.6 l 1
 483 708.5 l 1
 304.5 570 l 1
 171 710.5 l 1
 206.6 737.1 l 1
 311 626.4 l 1
EndSplineSet
EndChar

StartChar: napostrophe
Encoding: 329 329 364
Width: 608
VWidth: 0
Flags: HMW
LayerCount: 2
Fore
SplineSet
278.5 460 m 1
 199 0 l 1
 147.5 0 l 1
 227 460 l 1
 278.5 460 l 1
485.5 296 m 2
 494 362.5 478 419 404 420.5 c 0
 323.3 422 265 352.3 247 281 c 1
 223.2 281 l 1
 243.2 379.5 318.5 469.5 420 469.5 c 0
 517 469.5 549 394 537.5 302 c 1
 485 0 l 1
 434.5 0 l 1
 485.5 296 l 2
234.6 699.5 m 1
 297.5 699.5 l 1
 161 471 l 1
 124 471 l 1
 234.6 699.5 l 1
EndSplineSet
EndChar

StartChar: IJ
Encoding: 306 306 365
Width: 475
VWidth: 0
Flags: HMW
LayerCount: 2
Fore
SplineSet
104 -126.3 m 1
 122.5 -149.5 149.2 -167.8 185.7 -167.3 c 0
 245 -166.8 279.7 -120 290.2 -50 c 1
 418.7 700 l 1
 470.9 700 l 1
 340.9 -60.5 l 2
 325.9 -155.5 272.4 -220.5 177.9 -219.5 c 0
 129.9 -219 89.9 -193 69.4 -167.5 c 1
 104 -126.3 l 1
171.5 699.5 m 1
 226.5 700 l 1
 105.5 0 l 1
 52.5 0 l 1
 171.5 699.5 l 1
EndSplineSet
EndChar

StartChar: ij
Encoding: 307 307 366
Width: 494
VWidth: 0
Flags: HMW
LayerCount: 2
Fore
SplineSet
405.5 668.5 m 0
 407.5 686.7 429.1 705.5 448 704.5 c 0
 467.4 703.5 480.5 686.7 478.5 667.5 c 0
 476.5 649.3 455.4 630.5 436.5 631.5 c 0
 417.1 632.5 403.5 649.3 405.5 668.5 c 0
153.2 -134.7 m 1
 167.1 -145.6 185.8 -167 206.5 -168 c 0
 257.5 -171 283.5 -113.4 291 -62.9 c 2
 381.5 460 l 1
 433 460 l 1
 342.5 -68.9 l 2
 329.5 -150.4 283 -221.5 198 -219.5 c 0
 160 -219 136.6 -197.9 119.1 -175.9 c 1
 153.2 -134.7 l 1
163 668.5 m 0
 165 686.7 186.1 705.5 205 704.5 c 0
 224.4 703.5 238 686.7 236 667.5 c 0
 234 649.3 212.9 630.5 194 631.5 c 0
 174.6 632.5 161 649.3 163 668.5 c 0
138 459.5 m 1
 190.5 460 l 1
 110.5 0 l 1
 60 0 l 1
 138 459.5 l 1
EndSplineSet
EndChar

StartChar: uni0237
Encoding: 567 567 367
Width: 215
VWidth: 0
Flags: HMW
LayerCount: 2
Fore
SplineSet
-98.8 -134.7 m 1
 -85.9 -153.6 -69.2 -167.5 -46 -168 c 0
 6 -168.5 30.5 -114.9 39 -62.9 c 2
 129 460 l 1
 180.5 460 l 1
 90.5 -68.9 l 2
 77.5 -150.4 30.5 -221.5 -54.5 -219.5 c 0
 -92.5 -219 -116.4 -197.9 -133.4 -175.9 c 1
 -98.8 -134.7 l 1
EndSplineSet
EndChar

StartChar: Sacute
Encoding: 346 346 368
Width: 508
VWidth: 0
Flags: HMW
LayerCount: 2
Fore
SplineSet
93.6 214.2 m 1
 113.6 129.3 150.7 44.1 249 43.6 c 0
 340.5 43.1 399.4 100.8 412.9 179.9 c 0
 427.4 269 356.4 314.4 283.2 346.2 c 0
 207.2 379.5 124 437.7 139 541.5 c 0
 154.5 640.5 249 709.1 352 708.6 c 0
 455 708.1 509.5 632.5 526 555.5 c 1
 477.8 527.8 l 1
 461.5 590.1 429.1 654.6 347.8 655.6 c 0
 273.3 656.1 206.9 606.2 195.4 537.2 c 0
 181.4 456.8 259.9 416.2 332.9 384.9 c 0
 411.9 350.3 484.5 289.7 470 183.5 c 0
 453.5 73.5 368.5 -9.1 241 -8.6 c 0
 124.5 -8.1 66 84.6 43.5 187.5 c 1
 93.6 214.2 l 1
556 920 m 1
 358.6 770.1 l 1
 331.9 790.6 l 1
 511.9 948.6 l 1
 556 920 l 1
EndSplineSet
EndChar

StartChar: sacute
Encoding: 347 347 369
Width: 391
VWidth: 0
Flags: HMW
LayerCount: 2
Fore
SplineSet
71.3 155.2 m 1
 77.2 95.7 106.1 40 176.6 39.5 c 0
 231 39 279.4 70.4 287.4 120.8 c 0
 296.9 176 246.7 200.9 196.7 221.2 c 0
 135.7 246.4 78.6 278.5 90.1 353.5 c 0
 101.1 425 174.2 468.6 245.8 468.6 c 0
 315.7 468.6 364.4 429.6 380.9 374.6 c 1
 336.2 349.7 l 1
 319.2 387.1 289.6 419.3 241.6 419.3 c 0
 195.1 419.3 147.1 394.8 140.1 349.5 c 0
 131.1 296 188.6 275.1 237.4 255.8 c 0
 296.6 230.9 349.8 190.9 340.8 124.4 c 0
 329.8 38.9 255.6 -10.5 169.6 -9.5 c 0
 80.1 -9 32 56.2 25 131.7 c 1
 71.3 155.2 l 1
449.8 680.9 m 1
 252.9 531 l 1
 225.7 551.5 l 1
 405.7 709.5 l 1
 449.8 680.9 l 1
EndSplineSet
EndChar

StartChar: Scircumflex
Encoding: 348 348 370
Width: 508
VWidth: 0
Flags: HMW
LayerCount: 2
Fore
SplineSet
93.6 214.2 m 1
 113.6 129.3 150.7 44.1 249 43.6 c 0
 340.5 43.1 399.4 100.8 412.9 179.9 c 0
 427.4 269 356.4 314.4 283.2 346.2 c 0
 207.2 379.5 124 437.7 139 541.5 c 0
 154.5 640.5 249 709.1 352 708.6 c 0
 455 708.1 509.5 632.5 526 555.5 c 1
 477.8 527.8 l 1
 461.5 590.1 429.1 654.6 347.8 655.6 c 0
 273.3 656.1 206.9 606.2 195.4 537.2 c 0
 181.4 456.8 259.9 416.2 332.9 384.9 c 0
 411.9 350.3 484 289.7 469.5 183.5 c 0
 453 73.5 368.5 -9.1 241 -8.6 c 0
 124.5 -8.1 66 84.6 43.5 187.5 c 1
 93.6 214.2 l 1
385 879.6 m 1
 241.9 770.1 l 1
 213 797.5 l 1
 391.5 936 l 1
 525 795.5 l 1
 489.6 769.6 l 1
 385 879.6 l 1
EndSplineSet
EndChar

StartChar: scircumflex
Encoding: 349 349 371
Width: 391
VWidth: 0
Flags: HMW
LayerCount: 2
Fore
SplineSet
71.3 155.2 m 1
 77.2 95.7 106.6 40 177.1 39.5 c 0
 231.5 39 279.4 70.4 287.4 120.8 c 0
 296.9 176 246.7 200.9 196.7 221.2 c 0
 135.7 246.4 78.6 278.5 90.1 353.5 c 0
 101.1 425 174.2 468.6 245.8 468.6 c 0
 315.7 468.6 364.4 429.6 380.9 374.6 c 1
 336.2 349.7 l 1
 319.2 387.1 289.6 419.3 241.6 419.3 c 0
 195.1 419.3 147.1 394.8 140.1 349.5 c 0
 131.1 296 188.6 275.1 237.4 255.8 c 0
 296.6 230.9 349.8 190.9 340.8 124.4 c 0
 329.8 38.9 255.6 -10.5 169.6 -9.5 c 0
 80.1 -9 32 56.2 25 131.7 c 1
 71.3 155.2 l 1
278.8 640.5 m 1
 135.7 530.5 l 1
 106.8 557.9 l 1
 285.3 696.4 l 1
 418.3 556.4 l 1
 382.9 530.5 l 1
 278.8 640.5 l 1
EndSplineSet
EndChar

StartChar: uni1E9E
Encoding: 7838 7838 372
Width: 675
VWidth: 0
Flags: HMW
LayerCount: 2
Fore
SplineSet
388 -9.5 m 0
 266.5 -9.5 199 78 209.5 185 c 1
 263.8 184.5 l 1
 256.8 106.4 303 43 392.5 42.5 c 0
 482 42 554.9 107.1 568.9 191 c 0
 585.9 288.8 505.9 333.1 411.5 338.1 c 1
 417.5 373.7 l 1
 540 369.7 644 313 623.5 184.5 c 0
 606 73 506 -9.5 388 -9.5 c 0
414 352.4 m 1
 419.5 388 l 1
 514.9 393.5 591.9 441.6 606.9 526.1 c 0
 621.4 609.6 545.3 658.9 455.8 659.4 c 0
 306.7 659.9 198 554.5 172.5 398 c 2
 104 0 l 1
 49.5 0 l 1
 117.5 398 l 2
 147 585 279 710.5 460 710 c 0
 575 710 681.5 647.5 663.5 533.5 c 0
 645 419 539.5 357.4 414 352.4 c 1
EndSplineSet
EndChar

StartChar: Zacute
Encoding: 377 377 373
Width: 524
VWidth: 0
Flags: HW
LayerCount: 2
Fore
SplineSet
118.5 647.8 m 1
 128 700 l 1
 601.5 699.5 l 1
 91 52.7 l 1
 475 52.2 l 1
 465.5 0 l 1
 -12.5 0 l 1
 498.5 647.3 l 1
 118.5 647.8 l 1
552.7 920 m 1
 354.4 770.1 l 1
 328.1 790.6 l 1
 508.6 948.6 l 1
 552.7 920 l 1
EndSplineSet
EndChar

StartChar: zacute
Encoding: 378 378 374
Width: 434
VWidth: 0
Flags: HW
LayerCount: 2
Fore
SplineSet
363.3 410.5 m 1
 84 411 l 1
 92.5 460 l 1
 467.5 459.5 l 1
 91.7 49.5 l 1
 388.5 49 l 1
 380 0 l 1
 -12.5 0 l 1
 363.3 410.5 l 1
470.2 692.9 m 1
 271.9 543 l 1
 245.6 563.5 l 1
 426.1 721.5 l 1
 470.2 692.9 l 1
EndSplineSet
EndChar

StartChar: Zdotaccent
Encoding: 379 379 375
Width: 524
VWidth: 0
Flags: HW
LayerCount: 2
Fore
SplineSet
118.5 647.8 m 1
 128 700 l 1
 601.5 699.5 l 1
 91 52.7 l 1
 475 52.2 l 1
 465.5 0 l 1
 -12.5 0 l 1
 498.5 647.3 l 1
 118.5 647.8 l 1
345.8 807.3 m 0
 347.8 825.7 368.8 844.5 387.5 843.5 c 0
 406.7 842.5 421.2 825.2 419.2 805.8 c 0
 417.2 787.4 395.2 768.6 376.5 769.6 c 0
 357.3 770.6 343.8 787.9 345.8 807.3 c 0
EndSplineSet
EndChar

StartChar: zdotaccent
Encoding: 380 380 376
Width: 434
VWidth: 0
Flags: HW
LayerCount: 2
Fore
SplineSet
363.3 410.5 m 1
 84 411 l 1
 92.5 460 l 1
 467.5 459.5 l 1
 91.7 49.5 l 1
 388.5 49 l 1
 380 0 l 1
 -12.5 0 l 1
 363.3 410.5 l 1
266.3 598.2 m 0
 268.3 616.6 289.8 635.4 308.5 634.4 c 0
 327.7 633.4 341.7 616.1 339.7 596.7 c 0
 337.7 578.3 316.2 559.5 297.5 560.5 c 0
 278.3 561.5 264.3 578.8 266.3 598.2 c 0
EndSplineSet
EndChar

StartChar: Tcaron
Encoding: 356 356 377
Width: 437
VWidth: 0
Flags: HW
LayerCount: 2
Fore
SplineSet
96 648 m 1
 105.5 700 l 1
 517.5 700 l 1
 508 648 l 1
 329.5 648 l 1
 218.5 0 l 1
 164 0 l 1
 275 648 l 1
 96 648 l 1
330.75 825.4 m 1
 473.65 935.6 l 1
 502.75 908 l 1
 324.25 769.5 l 1
 191.25 909.5 l 1
 226.8501 936.1 l 1
 330.75 825.4 l 1
EndSplineSet
EndChar

StartChar: tcaron
Encoding: 357 357 378
Width: 301
VWidth: 0
Flags: HW
LayerCount: 2
Fore
SplineSet
60 460 m 1
 257 460 l 1
 248 411 l 1
 51 411 l 1
 60 460 l 1
159.5 619.5 m 1
 212 620 l 1
 104.5 0 l 1
 54.5 0 l 1
 159.5 619.5 l 1
377 792 m 1
 426.5 771.5 l 1
 276.5 524 l 1
 241.5 537 l 1
 377 792 l 1
EndSplineSet
EndChar

StartChar: Uring
Encoding: 366 366 379
Width: 587
VWidth: 0
Flags: HW
LayerCount: 2
Fore
SplineSet
169 700 m 1
 223.5 700 l 1
 141.5 226 l 2
 128.5 128.5 165 43.5 272.5 42.5 c 0
 380.5 41.5 450.5 123.5 468.5 226 c 2
 550.5 700 l 1
 605 700 l 1
 524 226 l 2
 502 95.5 407.5 -9.5 267.5 -9.5 c 0
 129 -9.5 71 100 88 226 c 1
 169 700 l 1
315.5 870 m 0
 323.5 925 378 969 431 968.5 c 0
 484 968 522.5 923 515 868.5 c 0
 507 813.5 452.5 769 399.5 769.5 c 0
 346.5 770 308 815.5 315.5 870 c 0
349.8 869 m 0
 345.3 834 368.9 803.1 402.5 801.6 c 0
 436.6 800.1 476.2 833.5 481.2 869.5 c 0
 485.7 904.5 461.6 934.9 428 936.4 c 0
 393.9 937.9 354.8 905 349.8 869 c 0
EndSplineSet
EndChar

StartChar: uring
Encoding: 367 367 380
Width: 489
VWidth: 0
Flags: HW
LayerCount: 2
Fore
SplineSet
334.5 0 m 1
 414 460 l 1
 466 460 l 1
 386.5 0 l 1
 334.5 0 l 1
128.5 168 m 2
 120 99.5 134.5 40.5 209.5 39.5 c 0
 290 38 348.5 107 366.5 179 c 1
 384.5 179 l 1
 365 80.5 294 -10 193 -9.5 c 0
 95 -9.5 65 68 76.5 162 c 1
 128.5 460 l 1
 178.5 459.5 l 1
 128.5 168 l 2
225.75 631 m 0
 233.75 686 288.25 730 341.25 729.5 c 0
 394.25 729 432.25 683.5 424.75 629 c 0
 416.75 574 362.75 530 309.75 530.5 c 0
 256.75 531 218.25 576.5 225.75 631 c 0
259.55 629.5 m 0
 255.05 594.5 278.65 564.1 312.25 562.6 c 0
 346.35 561.1 385.95 594.5 390.95 630.5 c 0
 395.45 665.5 371.85 695.9 338.25 697.4 c 0
 304.15 698.9 264.55 665.5 259.55 629.5 c 0
EndSplineSet
EndChar
